<svg width="44" height="44" viewBox="0 0 44 44" fill="none" xmlns="http://www.w3.org/2000/svg">
<path d="M17.4165 38.5C19.9465 40.9438 24.0532 40.9438 26.5832 38.5M31.1665 25.3092C31.1665 24.6748 31.1665 24.3577 31.2618 24.0753C31.5387 23.254 32.2702 22.9368 33.0035 22.6032C33.8248 22.2273 34.2355 22.0403 34.6443 22.0073C35.1063 21.9707 35.5702 22.0697 35.9662 22.2915C36.4905 22.5848 36.8572 23.1458 37.2312 23.6005C38.96 25.7015 39.8253 26.752 40.1407 27.9088C40.3973 28.8438 40.3973 29.8228 40.1407 30.756C39.6805 32.4463 38.223 33.8617 37.1432 35.1743C36.5913 35.8435 36.3145 36.179 35.9662 36.3752C35.5634 36.5985 35.1033 36.6974 34.6443 36.6593C34.2355 36.6263 33.8248 36.4393 33.0017 36.0635C32.2683 35.7298 31.5387 35.4127 31.2618 34.5913C31.1665 34.309 31.1665 33.9918 31.1665 33.3593V25.3092ZM12.8332 25.3092C12.8332 24.5098 12.8112 23.793 12.1658 23.232C11.9312 23.0285 11.6195 22.8873 10.998 22.6032C10.1748 22.2292 9.76416 22.0403 9.35532 22.0073C8.13249 21.9083 7.47432 22.7443 6.77032 23.6023C5.03966 25.7015 4.17432 26.752 3.85716 27.9107C3.6023 28.842 3.6023 29.8247 3.85716 30.756C4.31916 32.4463 5.77849 33.8617 6.85649 35.1743C7.53666 35.9993 8.18749 36.7528 9.35532 36.6593C9.76416 36.6263 10.1748 36.4393 10.998 36.0635C11.6213 35.7793 11.9312 35.6382 12.1658 35.4347C12.8112 34.8737 12.8332 34.1568 12.8332 33.3575V25.3092Z" stroke="#001842" stroke-width="1.5" stroke-linecap="round" stroke-linejoin="round"/>
<path d="M3.6665 29.3334V22C3.6665 11.8745 11.8743 3.66669 21.9998 3.66669C32.1253 3.66669 40.3332 11.8745 40.3332 22V29.3334" stroke="#001842" stroke-width="1.5" stroke-linecap="round" stroke-linejoin="round"/>
</svg>
