<svg width="99" height="163" viewBox="0 0 99 163" fill="none" xmlns="http://www.w3.org/2000/svg">
<path d="M65.2981 7.04529L62.833 24.193C66.7146 25.1336 70.3416 26.5157 73.7137 28.3394C77.0858 30.1632 79.9423 32.2475 82.2831 34.5925C84.7177 36.9509 86.5094 39.456 87.6585 42.1078C88.9012 44.7731 89.334 47.4176 88.9568 50.0413C88.6065 52.4775 87.6812 54.2573 86.1808 55.3806C84.6804 56.5038 82.8057 56.9038 80.5568 56.5805C78.4953 56.2842 77.0233 55.5466 76.1408 54.3677C75.3519 53.2022 74.7841 51.8295 74.4374 50.2494C74.1042 48.5756 73.838 46.768 73.6389 44.8266C73.4398 42.8852 72.9862 41.0506 72.2782 39.323C71.5836 37.5016 70.4337 35.8539 68.8285 34.3798C67.3304 32.8255 65.0154 31.6319 61.8833 30.7991L56.3066 69.5923C62.1004 73.1988 66.8769 76.5633 70.6361 79.686C74.5025 82.7285 77.5523 85.797 79.7853 88.8916C82.0319 91.8924 83.5085 94.9261 84.2154 97.9925C84.9223 101.059 85.0265 104.326 84.5281 107.793C83.895 112.197 82.5125 116.158 80.3808 119.678C78.2625 123.103 75.5488 126.012 72.2399 128.406C68.9445 130.706 65.114 132.403 60.7486 133.497C56.4769 134.604 51.8778 134.995 46.9514 134.669L43.6781 157.439L35.9475 156.328L39.2006 133.699C34.5424 132.838 30.1993 131.448 26.1712 129.53C22.1431 127.612 18.6442 125.34 15.6744 122.713C12.7983 120.1 10.5852 117.2 9.03496 114.012C7.59195 110.744 7.12638 107.33 7.63826 103.769C8.09625 100.583 9.12231 98.4351 10.7165 97.3253C12.3106 96.2156 13.9978 95.7886 15.7782 96.0446C17.5586 96.3005 18.8833 97.0648 19.7524 98.3374C20.7287 99.5298 21.4303 100.97 21.8572 102.657C22.2976 104.25 22.5839 105.917 22.7163 107.658C22.8486 109.399 22.9745 110.851 23.094 112.016C23.2533 113.569 23.6067 115.102 24.1543 116.616C24.809 118.049 25.7584 119.429 27.0023 120.755C28.3399 122.095 30.0324 123.295 32.0798 124.354C34.2344 125.333 36.9448 126.106 40.2109 126.671L46.2726 84.5043C42.9274 82.4931 39.6425 80.395 36.418 78.21C33.1934 76.0249 30.3975 73.5189 28.0304 70.692C25.6632 67.8651 23.8788 64.6437 22.677 61.0279C21.4753 57.4121 21.2179 53.2148 21.9049 48.4359C22.5111 44.2193 23.7193 40.4717 25.5296 37.1933C27.447 33.8346 29.8525 31.0721 32.7462 28.9058C35.6534 26.6458 38.9951 25.0221 42.7714 24.0348C46.5611 22.9537 50.6782 22.5891 55.1227 22.9411L57.5675 5.93398L65.2981 7.04529ZM68.9405 112.438C69.3311 109.721 69.1593 107.257 68.4249 105.047C67.7976 102.758 66.7552 100.695 65.2975 98.8595C63.9471 96.9438 62.2349 95.2153 60.1612 93.6738C58.1009 92.0387 55.8865 90.4771 53.5182 88.9889L47.9819 127.501C54.274 127.64 59.1417 126.38 62.5847 123.718C66.1349 120.977 68.2535 117.217 68.9405 112.438ZM36.1274 43.3075C35.5616 47.243 36.2679 50.9789 38.2462 54.515C40.3182 58.0646 43.9231 61.5955 49.061 65.1077L54.1326 29.8283C49.1522 29.8775 45.0612 31.0587 41.8595 33.372C38.6577 35.6853 36.747 38.9971 36.1274 43.3075Z" fill="#001842" fill-opacity="0.07"/>
</svg>
