<svg width="135" height="171" viewBox="0 0 135 171" fill="none" xmlns="http://www.w3.org/2000/svg">
<path d="M104.773 19.0004L97.3835 34.6695C100.818 36.7079 103.88 39.0936 106.568 41.8268C109.256 44.5599 111.375 47.3908 112.925 50.3195C114.56 53.2885 115.538 56.2092 115.858 59.0815C116.264 61.9941 115.901 64.6492 114.77 67.0466C113.721 69.2728 112.314 70.7026 110.55 71.3361C108.786 71.9695 106.876 71.8016 104.821 70.8326C102.937 69.9442 101.747 68.807 101.249 67.421C100.837 66.0754 100.697 64.5964 100.829 62.9842C101.002 61.2863 101.278 59.4802 101.658 57.5659C102.037 55.6515 102.142 53.7646 101.972 51.9053C101.843 49.9602 101.227 48.0476 100.125 46.1673C99.1493 44.2418 97.2865 42.4213 94.5368 40.7059L77.82 76.154C82.3002 81.302 85.8788 85.9203 88.556 90.0088C91.3592 94.052 93.3741 97.8805 94.6005 101.494C95.8674 105.022 96.3887 108.356 96.1644 111.495C95.9402 114.633 95.081 117.787 93.587 120.955C91.6892 124.979 89.2049 128.361 86.1342 131.099C83.1038 133.752 79.6558 135.737 75.7901 137.054C71.9648 138.285 67.8051 138.783 63.3108 138.548C58.9022 138.353 54.3909 137.376 49.777 135.619L39.965 156.426L32.9011 153.094L42.6525 132.416C38.4521 130.226 34.7081 127.623 31.4203 124.608C28.1326 121.592 25.4546 118.393 23.3865 115.01C21.4041 111.668 20.1396 108.246 19.5933 104.743C19.1729 101.196 19.73 97.7952 21.2644 94.5415C22.6372 91.6303 24.2485 89.8782 26.0982 89.2851C27.9478 88.6921 29.686 88.7792 31.3129 89.5464C32.9397 90.3136 33.9818 91.433 34.4391 92.9046C35.0224 94.331 35.2706 95.9134 35.1835 97.6516C35.1368 99.3042 34.9213 100.982 34.5369 102.685C34.1526 104.387 33.8466 105.813 33.6189 106.962C33.3154 108.493 33.2032 110.063 33.2826 111.67C33.4879 113.232 33.9904 114.83 34.7902 116.463C35.6757 118.136 36.9415 119.78 38.5878 121.394C40.3601 122.962 42.7245 124.496 45.6809 125.995L63.8513 87.4643C61.2437 84.5599 58.7193 81.5901 56.278 78.5549C53.8368 75.5197 51.8996 72.3035 50.4663 68.9063C49.0331 65.5091 48.2727 61.9059 48.1851 58.0966C48.0975 54.2874 49.0834 50.1993 51.1427 45.8326C52.9598 41.9795 55.2146 38.7516 57.9074 36.1488C60.7261 33.5008 63.8365 31.566 67.2386 30.3444C70.681 29.0372 74.3521 28.4658 78.2518 28.6302C82.192 28.709 86.2347 29.5689 90.3802 31.2098L97.7089 15.6692L104.773 19.0004ZM77.3225 120.821C78.4935 118.338 79.0522 115.932 78.9987 113.604C79.0712 111.231 78.68 108.953 77.8253 106.771C77.0965 104.543 75.9671 102.388 74.437 100.306C72.9474 98.1384 71.2889 95.9957 69.4616 93.878L52.866 129.069C58.8401 131.049 63.8635 131.272 67.9359 129.739C72.1343 128.16 75.2632 125.188 77.3225 120.821ZM66.244 45.1042C64.5481 48.7004 64.1268 52.479 64.9801 56.44C65.9191 60.4414 68.329 64.8749 72.2097 69.7403L87.4123 37.5031C82.6369 36.0884 78.3793 36.0169 74.6396 37.2886C70.9 38.5603 68.1014 41.1655 66.244 45.1042Z" fill="#001842" fill-opacity="0.04"/>
</svg>
