<svg width="438" height="352" viewBox="0 0 438 352" fill="none" xmlns="http://www.w3.org/2000/svg">
<g clip-path="url(#clip0_152_296)">
<path d="M290.025 6.53564H146.626V345.115H290.025V6.53564Z" fill="white"/>
<path d="M146.626 351.691V0.309082" stroke="#303030" stroke-width="2" stroke-miterlimit="10" stroke-linecap="round" stroke-linejoin="round"/>
<path d="M290.025 351.691V0.309082" stroke="#303030" stroke-width="2" stroke-miterlimit="10" stroke-linecap="round" stroke-linejoin="round"/>
<path d="M215.438 58.0509H149.485C147.906 58.0509 146.626 56.7717 146.626 55.1929V38.2242C146.626 36.6455 147.906 35.3662 149.485 35.3662H215.438C217.018 35.3662 218.297 36.6455 218.297 38.2242V55.1929C218.298 56.7717 217.018 58.0509 215.438 58.0509Z" fill="white" stroke="#303030" stroke-width="2" stroke-miterlimit="10" stroke-linecap="round" stroke-linejoin="round"/>
<path d="M251.274 80.7365H185.321C183.742 80.7365 182.462 79.4572 182.462 77.8785V60.9098C182.462 59.331 183.742 58.0518 185.321 58.0518H251.274C252.854 58.0518 254.134 59.331 254.134 60.9098V77.8785C254.134 79.4563 252.854 80.7365 251.274 80.7365Z" fill="#04B1FE" stroke="#303030" stroke-width="2" stroke-miterlimit="10" stroke-linecap="round" stroke-linejoin="round"/>
<path d="M251.33 126.107H185.376C183.797 126.107 182.517 124.828 182.517 123.249V106.28C182.517 104.702 183.797 103.422 185.376 103.422H251.33C252.909 103.422 254.189 104.702 254.189 106.28V123.249C254.189 124.827 252.909 126.107 251.33 126.107Z" fill="white" stroke="#303030" stroke-width="2" stroke-miterlimit="10" stroke-linecap="round" stroke-linejoin="round"/>
<path d="M287.166 148.792H221.213C219.633 148.792 218.354 147.512 218.354 145.934V128.965C218.354 127.386 219.633 126.107 221.213 126.107H287.166C288.745 126.107 290.025 127.386 290.025 128.965V145.934C290.025 147.512 288.745 148.792 287.166 148.792Z" fill="#001842" stroke="#303030" stroke-width="2" stroke-miterlimit="10" stroke-linecap="round" stroke-linejoin="round"/>
<path d="M251.274 216.847H185.321C183.742 216.847 182.462 215.568 182.462 213.989V197.02C182.462 195.441 183.742 194.162 185.321 194.162H251.274C252.854 194.162 254.134 195.441 254.134 197.02V213.989C254.134 215.568 252.854 216.847 251.274 216.847Z" fill="white" stroke="#303030" stroke-width="2" stroke-miterlimit="10" stroke-linecap="round" stroke-linejoin="round"/>
<path d="M251.33 262.217H185.376C183.797 262.217 182.517 260.938 182.517 259.359V242.39C182.517 240.811 183.797 239.532 185.376 239.532H251.33C252.909 239.532 254.189 240.811 254.189 242.39V259.359C254.189 260.938 252.909 262.217 251.33 262.217Z" fill="#04B1FE" stroke="#303030" stroke-width="2" stroke-miterlimit="10" stroke-linecap="round" stroke-linejoin="round"/>
<path d="M215.438 239.531H149.485C147.906 239.531 146.626 238.252 146.626 236.673V219.705C146.626 218.126 147.906 216.847 149.485 216.847H215.438C217.018 216.847 218.297 218.126 218.297 219.705V236.673C218.298 238.252 217.018 239.531 215.438 239.531Z" fill="white" stroke="#303030" stroke-width="2" stroke-miterlimit="10" stroke-linecap="round" stroke-linejoin="round"/>
<path d="M251.33 330.272H185.376C183.797 330.272 182.517 328.993 182.517 327.414V310.445C182.517 308.867 183.797 307.587 185.376 307.587H251.33C252.909 307.587 254.189 308.867 254.189 310.445V327.414C254.189 328.993 252.909 330.272 251.33 330.272Z" fill="white" stroke="#303030" stroke-width="2" stroke-miterlimit="10" stroke-linecap="round" stroke-linejoin="round"/>
<path d="M380.699 153.903C373.297 171.276 350.273 183.875 332.076 176.128C313.879 168.381 307.398 143.221 314.8 125.848C317.942 101.186 345.216 94.1694 362.749 103.32C382.756 113.761 388.102 136.531 380.699 153.903Z" fill="#303030"/>
<path d="M383.132 145.948L370.593 141.336H311.806C311.828 155.683 318.857 170.5 332.077 176.128C350.274 183.875 373.297 171.276 380.7 153.902C381.811 151.294 382.661 148.644 383.132 145.948Z" fill="#303030"/>
<path opacity="0.4" d="M383.132 145.948L370.593 141.336H311.806C311.828 155.683 318.857 170.5 332.077 176.128C350.274 183.875 373.297 171.276 380.7 153.902C381.811 151.294 382.661 148.644 383.132 145.948Z" fill="#FFC4B0"/>
<path d="M378.579 169.702C379.423 165.734 377.47 161.328 372.425 159.097C368.552 157.384 363.789 158.169 360.073 159.928C357.264 161.315 356.297 160.676 358.3 155.893C361.099 148.915 365.989 144.999 370.593 141.336C363.34 112.041 341.758 108.423 327.411 110.289C327.411 110.289 319.142 115.293 314.66 124.185C311.605 130.244 310.664 133.271 308.797 138.244C307.259 142.339 304.169 148.719 301.969 152.981C297.889 160.886 295.773 165.986 297.867 171.532C299.962 177.077 308.036 181.1 310.151 182.069L305.099 193.041L296.441 191.257C296.441 191.257 292.484 208.864 310.594 215.165C328.703 221.466 345.027 216.391 349.18 214.421L339.297 206.47L345.676 186.486C349.463 185.018 352.382 182.159 354.136 178.453C355.89 174.747 357.933 170.433 357.933 170.433C360.227 173.957 364.856 176.02 369.005 176.128C373.152 176.237 377.745 173.626 378.579 169.702Z" fill="#FDBBA5"/>
<path d="M365.589 174.374C365.589 175.941 364.318 177.211 362.75 177.211C361.182 177.211 359.911 175.941 359.911 174.374C359.911 172.806 361.182 171.536 362.75 171.536C364.318 171.536 365.589 172.806 365.589 174.374Z" fill="#303030"/>
<path d="M334.924 187.566C328.042 188.198 318.223 185.655 310.15 182.069L307.591 187.628C323.005 192.431 331.9 190.203 334.924 187.566Z" fill="#303030"/>
<path d="M336.922 134.861C331.262 139.232 327.694 142.674 325.187 145.74C323.322 148.02 320.89 151.77 326.825 154.799" stroke="#303030" stroke-width="2" stroke-miterlimit="10" stroke-linecap="round" stroke-linejoin="round"/>
<path d="M374.142 167.154C373.553 166.09 371.588 164.533 369.077 164.043C366.567 163.553 363.875 164.391 362.193 166.186" stroke="#303030" stroke-width="2" stroke-miterlimit="10" stroke-linecap="round" stroke-linejoin="round"/>
<path d="M369.175 167.709C368.739 166.929 366.986 164.632 364.125 164.747" stroke="#303030" stroke-width="2" stroke-miterlimit="10" stroke-linecap="round" stroke-linejoin="round"/>
<path d="M320.925 166.562C322.28 164.975 325.233 165.085 325.779 165.678C326.108 166.928 325.372 168.687 323.76 168.628C322.147 168.57 321.342 167.514 320.925 166.562Z" fill="white"/>
<path d="M320.925 166.561C322.28 164.975 325.233 165.085 325.779 165.678C325.779 165.678 325.726 163.689 323.798 162.342C322.039 162.675 320.731 164.992 320.925 166.561Z" fill="#303030"/>
<path d="M321.021 161.028C323.301 161.541 324.866 161.994 325.953 163.628C326.962 165.145 326.71 167.49 324.861 168.424C324.199 168.758 323.191 168.727 322.525 168.4C321.784 168.037 321.104 167.384 320.924 166.561C320.749 165.762 320.941 164.904 321.374 164.209C321.806 163.514 322.591 162.619 323.797 162.342" stroke="#303030" stroke-width="2" stroke-miterlimit="10" stroke-linecap="round" stroke-linejoin="round"/>
<path d="M327.389 139.27C327.894 136.835 326.459 134.66 324.32 133.217C322.182 131.774 318.67 130.496 316.314 133.295C315.365 136.914 321.932 141.868 327.389 139.27Z" fill="white"/>
<path d="M316.966 135.141C316.867 136.883 318.267 138.388 320.09 138.502C321.913 138.616 323.471 137.297 323.568 135.555C323.666 133.812 322.267 132.307 320.443 132.192C318.62 132.079 317.063 133.398 316.966 135.141Z" fill="#303030"/>
<path d="M323.812 135.589L320.266 135.348L323.337 137.346L323.812 135.589Z" fill="white"/>
<path d="M316.282 132.507C318.97 131.004 321.843 131.9 323.981 133.342C326.12 134.785 327.612 137.482 327.389 139.27" stroke="#303030" stroke-width="2" stroke-miterlimit="10" stroke-linecap="round" stroke-linejoin="round"/>
<path d="M332.465 126.107C328.992 123.262 322.039 122.321 317.164 123.79" stroke="#303030" stroke-width="2" stroke-miterlimit="10" stroke-linecap="round" stroke-linejoin="round"/>
<path d="M349.261 150.315C349.766 147.879 348.331 145.704 346.192 144.261C344.054 142.818 340.542 141.541 338.186 144.339C337.237 147.957 343.805 152.912 349.261 150.315Z" fill="white"/>
<path d="M338.838 146.184C338.74 147.927 340.139 149.432 341.962 149.547C343.785 149.661 345.343 148.342 345.441 146.599C345.538 144.857 344.139 143.352 342.316 143.237C340.492 143.122 338.936 144.442 338.838 146.184Z" fill="#303030"/>
<path d="M345.683 146.633L342.139 146.392L345.21 148.391L345.683 146.633Z" fill="white"/>
<path d="M338.155 143.55C340.843 142.047 343.716 142.943 345.854 144.385C347.993 145.829 349.485 148.525 349.262 150.313" stroke="#303030" stroke-width="2" stroke-miterlimit="10" stroke-linecap="round" stroke-linejoin="round"/>
<path d="M356.064 144.232C355.315 138.965 351.07 134.245 347.468 132.664" stroke="#303030" stroke-width="2" stroke-miterlimit="10" stroke-linecap="round" stroke-linejoin="round"/>
<path d="M290.913 325.762C317.442 317.113 359.363 287.376 364.405 276.111C372.995 256.924 374.017 248.16 374.017 235.298C374.017 235.298 348.509 207.964 340.704 202.06L339.297 206.47C326.256 211.779 302.04 198.532 305.098 193.041L306.758 189.436C303.429 188.218 297.51 186.743 290.913 185.243V325.762Z" fill="#001842"/>
<path d="M296.639 195.842C298.41 205.317 315.592 219.656 341.907 215.541" stroke="#303030" stroke-width="2" stroke-miterlimit="10" stroke-linecap="round" stroke-linejoin="round"/>
<path d="M293.935 64.1995C291.421 61.7224 288.076 59.9081 284.817 58.7137C283.204 58.1218 277.177 56.5501 276.373 59.8459C275.744 62.4246 278.609 64.0559 280.261 64.9622C281.538 65.6636 284.423 66.7896 285.86 67.9726C281.935 67.0943 276.206 66.6512 272.409 67.878C268.029 69.293 266.425 71.2404 266.126 73.8445C265.851 76.2393 267.579 77.22 268.637 77.431C267.736 78.8881 267.513 80.4125 268.21 81.7995C268.736 82.8468 270.376 84.0411 272.653 83.57C278.104 82.4413 280.971 82.9291 283.524 83.6585C285.998 84.3651 287.685 85.2214 289.039 87.8632C286.877 87.1382 284.625 86.6137 282.344 86.5839C280.063 86.5541 277.743 87.0392 275.789 88.2178C274.77 88.8325 273.497 90.258 273.649 91.4384C274.066 94.6992 277.015 94.5915 279.19 94.5626C282.417 94.5197 285.706 95.5923 288.177 97.6938C289.41 98.7437 290.587 100.48 290.916 102.055V110.955C290.916 110.955 295.803 107.592 299.664 99.255C301.813 94.6125 303.131 89.6565 303.482 84.5595C304.083 75.8041 300.038 70.2133 293.935 64.1995Z" fill="#FFC4B0"/>
<path d="M268.115 77.5607C271.276 74.8769 275.234 74.0101 279.644 74.1852C284.056 74.3603 289.761 76.4881 292.854 79.6359" stroke="#303030" stroke-width="2" stroke-miterlimit="10" stroke-linecap="round" stroke-linejoin="round"/>
<path d="M285.859 67.9717C288.584 68.8018 291.555 70.1336 294.31 72.1607" stroke="#303030" stroke-width="2" stroke-miterlimit="10" stroke-linecap="round" stroke-linejoin="round"/>
<path d="M285.58 218.073C289.054 222.234 291.836 226.974 293.763 232.041C296.66 239.656 296.917 248.014 299.158 255.82C301.162 262.795 303.002 269.537 306.382 276.045C307.372 277.951 312.398 287.669 312.398 287.669C312.398 287.669 325.231 277.824 332.969 270.309C345.454 249.524 352.725 242.095 372.888 237.259C398.128 271.328 365.416 297.675 356.641 307.223C345.373 319.486 329.579 332.192 310.95 337.208C296.484 341.103 286.744 336.167 282.827 319.896C280.845 311.664 279.401 294.634 279.131 287.508C278.863 280.439 278.583 273.282 276.718 266.411C276.314 264.924 275.822 263.442 275.019 262.127C274.354 261.039 273.491 260.088 272.698 259.089C268.747 254.113 268.361 247.115 263.336 242.868C260.971 240.869 258.79 239.514 256.383 237.564C254.691 236.193 253.098 234.563 253.776 233.129C254.45 231.704 255.689 231.183 257.263 231.297C260.934 231.563 266.113 235.3 270.658 238.915C269.118 234.332 263.545 227.819 259.51 223.835C258.641 222.976 257.529 220.954 257.758 219.753C258.135 217.783 259.776 216.941 262.188 217.497C261.312 216.531 260.372 215.35 260.634 214.072C260.861 212.964 261.981 212.214 263.103 212.07C265.969 211.705 268.632 213.888 270.897 215.326C272.654 216.442 278.363 220.812 280.746 224.901C279.596 220.685 276.946 218.572 275.54 214.913C275.144 213.885 275.05 212.656 275.462 211.719C277.066 208.073 284.568 216.86 285.58 218.073Z" fill="#FFC4B0"/>
<path d="M373.727 236.19C380.759 243.855 393.85 266.105 378.77 290.199C367.692 307.897 352.733 326.084 352.733 326.084C352.733 326.084 327.99 318.699 314.197 296.426C314.197 296.426 313.523 290.358 311.799 284.33C311.799 284.33 323.232 271.389 330.784 263.195C340.507 252.644 350.105 238.609 373.727 236.19Z" fill="white" stroke="#303030" stroke-width="2" stroke-miterlimit="10" stroke-linecap="round" stroke-linejoin="round"/>
<path d="M311.798 311.342C315.872 299.646 312.997 292.627 312.513 286.917" stroke="#303030" stroke-width="2" stroke-miterlimit="10" stroke-linecap="round" stroke-linejoin="round"/>
<path d="M262.18 217.658C269.031 220.973 274.682 226.701 277.902 233.593" stroke="#303030" stroke-width="2" stroke-miterlimit="10" stroke-linecap="round" stroke-linejoin="round"/>
<path d="M284.809 230.604C283.729 228.318 281.943 225.495 280.845 224.281" stroke="#303030" stroke-width="2" stroke-miterlimit="10" stroke-linecap="round" stroke-linejoin="round"/>
<path d="M359.101 318.039C361.748 314.612 364.989 310.314 368.374 305.593C352.655 301.551 332.7 281.784 325.855 268.599L315.441 280.222C315.44 280.223 315.438 280.225 315.438 280.225C323.399 298.881 345.697 315.246 359.101 318.039Z" fill="#04B1FE" stroke="#04B1FE" stroke-width="2" stroke-miterlimit="10" stroke-linecap="round" stroke-linejoin="round"/>
<path d="M125.273 87.375L106.749 39.608C96.2557 26.6979 79.4654 39.9311 85.4389 50.7941C68.6486 54.9227 74.622 75.0515 86.0573 74.7476C80.2722 87.2139 96.3171 95.2013 104.177 88.1823C105.297 98.3491 124.508 98.6714 125.273 88.0439" fill="#303030"/>
<path d="M99.4521 39.3545C97.4557 42.6512 96.5035 46.6371 97.1508 50.4364C97.7982 54.2357 100.132 57.7872 103.537 59.5954C104.772 53.7357 106.584 47.9978 108.939 42.491C109.94 40.1513 110.794 36.1279 107.545 35.1349C104.162 34.0999 101.069 36.6848 99.4521 39.3545Z" fill="#04B1FE"/>
<path d="M110.831 18.0504C112.08 16.2633 115.987 11.6952 116.404 7.91162C119.713 13.0559 122.805 20.1283 121.256 26.2953C119.766 32.2206 115.729 36.6014 109.032 38.653C105.956 36.5436 104.812 32.5831 104.779 28.8547C104.744 24.9687 109.163 20.4391 110.831 18.0504Z" fill="#303030"/>
<path d="M94.6745 36.2501C86.0038 32.013 83.5861 21.4267 84.0302 12.5312C86.0205 15.1406 89.0269 16.7806 92.0762 17.996C95.1265 19.2114 98.3195 20.0852 101.251 21.5642C104.701 23.3049 107.199 25.8249 108.663 29.4054C109.828 32.2555 109.706 37.053 105.974 37.75C102.277 38.4391 98.0584 37.9033 94.6745 36.2501Z" fill="#04B1FE"/>
<path d="M98.0759 25.7691C96.3537 25.7612 94.6323 25.4897 92.9907 24.9688C95.6538 30.3135 100.872 34.3134 106.727 35.4964" stroke="#303030" stroke-width="2" stroke-miterlimit="10" stroke-linecap="round" stroke-linejoin="round"/>
<path d="M173.319 66.0683C178.866 47.4291 167.535 27.6133 148.011 21.8084C128.486 16.0036 108.163 26.4079 102.616 45.0471C97.0696 63.6863 108.401 83.5021 127.925 89.307C147.449 95.1118 167.773 84.7075 173.319 66.0683Z" fill="#303030"/>
<path d="M140.109 31.2205C133.544 54.618 109.888 52.7258 109.888 52.7258C110.55 56.2011 110.786 59.7413 110.587 63.249C109.03 59.0915 105.971 55.2248 101.705 53.5742C97.4401 51.9246 91.9739 53.0419 89.642 56.7528C87.3363 60.4207 88.7169 65.5799 92.0133 68.6148C95.3097 71.6497 100.564 73.3598 106.067 72.3476L106.074 72.3458C106.668 76.871 109.273 81.9961 113.914 86.2507L106.823 106.274L95.4402 109.064C95.4402 109.064 103.499 126.841 123.76 127.296C146.917 127.817 145.225 111.34 145.225 111.34L135.985 108.5L136.875 97.5454C144.419 98.9928 168.763 98.0217 172.441 69.7768C173.202 63.9407 173.074 58.2825 171.803 53.0821C166.027 35.1853 152.463 29.1593 140.109 31.2205Z" fill="#FFC4B0"/>
<path d="M121.955 91.521C121.955 91.521 127.036 95.6382 136.877 97.5453L136.534 101.76C136.534 101.76 126.67 99.5426 121.955 91.521Z" fill="#303030"/>
<path d="M152.909 61.171C153.179 57.2535 158.885 53.8254 165.114 56.3489C171.354 58.8769 170.926 62.7716 168.776 63.8022C166.625 64.8328 166.513 63.1683 164.82 61.4451C163.126 59.7227 155.897 57.806 152.909 61.171Z" fill="#AD6163"/>
<path d="M153.156 61.8916C154.461 59.4224 157.367 57.9014 160.25 58.179C163.133 58.4566 166.979 60.5204 167.02 64.6262C165.254 68.4387 156.025 68.0385 153.156 61.8916Z" fill="white"/>
<path d="M165.348 66.1456C164.074 67.8776 161.565 68.2112 159.743 66.8916C157.921 65.5721 157.477 63.0984 158.75 61.3665C160.023 59.6345 162.532 59.3009 164.354 60.6204C166.176 61.94 166.621 64.4136 165.348 66.1456Z" fill="#303030"/>
<path d="M158.493 61.208L162.049 63.7561L157.565 63.2491L158.493 61.208Z" fill="white"/>
<path d="M167.019 64.6262C166.978 60.5204 163.133 58.4566 160.249 58.179C157.366 57.9014 154.46 59.4224 153.156 61.8916" stroke="#303030" stroke-width="2" stroke-miterlimit="10" stroke-linecap="round" stroke-linejoin="round"/>
<path d="M169.992 62.5762C169.468 63.3511 168.45 63.7548 167.538 63.5507" stroke="#303030" stroke-width="2" stroke-miterlimit="10" stroke-linecap="round" stroke-linejoin="round"/>
<path d="M159.807 45.564C163.994 46.0088 169.263 51.1023 170.414 54.7238" stroke="#303030" stroke-width="2" stroke-miterlimit="10" stroke-linecap="round" stroke-linejoin="round"/>
<path d="M141.677 56.8717C142.97 53.1634 139.073 47.7687 132.352 47.6409C125.62 47.513 124.481 51.2625 126.054 53.0549C127.626 54.8473 128.383 53.3604 130.619 52.4428C132.853 51.5251 140.255 52.6039 141.677 56.8717Z" fill="#AD6163"/>
<path d="M127.032 55.2291C128.337 52.7598 131.243 51.2388 134.126 51.5164C137.009 51.794 140.855 53.8578 140.896 57.9636C139.13 61.7761 129.901 61.3768 127.032 55.2291Z" fill="white"/>
<path d="M139.224 59.4826C137.95 61.2146 135.441 61.5482 133.619 60.2286C131.797 58.9091 131.353 56.4354 132.626 54.7043C133.899 52.9724 136.408 52.6388 138.23 53.9583C140.052 55.277 140.497 57.7506 139.224 59.4826Z" fill="#303030"/>
<path d="M132.369 54.5459L135.925 57.0931L131.441 56.587L132.369 54.5459Z" fill="white"/>
<path d="M140.895 57.9646C140.854 53.8588 137.009 51.795 134.125 51.5174C131.242 51.2398 128.336 52.7608 127.031 55.23" stroke="#303030" stroke-width="2" stroke-miterlimit="10" stroke-linecap="round" stroke-linejoin="round"/>
<path d="M125.414 51.9658C125.757 53.0393 126.746 53.8773 127.862 54.0384" stroke="#303030" stroke-width="2" stroke-miterlimit="10" stroke-linecap="round" stroke-linejoin="round"/>
<path d="M144.296 41.2543C139.567 39.3078 131.442 40.9636 128.476 43.5686" stroke="#303030" stroke-width="2" stroke-miterlimit="10" stroke-linecap="round" stroke-linejoin="round"/>
<path d="M148.902 54.6875C147.634 57.6865 147.064 59.5638 148.07 62.9297C148.586 64.66 151.426 66.335 150.426 69.0074C149.5 71.4802 146.396 71.3269 144.843 71.1404" stroke="#303030" stroke-width="2" stroke-miterlimit="10" stroke-linecap="round" stroke-linejoin="round"/>
<path d="M138.862 76.9298C141.039 77.8623 143.583 79.287 143.671 81.5145C145.634 79.5838 147.634 79.5383 147.634 79.5383C147.634 79.5383 145.943 77.6014 143.564 77.0095C141.185 76.4167 138.862 76.9298 138.862 76.9298Z" fill="#303030"/>
<path d="M134.79 76.6328C135.112 77.9515 137.049 81.5258 141.801 82.5012C142.846 82.6825 143.109 82.0809 143.671 81.5127C143.847 80.5223 142.952 78.208 138.862 76.9279C137.558 77.2396 135.884 76.9831 134.79 76.6328Z" fill="#FFFDFF"/>
<path d="M149.765 80.3947C147.507 79.6881 145.839 77.6566 143.564 77.0087C141.79 76.5034 139.904 76.908 138.062 76.9763C136.219 77.0446 134.123 76.619 133.154 75.0508" stroke="#303030" stroke-width="2" stroke-miterlimit="10" stroke-linecap="round" stroke-linejoin="round"/>
<path d="M147.814 79.6732C146.07 79.9271 144.509 80.5593 143.329 81.8657C143.139 82.0776 142.764 82.6222 141.801 82.5023C140.033 82.2825 135.666 80.223 134.747 76.4736" stroke="#303030" stroke-width="2" stroke-miterlimit="10" stroke-linecap="round" stroke-linejoin="round"/>
<path d="M94.8604 58.725C96.0832 58.3528 98.706 58.6173 100.958 60.0839C103.21 61.5506 104.627 64.1521 104.58 66.736" stroke="#303030" stroke-width="2" stroke-miterlimit="10" stroke-linecap="round" stroke-linejoin="round"/>
<path d="M98.1997 62.7764C99.0994 62.5076 102.103 62.0566 104.177 64.2369" stroke="#303030" stroke-width="2" stroke-miterlimit="10" stroke-linecap="round" stroke-linejoin="round"/>
<path d="M121.668 60.4245C121.668 60.8825 121.296 61.2529 120.839 61.2529C120.382 61.2529 120.01 60.8816 120.01 60.4245C120.01 59.9675 120.382 59.5962 120.839 59.5962C121.296 59.5962 121.668 59.9675 121.668 60.4245Z" fill="#303030"/>
<path d="M146.629 111.274V218.093C128.447 224.845 105.148 226.895 80.5817 223.728C80.5817 223.728 75.3546 213.687 68.8932 181.271C62.431 148.854 67.6703 121.806 69.0877 119.293C76.5022 115.027 91.5291 109.486 99.7205 108.016C110.775 129.701 142.68 126.108 141.924 110.22L146.629 111.274Z" fill="white" stroke="#303030" stroke-width="2" stroke-miterlimit="10" stroke-linecap="round" stroke-linejoin="round"/>
<path d="M76.6133 212.918C79.2702 231.506 83.5924 250.875 94.8604 269.544C109.431 293.684 123.027 305.914 146.626 318.93V204.103C132.696 212.022 104.885 218.092 76.6133 212.918Z" fill="#303030"/>
<path d="M162.275 214.596C161.347 213.306 159.611 212.679 158.111 212.385C155.047 211.784 151.904 211.77 148.798 211.969C147.233 212.068 145.678 212.249 144.117 212.385C143.066 212.477 141.696 212.26 142.398 210.908C143.72 208.359 145.923 206.323 148.084 204.431C149.776 202.951 151.695 201.473 152.411 199.289C153.233 196.784 151.346 195.511 149.371 196.241C142.753 198.686 136.992 204.447 131.907 209.338C126.381 214.654 120.193 220.592 111.886 219.685C98.1307 218.185 82.1332 205.305 82.134 205.288C82.2742 201.768 86.5815 183.452 89.8122 173.942C86.8311 134.062 79.2888 127.886 69.6493 121.583C50.2818 137.023 50.1302 157.923 47.1641 185.389C46.4598 191.911 46.0034 198.352 45.7117 204.467C45.0582 218.136 45.5347 225.824 59.5963 232.716C70.4166 238.018 94.5741 244.03 108.804 245.179C113.59 245.565 118.513 245.189 123.097 243.702C128.928 241.811 133.119 236.859 138.954 235.068C141.202 234.378 142.939 233.727 145.235 233.22C149.692 232.236 152.721 232.324 154.522 230.158C155.293 229.231 156.029 227.197 153.801 225.603C155.77 225.816 157.77 225.444 159.035 223.818C159.953 222.637 160.688 220.579 157.94 219.283C159.095 219.414 160.317 219.257 161.303 218.64C162.793 217.71 163.317 216.045 162.275 214.596Z" fill="#D48983"/>
<path d="M140.717 219.874C146.944 217.839 151.659 217.42 157.94 219.285" stroke="#303030" stroke-width="2" stroke-miterlimit="10" stroke-linecap="round" stroke-linejoin="round"/>
<path d="M140.293 226.895C146.24 224.673 149.91 224.316 153.801 225.605" stroke="#303030" stroke-width="2" stroke-miterlimit="10" stroke-linecap="round" stroke-linejoin="round"/>
<path d="M71.595 205.091C74.8484 203.628 79.3064 203.868 82.1333 205.289" stroke="#303030" stroke-width="2" stroke-miterlimit="10" stroke-linecap="round" stroke-linejoin="round"/>
<path d="M68.9956 118.344C53.2407 126.338 52.0844 133.753 45.5337 153.085C41.5987 164.698 38.6772 177.83 38.6772 177.83C38.6772 177.83 48.5112 188.417 60.4353 191.529C73.5526 194.952 85.6904 194.241 85.6904 194.241C85.6904 194.241 86.9589 188.89 88.4489 183.244C90.2649 176.364 91.0445 169.235 90.5329 162.136C88.95 140.156 82.1566 122.442 68.9956 118.344Z" fill="#04B1FE"/>
<path d="M106.349 105.425C107.472 122.134 120.627 147.1 131.652 151.304C137.691 148.876 143.248 126.107 136.877 108.015" stroke="#303030" stroke-width="2" stroke-miterlimit="10" stroke-linecap="round" stroke-linejoin="round"/>
<path d="M136.877 154.605C136.877 157.491 134.537 159.829 131.652 159.829C128.766 159.829 126.426 157.49 126.426 154.605C126.426 151.721 128.766 149.382 131.652 149.382C134.537 149.382 136.877 151.721 136.877 154.605Z" fill="#04B1FE"/>
<path d="M388.764 197.658L405.889 172.718L415.521 180.112L395.834 203.085C394.29 204.886 391.607 205.165 389.725 203.721C387.843 202.277 387.421 199.613 388.764 197.658ZM386.14 219.131C383.233 221.447 378.996 220.969 376.679 218.062C374.362 215.156 374.841 210.922 377.749 208.606C380.657 206.29 384.893 206.768 387.21 209.675C389.527 212.582 389.047 216.815 386.14 219.131Z" fill="#04B1FE"/>
<path d="M384.842 191.592L401.968 166.654L411.599 174.048L391.912 197.02C390.368 198.822 387.685 199.101 385.804 197.656C383.921 196.211 383.499 193.548 384.842 191.592ZM382.218 213.066C379.311 215.382 375.074 214.903 372.757 211.997C370.44 209.091 370.919 204.856 373.827 202.54C376.734 200.224 380.971 200.703 383.288 203.609C385.605 206.516 385.126 210.75 382.218 213.066Z" fill="white" stroke="#001842" stroke-width="2" stroke-miterlimit="10" stroke-linecap="round" stroke-linejoin="round"/>
<path d="M47.1401 62.0113C45.0894 60.3354 42.6927 59.2873 39.9534 58.8679C37.2115 58.4493 34.3479 58.7733 31.3616 59.8398C27.7779 61.12 24.9756 63.0673 22.9555 65.6793C22.0103 66.9026 21.2412 68.1906 20.6481 69.5434C19.5374 72.0775 20.7673 75.0345 23.305 76.1386C25.7044 77.1824 28.4656 76.206 29.7603 73.9329C29.9276 73.6387 30.1089 73.3541 30.3034 73.0774C31.352 71.5898 32.7256 70.5408 34.4267 69.934C35.5296 69.5399 36.5642 69.3911 37.5313 69.4848C38.4975 69.5811 39.3464 69.9243 40.0769 70.5189C40.8075 71.1126 41.3542 71.9155 41.7151 72.9251C42.0935 73.982 42.1758 74.9741 41.9647 75.904C41.7536 76.8347 41.2955 77.6587 40.5938 78.375C39.8912 79.093 38.9653 79.656 37.8169 80.0658L34.8534 81.1244L40.1356 94.1554L48.406 91.2002L46.7757 85.3931C47.8681 84.4772 48.8483 83.4833 49.6867 82.3897C51.1356 80.501 52.0668 78.3934 52.4794 76.0695C52.8928 73.7473 52.6143 71.2308 51.6454 68.5207C50.6914 65.8579 49.19 63.6882 47.1401 62.0113ZM54.7473 102.415C55.979 105.859 54.1841 109.648 50.7387 110.879C47.2934 112.11 43.503 110.316 42.2713 106.872C41.0397 103.428 42.8346 99.6394 46.2799 98.4083C49.7252 97.1781 53.5165 98.9722 54.7473 102.415Z" fill="#001842"/>
<path d="M50.15 57.0904C48.0993 55.4145 45.7026 54.3664 42.9625 53.947C40.2206 53.5284 37.3569 53.8524 34.3707 54.9189C30.7869 56.1991 27.9846 58.1464 25.9646 60.7584C25.0194 61.9817 24.2502 63.2697 23.6572 64.6225C22.5464 67.1566 23.7763 70.1136 26.3141 71.2177C28.7134 72.2615 31.4746 71.2852 32.7693 69.012C32.9366 68.7178 33.118 68.4333 33.3124 68.1566C34.361 66.6689 35.7346 65.6199 37.4358 65.0131C38.5387 64.619 39.5732 64.4702 40.5403 64.5639C41.5065 64.6602 42.3554 65.0034 43.086 65.598C43.8157 66.1917 44.3632 66.9946 44.7241 68.0042C45.1025 69.0611 45.1849 70.0531 44.9738 70.9831C44.7626 71.9138 44.3045 72.7378 43.6028 73.4541C42.9003 74.1721 41.9743 74.7351 40.8259 75.1458L37.8624 76.2044L43.1447 89.2354L51.415 86.2802L49.7847 80.4731C50.8771 79.5572 51.8574 78.5633 52.6957 77.4697C54.1446 75.581 55.0758 73.4733 55.4884 71.1494C55.9019 68.8273 55.6233 66.3107 54.6544 63.6007C53.7013 60.9379 52.1999 58.7673 50.15 57.0904ZM57.7572 97.4951C58.9889 100.939 57.194 104.728 53.7486 105.959C50.3033 107.19 46.5129 105.396 45.2812 101.952C44.0496 98.5082 45.8445 94.7194 49.2898 93.4883C52.7351 92.2581 56.5256 94.0513 57.7572 97.4951Z" fill="white" stroke="#04B1FE" stroke-width="2" stroke-miterlimit="10" stroke-linecap="round" stroke-linejoin="round"/>
</g>
<defs>
<clipPath id="clip0_152_296">
<rect width="438" height="352" fill="white"/>
</clipPath>
</defs>
</svg>
