<svg width="217" height="67" viewBox="0 0 217 67" fill="none" xmlns="http://www.w3.org/2000/svg">
<g clip-path="url(#clip0_152_678)">
<g opacity="0.2">
<path d="M47.2872 60.5653V54.9278H12.0894V31.2218L29.8199 14.456L47.2872 30.9734L51.3632 26.855L29.8199 6.4834L-1.5752 36.1705L2.64038 40.1568L6.12805 36.8589V60.5653H47.2872Z" fill="#323232"/>
<path d="M47.4183 60.4413V54.8038H12.2206V31.0978L29.951 14.3319L47.4183 30.8494L51.4943 26.731L29.951 6.35938L-1.44409 36.0465L2.77154 40.0328L6.25921 36.7349V60.4413H47.4183Z" fill="#2E2E2E"/>
<path d="M47.5494 60.3176V54.6798H12.3516V30.9737L30.0817 14.2079L47.5494 30.7253L51.6254 26.607L30.0817 6.23535L-1.31299 35.9224L2.90264 39.9088L6.39025 36.6108V60.3176H47.5494Z" fill="#2A2A2A"/>
<path d="M47.6808 60.1934V54.5559H12.483V30.8498L30.213 14.084L47.6808 30.6015L51.7563 26.4831L30.213 6.11182L-1.18164 35.7985L3.03392 39.7848L6.5212 36.4869V60.1934H47.6808Z" fill="#262626"/>
<path d="M47.8117 60.0693V54.4323H12.6138V30.7258L30.3439 13.9604L47.8117 30.4774L51.8872 26.3591L30.3439 5.98779L-1.05078 35.6745L3.16478 39.6608L6.65206 36.3629V60.0693H47.8117Z" fill="#212121"/>
<path d="M47.9426 59.9457V54.3082H12.7452V30.6018L30.4753 13.8363L47.9426 30.3534L52.0185 26.2351L30.4753 5.86377L-0.919434 35.5505L3.29574 39.5368L6.78341 36.2392V59.9457H47.9426Z" fill="#1D1D1D"/>
<path d="M48.0739 59.8213V54.1842H12.8764V30.4778L30.6065 13.7123L48.0739 30.2297L52.1498 26.1111L30.6065 5.73975L-0.788574 35.4265L3.42706 39.4128L6.91466 36.1152V59.8213H48.0739Z" fill="#191919"/>
<path d="M48.205 59.6973V54.0602H13.0071V30.3537L30.7376 13.5883L48.205 30.1057L52.2809 25.987L30.7376 5.61572L-0.657471 35.3028L3.5581 39.2891L7.04577 35.9912V59.6973H48.205Z" fill="#151515"/>
<path d="M48.3361 59.5736V53.9362H13.1383V30.2297L30.8687 13.4643L48.3361 29.9817L52.412 25.8634L30.8687 5.4917L-0.526367 35.1788L3.68926 39.1651L7.17693 35.8672V59.5736H48.3361Z" fill="#111111"/>
<path d="M48.4672 59.4496V53.8122H13.2694V30.1057L30.9998 13.3403L48.4672 29.8577L52.5431 25.7394L30.9998 5.36768L-0.395264 35.0548L3.82037 39.0411L7.30797 35.7432V59.4496H48.4672Z" fill="#0D0D0D"/>
<path d="M48.5984 59.3259V53.6882H13.4007V29.9817L31.1311 13.2162L48.5984 29.7336L52.6744 25.6153L31.1311 5.24365L-0.263916 34.9308L3.95165 38.9171L7.43932 35.6191V59.3259H48.5984Z" fill="#080808"/>
<path d="M48.7296 59.2015V53.5641H13.5318V29.858L31.2623 13.0922L48.7296 29.6096L52.8055 25.4913L31.2623 5.11963L-0.132812 34.8067L4.08282 38.793L7.57042 35.4951V59.2015H48.7296Z" fill="#040404"/>
<path d="M48.8607 59.0775V53.4401H13.6629V29.734L31.3934 12.9682L48.8607 29.4856L52.9366 25.3673L31.3934 4.99561L-0.00170898 34.6827L4.21386 38.669L7.70153 35.3711V59.0775H48.8607Z" fill="black"/>
</g>
<path d="M49.0384 58.7283V53.1239H13.8973V29.5565L31.5991 12.8888L47.8626 28.0936H56.3856L31.5991 4.96289L0.254639 34.4763L4.46344 38.4392L7.94552 35.1606V58.7283H49.0384Z" fill="#04B1FE"/>
<path d="M18.9578 46.5477L20.5622 43.9094C21.0678 44.3284 21.5549 44.673 22.0238 44.9421C22.4999 45.2042 22.9688 45.3988 23.4304 45.5261C23.892 45.6458 24.3645 45.7057 24.848 45.7057C25.4195 45.7057 25.914 45.6232 26.3316 45.4587C26.7492 45.2942 27.0715 45.0583 27.2986 44.7514C27.533 44.4446 27.6502 44.089 27.6502 43.6846C27.6502 43.2132 27.5038 42.8164 27.2107 42.4944C26.9177 42.173 26.5331 41.8923 26.0568 41.6524C25.5879 41.4054 25.0788 41.1699 24.5293 40.9451C23.9945 40.7208 23.4561 40.4773 22.9139 40.2153C22.3791 39.9461 21.8846 39.6279 21.4304 39.2611C20.9835 38.8943 20.6208 38.4489 20.3424 37.925C20.0714 37.3936 19.9358 36.7499 19.9358 35.9939C19.9358 35.0059 20.1776 34.1525 20.6611 33.434C21.152 32.7154 21.8223 32.1615 22.6721 31.7723C23.522 31.3831 24.4927 31.1885 25.5843 31.1885C26.3535 31.1885 27.1521 31.2933 27.9799 31.5029C28.8152 31.7124 29.6467 32.0305 30.4745 32.4572L29.1448 35.2528C28.6246 34.931 28.0642 34.6765 27.4634 34.4894C26.8627 34.3023 26.2986 34.2087 25.7711 34.2087C25.2949 34.2087 24.8773 34.2836 24.5183 34.4332C24.1667 34.583 23.892 34.7925 23.6941 35.062C23.4963 35.3239 23.3975 35.6346 23.3975 35.9939C23.3975 36.4205 23.5403 36.791 23.826 37.1054C24.1118 37.4123 24.4817 37.6855 24.9359 37.925C25.3975 38.1645 25.892 38.4041 26.4194 38.6436C26.9616 38.8831 27.5074 39.1451 28.0569 39.4295C28.6137 39.7137 29.1192 40.0508 29.5734 40.4401C30.0349 40.8218 30.4049 41.2821 30.6833 41.8209C30.9691 42.3525 31.1119 42.9924 31.1119 43.7409C31.1119 44.7288 30.8554 45.5971 30.3426 46.3456C29.8298 47.0865 29.1155 47.667 28.1997 48.086C27.284 48.4975 26.218 48.7036 25.0019 48.7036C23.8883 48.7036 22.8224 48.5201 21.804 48.1534C20.7857 47.7867 19.8369 47.2514 18.9578 46.5477ZM47.6398 31.5253V40.7881C47.6398 42.4346 47.3504 43.8495 46.7714 45.0321C46.2002 46.2148 45.3761 47.1242 44.2989 47.7605C43.2295 48.3893 41.9435 48.7036 40.4418 48.7036C38.9471 48.7036 37.6615 48.3893 36.5843 47.7605C35.5076 47.1242 34.6799 46.2148 34.1009 45.0321C33.5293 43.8495 33.2438 42.4346 33.2438 40.7881V31.5253H36.6286V40.3616C36.6286 41.5367 36.7714 42.5171 37.057 43.3032C37.35 44.089 37.7787 44.684 38.3429 45.088C38.9068 45.4848 39.6068 45.6831 40.4418 45.6831C41.2769 45.6831 41.9765 45.4848 42.5407 45.088C43.1049 44.684 43.5298 44.089 43.8154 43.3032C44.1083 42.5171 44.255 41.5367 44.255 40.3616V31.5253H47.6398ZM53.7056 48.3667H50.3212V31.5253H53.7056V39.8113C54.0354 39.3172 54.3505 38.8606 54.6508 38.4415C54.9512 38.0223 55.2076 37.678 55.4199 37.4085L59.9914 31.5253H63.9805L57.9367 39.2948L65.1454 48.3667H60.7609L55.7719 42.0678L53.7056 44.7289V48.3667ZM69.9482 48.3667H66.5634V31.5253H69.9482V38.565H77.0802V31.5253H80.4644V48.3667H77.0802V41.5854H69.9482V48.3667ZM85.6294 48.3667H82.08L88.6513 31.5253H92.2228L98.7837 48.3667H95.2343L93.8827 44.7514H86.981L85.6294 48.3667ZM88.0913 41.7198H92.7835L90.4315 35.4774L88.0913 41.7198ZM115.366 48.3667H111.476L103.773 36.8696V48.3667H100.388V31.5253H104.279L111.982 43.0447V31.5253H115.366V48.3667Z" fill="white"/>
<path d="M123.158 48.3667V31.5253H133.796V34.5455H126.543V38.3741H133.345V41.4054H126.543V45.3465H133.905V48.3667H123.158ZM135.597 46.5477L137.202 43.9094C137.707 44.3284 138.195 44.673 138.664 44.9421C139.14 45.2042 139.609 45.3988 140.07 45.5261C140.532 45.6458 141.004 45.7057 141.488 45.7057C142.059 45.7057 142.554 45.6232 142.971 45.4587C143.389 45.2942 143.712 45.0583 143.939 44.7514C144.173 44.4446 144.29 44.089 144.29 43.6846C144.29 43.2132 144.143 42.8164 143.851 42.4944C143.557 42.173 143.173 41.8923 142.697 41.6524C142.228 41.4054 141.719 41.1699 141.169 40.9451C140.634 40.7208 140.096 40.4773 139.554 40.2153C139.019 39.9461 138.524 39.6279 138.07 39.2611C137.624 38.8943 137.261 38.4489 136.982 37.925C136.711 37.3936 136.576 36.7499 136.576 35.9939C136.576 35.0059 136.818 34.1525 137.301 33.434C137.792 32.7154 138.463 32.1615 139.312 31.7723C140.162 31.3831 141.133 31.1885 142.225 31.1885C142.993 31.1885 143.792 31.2933 144.62 31.5029C145.455 31.7124 146.287 32.0305 147.115 32.4572L145.784 35.2528C145.265 34.931 144.704 34.6765 144.103 34.4894C143.503 34.3023 142.938 34.2087 142.411 34.2087C141.935 34.2087 141.518 34.2836 141.159 34.4332C140.807 34.583 140.532 34.7925 140.335 35.062C140.136 35.3239 140.037 35.6346 140.037 35.9939C140.037 36.4205 140.18 36.791 140.466 37.1054C140.752 37.4123 141.122 37.6855 141.576 37.925C142.037 38.1645 142.532 38.4041 143.059 38.6436C143.602 38.8831 144.147 39.1451 144.697 39.4295C145.254 39.7137 145.759 40.0508 146.213 40.4401C146.675 40.8218 147.045 41.2821 147.323 41.8209C147.609 42.3525 147.752 42.9924 147.752 43.7409C147.752 44.7288 147.496 45.5971 146.983 46.3456C146.47 47.0865 145.755 47.667 144.84 48.086C143.924 48.4975 142.858 48.7036 141.642 48.7036C140.528 48.7036 139.462 48.5201 138.444 48.1534C137.426 47.7867 136.477 47.2514 135.597 46.5477ZM156.785 48.3667H153.4V34.5455H148.543V31.5253H161.653V34.5455H156.785V48.3667ZM164.378 48.3667H160.829L167.4 31.5253H170.972L177.533 48.3667H173.983L172.632 44.7514H165.731L164.378 48.3667ZM166.84 41.7198H171.532L169.18 35.4774L166.84 41.7198ZM185.159 48.3667H181.775V34.5455H176.917V31.5253H190.027V34.5455H185.159V48.3667ZM191.599 48.3667V31.5253H202.237V34.5455H194.984V38.3741H201.786V41.4054H194.984V45.3465H202.346V48.3667H191.599Z" fill="#00B2FF"/>
<path d="M192 48.1782V31.3368H202.638V34.357H195.385V38.1857H202.187V41.2169H195.385V45.158H202.747V48.1782H192ZM204.439 46.3593L206.044 43.7209C206.549 44.1399 207.037 44.4845 207.506 44.7537C207.982 45.0157 208.451 45.2104 208.912 45.3376C209.374 45.4574 209.846 45.5172 210.33 45.5172C210.901 45.5172 211.396 45.4347 211.813 45.2702C212.231 45.1057 212.554 44.8698 212.781 44.5629C213.015 44.2561 213.132 43.9005 213.132 43.4962C213.132 43.0247 212.985 42.6279 212.693 42.306C212.399 41.9845 212.015 41.7038 211.539 41.4639C211.07 41.2169 210.561 40.9814 210.011 40.7566C209.476 40.5323 208.938 40.2889 208.396 40.0268C207.861 39.7576 207.366 39.4394 206.912 39.0726C206.466 38.7058 206.103 38.2605 205.824 37.7366C205.553 37.2051 205.418 36.5614 205.418 35.8054C205.418 34.8174 205.66 33.9641 206.143 33.2455C206.634 32.5269 207.305 31.9731 208.154 31.5838C209.004 31.1946 209.975 31 211.067 31C211.836 31 212.634 31.1048 213.462 31.3144C214.297 31.5239 215.129 31.8421 215.957 32.2687L214.627 35.0644C214.107 34.7425 213.546 34.488 212.945 34.3009C212.345 34.1138 211.78 34.0202 211.253 34.0202C210.777 34.0202 210.36 34.0951 210.001 34.2448C209.649 34.3945 209.374 34.604 209.177 34.8735C208.978 35.1355 208.879 35.4461 208.879 35.8054C208.879 36.2321 209.022 36.6026 209.308 36.9169C209.594 37.2238 209.964 37.497 210.418 37.7366C210.879 37.9761 211.374 38.2156 211.901 38.4551C212.444 38.6947 212.989 38.9566 213.539 39.241C214.096 39.5253 214.601 39.8623 215.055 40.2516C215.517 40.6334 215.887 41.0936 216.165 41.6324C216.451 42.164 216.594 42.8039 216.594 43.5524C216.594 44.5404 216.338 45.4086 215.825 46.1571C215.312 46.8981 214.597 47.4785 213.682 47.8975C212.766 48.309 211.7 48.5152 210.484 48.5152C209.37 48.5152 208.304 48.3316 207.286 47.9649C206.268 47.5982 205.319 47.063 204.439 46.3593ZM225.627 48.1782H222.242V34.357H217.385V31.3368H230.495V34.357H225.627V48.1782ZM233.22 48.1782H229.671L236.242 31.3368H239.814L246.375 48.1782H242.825L241.474 44.5629H234.573L233.22 48.1782ZM235.682 41.5313H240.374L238.022 35.2889L235.682 41.5313ZM254.001 48.1782H250.617V34.357H245.759V31.3368H258.869V34.357H254.001V48.1782ZM260.441 48.1782V31.3368H271.079V34.357H263.826V38.1857H270.628V41.2169H263.826V45.158H271.189V48.1782H260.441Z" fill="#00B2FF"/>
<path d="M31.4377 4.96289L-0.191895 34.6972L4.15857 38.8352L35.7882 9.10084L31.4377 4.96289Z" fill="white"/>
<path d="M52.79 53H53.79V60H52.79V53ZM57.3981 55H58.2581L58.3181 55.58C58.4781 55.3733 58.6815 55.2133 58.9281 55.1C59.1748 54.9867 59.4481 54.93 59.7481 54.93C60.1348 54.93 60.4681 55.0133 60.7481 55.18C61.0348 55.34 61.2548 55.58 61.4081 55.9C61.5681 56.22 61.6481 56.62 61.6481 57.1V60H60.7081V57.22C60.7081 56.7533 60.6081 56.4 60.4081 56.16C60.2148 55.9133 59.9315 55.79 59.5581 55.79C59.1715 55.79 58.8715 55.9167 58.6581 56.17C58.4448 56.4167 58.3381 56.7833 58.3381 57.27V60H57.3981V55ZM65.6436 55L67.0836 58.99L68.5336 55H69.5336L67.5836 60H66.5636L64.6236 55H65.6436ZM74.7545 60.07C74.2745 60.07 73.8478 59.96 73.4745 59.74C73.1078 59.5133 72.8178 59.2033 72.6045 58.81C72.3978 58.4167 72.2945 57.9667 72.2945 57.46C72.2945 56.9733 72.3978 56.54 72.6045 56.16C72.8111 55.78 73.0945 55.48 73.4545 55.26C73.8211 55.04 74.2345 54.93 74.6945 54.93C75.1611 54.93 75.5745 55.0333 75.9345 55.24C76.2945 55.44 76.5745 55.7233 76.7745 56.09C76.9745 56.45 77.0711 56.8667 77.0645 57.34C77.0645 57.42 77.0611 57.5033 77.0545 57.59C77.0478 57.67 77.0378 57.76 77.0245 57.86H73.3245C73.3445 58.1267 73.4178 58.3633 73.5445 58.57C73.6778 58.77 73.8445 58.9267 74.0445 59.04C74.2511 59.1533 74.4845 59.21 74.7445 59.21C75.0778 59.21 75.3678 59.1467 75.6145 59.02C75.8611 58.8867 76.0345 58.71 76.1345 58.49L76.9545 58.78C76.7545 59.1867 76.4611 59.5033 76.0745 59.73C75.6945 59.9567 75.2545 60.07 74.7545 60.07ZM76.0345 57.05C76.0345 56.81 75.9745 56.5933 75.8545 56.4C75.7345 56.2067 75.5711 56.0567 75.3645 55.95C75.1645 55.8367 74.9378 55.78 74.6845 55.78C74.4578 55.78 74.2478 55.8367 74.0545 55.95C73.8678 56.0567 73.7078 56.2067 73.5745 56.4C73.4478 56.5867 73.3678 56.8033 73.3345 57.05H76.0345ZM80.8792 58.42C80.9259 58.62 81.0059 58.7767 81.1192 58.89C81.2326 59.0033 81.3659 59.0867 81.5192 59.14C81.6792 59.1867 81.8459 59.21 82.0192 59.21C82.3192 59.21 82.5526 59.15 82.7192 59.03C82.8859 58.91 82.9692 58.76 82.9692 58.58C82.9692 58.4267 82.9159 58.3067 82.8092 58.22C82.7092 58.1267 82.5726 58.0533 82.3992 58C82.2326 57.9467 82.0526 57.8967 81.8592 57.85C81.6859 57.8033 81.4959 57.75 81.2892 57.69C81.0892 57.63 80.8992 57.55 80.7192 57.45C80.5459 57.3433 80.4026 57.21 80.2892 57.05C80.1759 56.8833 80.1192 56.6733 80.1192 56.42C80.1192 56.12 80.1992 55.86 80.3592 55.64C80.5259 55.4133 80.7526 55.24 81.0392 55.12C81.3326 54.9933 81.6626 54.93 82.0292 54.93C82.4559 54.93 82.8292 55.0233 83.1492 55.21C83.4759 55.39 83.7126 55.6633 83.8592 56.03L83.0092 56.31C82.9626 56.1833 82.8859 56.08 82.7792 56C82.6726 55.92 82.5492 55.8667 82.4092 55.84C82.2759 55.8067 82.1426 55.79 82.0092 55.79C81.7559 55.79 81.5459 55.84 81.3792 55.94C81.2126 56.04 81.1292 56.1867 81.1292 56.38C81.1292 56.4867 81.1559 56.5767 81.2092 56.65C81.2626 56.7167 81.3359 56.7733 81.4292 56.82C81.5292 56.86 81.6459 56.8967 81.7792 56.93C81.9126 56.9633 82.0559 57 82.2092 57.04C82.4092 57.1 82.6126 57.1667 82.8192 57.24C83.0259 57.3067 83.2159 57.3933 83.3892 57.5C83.5626 57.6067 83.7026 57.7467 83.8092 57.92C83.9159 58.0933 83.9726 58.3067 83.9792 58.56C83.9792 58.8533 83.8959 59.1133 83.7292 59.34C83.5692 59.5667 83.3392 59.7467 83.0392 59.88C82.7459 60.0067 82.3959 60.07 81.9892 60.07C81.4959 60.07 81.0759 59.96 80.7292 59.74C80.3826 59.52 80.1492 59.18 80.0292 58.72L80.8792 58.42ZM87.5439 55V53.6H88.4939V55H89.7439V55.84H88.4939V58.3C88.4939 58.6067 88.5539 58.8233 88.6739 58.95C88.8006 59.0767 88.9572 59.15 89.1439 59.17C89.3372 59.1833 89.5372 59.1767 89.7439 59.15V59.96C89.4706 60.02 89.2006 60.0367 88.9339 60.01C88.6739 59.99 88.4372 59.9167 88.2239 59.79C88.0172 59.6633 87.8506 59.48 87.7239 59.24C87.6039 58.9933 87.5439 58.68 87.5439 58.3V55.84H86.8239V55H87.5439ZM101.891 55.09C101.891 54.71 101.778 54.4067 101.551 54.18C101.324 53.9533 100.964 53.84 100.471 53.84H98.8709V56.33H100.481C100.808 56.33 101.074 56.28 101.281 56.18C101.488 56.0733 101.641 55.9267 101.741 55.74C101.841 55.5533 101.891 55.3367 101.891 55.09ZM100.471 53C101.024 53 101.478 53.0967 101.831 53.29C102.191 53.4767 102.458 53.7267 102.631 54.04C102.811 54.3533 102.901 54.7033 102.901 55.09C102.901 55.3433 102.858 55.5933 102.771 55.84C102.684 56.0867 102.544 56.3133 102.351 56.52C102.158 56.72 101.904 56.88 101.591 57C101.284 57.1133 100.914 57.17 100.481 57.17H98.8709V60H97.8709V53H100.471ZM101.111 56.83L103.041 60H101.911L100.051 56.83H101.111ZM106.408 55H107.358V60H106.408V55ZM106.888 54.12C106.708 54.12 106.558 54.06 106.438 53.94C106.318 53.82 106.258 53.6733 106.258 53.5C106.258 53.32 106.318 53.17 106.438 53.05C106.558 52.9233 106.708 52.86 106.888 52.86C107.062 52.86 107.208 52.9233 107.328 53.05C107.455 53.17 107.518 53.32 107.518 53.5C107.518 53.6733 107.455 53.82 107.328 53.94C107.208 54.06 107.062 54.12 106.888 54.12ZM114.784 55H115.644V59.18C115.644 59.7667 115.504 60.27 115.224 60.69C114.944 61.11 114.541 61.4333 114.014 61.66C113.494 61.8867 112.864 62 112.124 62L111.974 61.17C112.867 61.15 113.544 60.97 114.004 60.63C114.464 60.2967 114.694 59.8133 114.694 59.18V59.13L114.804 59.14C114.644 59.3933 114.414 59.6133 114.114 59.8C113.821 59.98 113.454 60.07 113.014 60.07C112.567 60.07 112.171 59.9633 111.824 59.75C111.484 59.5367 111.217 59.2367 111.024 58.85C110.837 58.4633 110.744 58.0133 110.744 57.5C110.744 56.9867 110.837 56.5367 111.024 56.15C111.217 55.7633 111.484 55.4633 111.824 55.25C112.171 55.0367 112.567 54.93 113.014 54.93C113.287 54.93 113.531 54.9667 113.744 55.04C113.964 55.1133 114.154 55.2133 114.314 55.34C114.474 55.46 114.607 55.5967 114.714 55.75L114.784 55ZM111.754 57.5C111.754 58.0133 111.887 58.4267 112.154 58.74C112.427 59.0533 112.791 59.21 113.244 59.21C113.511 59.21 113.754 59.1433 113.974 59.01C114.194 58.87 114.367 58.6733 114.494 58.42C114.627 58.16 114.694 57.8533 114.694 57.5C114.694 57.14 114.627 56.8333 114.494 56.58C114.367 56.3267 114.191 56.1333 113.964 56C113.744 55.86 113.504 55.79 113.244 55.79C112.791 55.79 112.427 55.9467 112.154 56.26C111.887 56.5733 111.754 56.9867 111.754 57.5ZM119.169 52.8H120.109V55.55C120.269 55.3567 120.476 55.2067 120.729 55.1C120.983 54.9867 121.263 54.93 121.569 54.93C121.943 54.93 122.269 55.0133 122.549 55.18C122.836 55.34 123.059 55.5833 123.219 55.91C123.379 56.23 123.459 56.63 123.459 57.11V60H122.469V57.23C122.469 56.7633 122.373 56.4067 122.179 56.16C121.986 55.9133 121.703 55.79 121.329 55.79C120.943 55.79 120.643 55.9167 120.429 56.17C120.216 56.4233 120.109 56.7933 120.109 57.28V60H119.169V52.8ZM127.244 55V53.6H128.194V55H129.444V55.84H128.194V58.3C128.194 58.6067 128.254 58.8233 128.374 58.95C128.5 59.0767 128.657 59.15 128.844 59.17C129.037 59.1833 129.237 59.1767 129.444 59.15V59.96C129.17 60.02 128.9 60.0367 128.634 60.01C128.374 59.99 128.137 59.9167 127.924 59.79C127.717 59.6633 127.55 59.48 127.424 59.24C127.304 58.9933 127.244 58.68 127.244 58.3V55.84H126.524V55H127.244ZM133.118 60.06C132.938 60.06 132.784 59.9967 132.658 59.87C132.531 59.7433 132.468 59.59 132.468 59.41C132.468 59.2233 132.531 59.0667 132.658 58.94C132.784 58.8133 132.938 58.75 133.118 58.75C133.298 58.75 133.451 58.8133 133.578 58.94C133.704 59.0667 133.768 59.2233 133.768 59.41C133.768 59.59 133.704 59.7433 133.578 59.87C133.451 59.9967 133.298 60.06 133.118 60.06ZM147.661 53V60H146.641L143.151 54.58V60H142.151V53H143.171L146.661 58.4V53H147.661ZM153.441 60.07C152.961 60.07 152.534 59.96 152.161 59.74C151.794 59.5133 151.504 59.2033 151.291 58.81C151.084 58.4167 150.981 57.9667 150.981 57.46C150.981 56.9733 151.084 56.54 151.291 56.16C151.497 55.78 151.781 55.48 152.141 55.26C152.507 55.04 152.921 54.93 153.381 54.93C153.847 54.93 154.261 55.0333 154.621 55.24C154.981 55.44 155.261 55.7233 155.461 56.09C155.661 56.45 155.757 56.8667 155.751 57.34C155.751 57.42 155.747 57.5033 155.741 57.59C155.734 57.67 155.724 57.76 155.711 57.86H152.011C152.031 58.1267 152.104 58.3633 152.231 58.57C152.364 58.77 152.531 58.9267 152.731 59.04C152.937 59.1533 153.171 59.21 153.431 59.21C153.764 59.21 154.054 59.1467 154.301 59.02C154.547 58.8867 154.721 58.71 154.821 58.49L155.641 58.78C155.441 59.1867 155.147 59.5033 154.761 59.73C154.381 59.9567 153.941 60.07 153.441 60.07ZM154.721 57.05C154.721 56.81 154.661 56.5933 154.541 56.4C154.421 56.2067 154.257 56.0567 154.051 55.95C153.851 55.8367 153.624 55.78 153.371 55.78C153.144 55.78 152.934 55.8367 152.741 55.95C152.554 56.0567 152.394 56.2067 152.261 56.4C152.134 56.5867 152.054 56.8033 152.021 57.05H154.721ZM159.566 58.42C159.612 58.62 159.692 58.7767 159.806 58.89C159.919 59.0033 160.052 59.0867 160.206 59.14C160.366 59.1867 160.532 59.21 160.706 59.21C161.006 59.21 161.239 59.15 161.406 59.03C161.572 58.91 161.656 58.76 161.656 58.58C161.656 58.4267 161.602 58.3067 161.496 58.22C161.396 58.1267 161.259 58.0533 161.086 58C160.919 57.9467 160.739 57.8967 160.546 57.85C160.372 57.8033 160.182 57.75 159.976 57.69C159.776 57.63 159.586 57.55 159.406 57.45C159.232 57.3433 159.089 57.21 158.976 57.05C158.862 56.8833 158.806 56.6733 158.806 56.42C158.806 56.12 158.886 55.86 159.046 55.64C159.212 55.4133 159.439 55.24 159.726 55.12C160.019 54.9933 160.349 54.93 160.716 54.93C161.142 54.93 161.516 55.0233 161.836 55.21C162.162 55.39 162.399 55.6633 162.546 56.03L161.696 56.31C161.649 56.1833 161.572 56.08 161.466 56C161.359 55.92 161.236 55.8667 161.096 55.84C160.962 55.8067 160.829 55.79 160.696 55.79C160.442 55.79 160.232 55.84 160.066 55.94C159.899 56.04 159.816 56.1867 159.816 56.38C159.816 56.4867 159.842 56.5767 159.896 56.65C159.949 56.7167 160.022 56.7733 160.116 56.82C160.216 56.86 160.332 56.8967 160.466 56.93C160.599 56.9633 160.742 57 160.896 57.04C161.096 57.1 161.299 57.1667 161.506 57.24C161.712 57.3067 161.902 57.3933 162.076 57.5C162.249 57.6067 162.389 57.7467 162.496 57.92C162.602 58.0933 162.659 58.3067 162.666 58.56C162.666 58.8533 162.582 59.1133 162.416 59.34C162.256 59.5667 162.026 59.7467 161.726 59.88C161.432 60.0067 161.082 60.07 160.676 60.07C160.182 60.07 159.762 59.96 159.416 59.74C159.069 59.52 158.836 59.18 158.716 58.72L159.566 58.42ZM166.23 55V53.6H167.18V55H168.43V55.84H167.18V58.3C167.18 58.6067 167.24 58.8233 167.36 58.95C167.487 59.0767 167.644 59.15 167.83 59.17C168.024 59.1833 168.224 59.1767 168.43 59.15V59.96C168.157 60.02 167.887 60.0367 167.62 60.01C167.36 59.99 167.124 59.9167 166.91 59.79C166.704 59.6633 166.537 59.48 166.41 59.24C166.29 58.9933 166.23 58.68 166.23 58.3V55.84H165.51V55H166.23ZM180.737 54.94C180.737 54.6 180.624 54.3333 180.397 54.14C180.177 53.94 179.857 53.84 179.437 53.84H177.557V56.03H179.447C179.854 56.03 180.171 55.9333 180.397 55.74C180.624 55.5467 180.737 55.28 180.737 54.94ZM176.557 60V53H179.527C180.021 53 180.431 53.0833 180.757 53.25C181.084 53.4167 181.327 53.6367 181.487 53.91C181.654 54.1833 181.737 54.4867 181.737 54.82C181.737 55.1333 181.677 55.3967 181.557 55.61C181.444 55.8233 181.291 55.9933 181.097 56.12C180.911 56.2467 180.697 56.3367 180.457 56.39V56.46C180.744 56.5 180.994 56.5867 181.207 56.72C181.427 56.8467 181.597 57.0267 181.717 57.26C181.844 57.4933 181.907 57.7833 181.907 58.13C181.907 58.4767 181.817 58.7933 181.637 59.08C181.457 59.3667 181.197 59.5933 180.857 59.76C180.524 59.92 180.117 60 179.637 60H176.557ZM177.557 59.16H179.547C179.974 59.16 180.307 59.0633 180.547 58.87C180.794 58.67 180.917 58.3867 180.917 58.02C180.917 57.6467 180.787 57.3633 180.527 57.17C180.274 56.97 179.937 56.87 179.517 56.87H177.557V59.16ZM185.247 55H186.107L186.167 55.67C186.307 55.4967 186.467 55.3533 186.647 55.24C186.834 55.12 187.034 55.0367 187.247 54.99C187.467 54.9433 187.694 54.9467 187.927 55V55.89C187.707 55.8367 187.494 55.83 187.287 55.87C187.081 55.91 186.894 55.9967 186.727 56.13C186.567 56.2567 186.437 56.4267 186.337 56.64C186.237 56.8533 186.187 57.11 186.187 57.41V60H185.247V55ZM191.13 55H192.08V60H191.13V55ZM191.61 54.12C191.43 54.12 191.28 54.06 191.16 53.94C191.04 53.82 190.98 53.6733 190.98 53.5C190.98 53.32 191.04 53.17 191.16 53.05C191.28 52.9233 191.43 52.86 191.61 52.86C191.783 52.86 191.93 52.9233 192.05 53.05C192.177 53.17 192.24 53.32 192.24 53.5C192.24 53.6733 192.177 53.82 192.05 53.94C191.93 54.06 191.783 54.12 191.61 54.12ZM199.506 55H200.366V59.18C200.366 59.7667 200.226 60.27 199.946 60.69C199.666 61.11 199.263 61.4333 198.736 61.66C198.216 61.8867 197.586 62 196.846 62L196.696 61.17C197.589 61.15 198.266 60.97 198.726 60.63C199.186 60.2967 199.416 59.8133 199.416 59.18V59.13L199.526 59.14C199.366 59.3933 199.136 59.6133 198.836 59.8C198.543 59.98 198.176 60.07 197.736 60.07C197.289 60.07 196.893 59.9633 196.546 59.75C196.206 59.5367 195.939 59.2367 195.746 58.85C195.559 58.4633 195.466 58.0133 195.466 57.5C195.466 56.9867 195.559 56.5367 195.746 56.15C195.939 55.7633 196.206 55.4633 196.546 55.25C196.893 55.0367 197.289 54.93 197.736 54.93C198.009 54.93 198.253 54.9667 198.466 55.04C198.686 55.1133 198.876 55.2133 199.036 55.34C199.196 55.46 199.329 55.5967 199.436 55.75L199.506 55ZM196.476 57.5C196.476 58.0133 196.609 58.4267 196.876 58.74C197.149 59.0533 197.513 59.21 197.966 59.21C198.233 59.21 198.476 59.1433 198.696 59.01C198.916 58.87 199.089 58.6733 199.216 58.42C199.349 58.16 199.416 57.8533 199.416 57.5C199.416 57.14 199.349 56.8333 199.216 56.58C199.089 56.3267 198.913 56.1333 198.686 56C198.466 55.86 198.226 55.79 197.966 55.79C197.513 55.79 197.149 55.9467 196.876 56.26C196.609 56.5733 196.476 56.9867 196.476 57.5ZM203.891 52.8H204.831V55.55C204.991 55.3567 205.198 55.2067 205.451 55.1C205.704 54.9867 205.984 54.93 206.291 54.93C206.664 54.93 206.991 55.0133 207.271 55.18C207.558 55.34 207.781 55.5833 207.941 55.91C208.101 56.23 208.181 56.63 208.181 57.11V60H207.191V57.23C207.191 56.7633 207.094 56.4067 206.901 56.16C206.708 55.9133 206.424 55.79 206.051 55.79C205.664 55.79 205.364 55.9167 205.151 56.17C204.938 56.4233 204.831 56.7933 204.831 57.28V60H203.891V52.8ZM211.965 55V53.6H212.915V55H214.165V55.84H212.915V58.3C212.915 58.6067 212.975 58.8233 213.095 58.95C213.222 59.0767 213.379 59.15 213.565 59.17C213.759 59.1833 213.959 59.1767 214.165 59.15V59.96C213.892 60.02 213.622 60.0367 213.355 60.01C213.095 59.99 212.859 59.9167 212.645 59.79C212.439 59.6633 212.272 59.48 212.145 59.24C212.025 58.9933 211.965 58.68 211.965 58.3V55.84H211.245V55H211.965Z" fill="white"/>
</g>
<defs>
<clipPath id="clip0_152_678">
<rect width="217" height="67" fill="white"/>
</clipPath>
</defs>
</svg>
