<svg width="210" height="56" viewBox="0 0 210 56" fill="none" xmlns="http://www.w3.org/2000/svg">
<g clip-path="url(#clip0_377_2)">
<path d="M47.1296 53.5975V48.0105H13.4152V24.5167L30.3984 7.90109L46.0015 23.0584H54.1785L30.3984 0L0.326416 29.4211L4.36435 33.3716L7.70502 30.1033V53.5975H47.1296Z" fill="#00B2FF"/>
<path d="M18.3428 42.3317L19.8796 39.9117C20.3638 40.296 20.8304 40.612 21.2796 40.8589C21.7357 41.0993 22.1848 41.2778 22.6269 41.3946C23.069 41.5044 23.5216 41.5593 23.9848 41.5593C24.5321 41.5593 25.0058 41.4837 25.4058 41.3327C25.8058 41.1818 26.1146 40.9655 26.3321 40.684C26.5567 40.4026 26.669 40.0764 26.669 39.7055C26.669 39.2731 26.5286 38.9091 26.2479 38.6142C25.9672 38.3189 25.5988 38.0615 25.1426 37.8418C24.6935 37.6149 24.2058 37.3989 23.6795 37.1927C23.1672 36.9869 22.6515 36.7637 22.1322 36.5237C21.6199 36.2763 21.1462 35.9845 20.7112 35.6481C20.2831 35.3117 19.9357 34.9032 19.6691 34.4226C19.4094 33.9352 19.2796 33.3447 19.2796 32.6513C19.2796 31.7451 19.5112 30.9624 19.9743 30.3033C20.4445 29.6442 21.0866 29.1362 21.9006 28.7791C22.7146 28.4222 23.6444 28.2437 24.69 28.2437C25.4269 28.2437 26.1918 28.3398 26.9847 28.532C27.7847 28.7242 28.5812 29.016 29.3742 29.4074L28.1005 31.9716C27.6022 31.6764 27.0654 31.443 26.49 31.2714C25.9146 31.0997 25.3742 31.0139 24.869 31.0139C24.4129 31.0139 24.0128 31.0825 23.669 31.2199C23.3322 31.3572 23.069 31.5494 22.8796 31.7966C22.6901 32.0369 22.5953 32.3218 22.5953 32.6513C22.5953 33.0426 22.7322 33.3825 23.0059 33.6709C23.2795 33.9523 23.6339 34.2029 24.069 34.4226C24.5111 34.6423 24.9848 34.862 25.49 35.0817C26.0093 35.3014 26.5321 35.5417 27.0584 35.8026C27.5917 36.0635 28.0759 36.3724 28.511 36.7295C28.9531 37.0797 29.3075 37.5018 29.5742 37.996C29.8478 38.4837 29.9847 39.0706 29.9847 39.7571C29.9847 40.6633 29.7391 41.4597 29.2478 42.1462C28.7566 42.8262 28.0724 43.3582 27.1953 43.7426C26.3181 44.12 25.297 44.3091 24.1322 44.3091C23.0655 44.3091 22.0445 44.1407 21.0691 43.8044C20.0936 43.468 19.1849 42.9771 18.3428 42.3317ZM45.8161 28.5526V37.0487C45.8161 38.5589 45.5388 39.8567 44.9846 40.9415C44.4371 42.0262 43.6477 42.8604 42.6159 43.444C41.5915 44.0207 40.3598 44.3091 38.9214 44.3091C37.4896 44.3091 36.2583 44.0207 35.2267 43.444C34.1951 42.8604 33.4022 42.0262 32.8478 40.9415C32.3004 39.8567 32.0267 38.5589 32.0267 37.0487V28.5526H35.2688V36.6575C35.2688 37.7353 35.4056 38.6346 35.6793 39.3557C35.96 40.0764 36.3705 40.6222 36.9109 40.9931C37.4514 41.3567 38.1215 41.5389 38.9214 41.5389C39.7212 41.5389 40.3914 41.3567 40.9318 40.9931C41.4722 40.6222 41.8792 40.0764 42.1528 39.3557C42.4338 38.6346 42.5739 37.7353 42.5739 36.6575V28.5526H45.8161ZM51.6265 44H48.3844V28.5526H51.6265V36.1527C51.9421 35.6996 52.2439 35.2808 52.5316 34.8963C52.8193 34.5119 53.065 34.1961 53.2686 33.9489L57.6474 28.5526H61.4683L55.679 35.679L62.5841 44H58.3841L53.6054 38.2226L51.6265 40.6633V44ZM67.184 44H63.9418V28.5526H67.184V35.0096H74.0155V28.5526H77.2577V44H74.0155V37.78H67.184V44ZM82.2048 44H78.805L85.0994 28.5526H88.5204L94.8048 44H91.4046L90.1101 40.684H83.4997L82.2048 44ZM84.5627 37.9033H89.0575L86.8047 32.1776L84.5627 37.9033ZM110.689 44H106.962L99.5835 33.4546V44H96.3413V28.5526H100.068L107.446 39.1186V28.5526H110.689V44Z" fill="white"/>
<path d="M118.152 44V28.5526H128.341V31.3229H121.394V34.8346H127.909V37.6149H121.394V41.2298H128.446V44H118.152ZM130.067 42.3317L131.604 39.9117C132.088 40.296 132.555 40.612 133.004 40.8589C133.46 41.0993 133.909 41.2778 134.351 41.3946C134.793 41.5044 135.246 41.5593 135.709 41.5593C136.257 41.5593 136.73 41.4837 137.13 41.3327C137.53 41.1818 137.839 40.9655 138.057 40.684C138.281 40.4026 138.393 40.0764 138.393 39.7055C138.393 39.2731 138.253 38.9091 137.972 38.6142C137.692 38.3189 137.323 38.0615 136.867 37.8418C136.418 37.6149 135.93 37.3989 135.404 37.1927C134.892 36.9869 134.376 36.7637 133.857 36.5237C133.344 36.2763 132.871 35.9845 132.436 35.6481C132.008 35.3117 131.66 34.9032 131.393 34.4226C131.134 33.9352 131.004 33.3447 131.004 32.6513C131.004 31.7451 131.236 30.9624 131.699 30.3033C132.169 29.6442 132.811 29.1362 133.625 28.7791C134.439 28.4222 135.369 28.2437 136.415 28.2437C137.151 28.2437 137.916 28.3398 138.709 28.532C139.509 28.7242 140.306 29.016 141.098 29.4074L139.825 31.9716C139.327 31.6764 138.79 31.443 138.215 31.2714C137.639 31.0997 137.099 31.0139 136.593 31.0139C136.137 31.0139 135.737 31.0825 135.394 31.2199C135.056 31.3572 134.793 31.5494 134.604 31.7966C134.415 32.0369 134.32 32.3218 134.32 32.6513C134.32 33.0426 134.457 33.3825 134.73 33.6709C135.004 33.9523 135.358 34.2029 135.793 34.4226C136.235 34.6423 136.709 34.862 137.214 35.0817C137.734 35.3014 138.257 35.5417 138.783 35.8026C139.316 36.0635 139.8 36.3724 140.235 36.7295C140.677 37.0797 141.032 37.5018 141.298 37.996C141.572 38.4837 141.709 39.0706 141.709 39.7571C141.709 40.6633 141.463 41.4597 140.972 42.1462C140.481 42.8262 139.797 43.3582 138.92 43.7426C138.043 44.12 137.022 44.3091 135.857 44.3091C134.79 44.3091 133.769 44.1407 132.794 43.8044C131.818 43.468 130.909 42.9771 130.067 42.3317ZM150.362 44H147.12V31.3229H142.467V28.5526H155.025V31.3229H150.362V44ZM157.635 44H154.235L160.53 28.5526H163.951L170.235 44H166.835L165.54 40.684H158.93L157.635 44ZM159.993 37.9033H164.488L162.235 32.1776L159.993 37.9033ZM177.54 44H174.298V31.3229H169.645V28.5526H182.203V31.3229H177.54V44ZM183.708 44V28.5526H193.898V31.3229H186.951V34.8346H193.466V37.6149H186.951V41.2298H194.003V44H183.708ZM195.624 42.3317L197.161 39.9117C197.645 40.296 198.112 40.612 198.561 40.8589C199.017 41.0993 199.466 41.2778 199.908 41.3946C200.35 41.5044 200.803 41.5593 201.266 41.5593C201.813 41.5593 202.287 41.4837 202.687 41.3327C203.087 41.1818 203.396 40.9655 203.613 40.684C203.838 40.4026 203.95 40.0764 203.95 39.7055C203.95 39.2731 203.81 38.9091 203.529 38.6142C203.248 38.3189 202.88 38.0615 202.424 37.8418C201.975 37.6149 201.487 37.3989 200.961 37.1927C200.449 36.9869 199.933 36.7637 199.413 36.5237C198.901 36.2763 198.427 35.9845 197.992 35.6481C197.564 35.3117 197.217 34.9032 196.95 34.4226C196.691 33.9352 196.561 33.3447 196.561 32.6513C196.561 31.7451 196.792 30.9624 197.255 30.3033C197.726 29.6442 198.368 29.1362 199.182 28.7791C199.996 28.4222 200.926 28.2437 201.971 28.2437C202.708 28.2437 203.473 28.3398 204.266 28.532C205.066 28.7242 205.862 29.016 206.655 29.4074L205.382 31.9716C204.883 31.6764 204.347 31.443 203.771 31.2714C203.196 31.0997 202.655 31.0139 202.15 31.0139C201.694 31.0139 201.294 31.0825 200.95 31.2199C200.613 31.3572 200.35 31.5494 200.161 31.7966C199.971 32.0369 199.877 32.3218 199.877 32.6513C199.877 33.0426 200.013 33.3825 200.287 33.6709C200.561 33.9523 200.915 34.2029 201.35 34.4226C201.792 34.6423 202.266 34.862 202.771 35.0817C203.29 35.3014 203.813 35.5417 204.34 35.8026C204.873 36.0635 205.357 36.3724 205.792 36.7295C206.234 37.0797 206.589 37.5018 206.855 37.996C207.129 38.4837 207.266 39.0706 207.266 39.7571C207.266 40.6633 207.02 41.4597 206.529 42.1462C206.038 42.8262 205.354 43.3582 204.476 43.7426C203.599 44.12 202.578 44.3091 201.413 44.3091C200.347 44.3091 199.326 44.1407 198.35 43.8044C197.375 43.468 196.466 42.9771 195.624 42.3317Z" fill="#00B2FF"/>
<path d="M49.6968 53.2995L50.0053 52.8202C50.1625 52.9456 50.3201 53.0496 50.4773 53.1326C50.6345 53.2155 50.7944 53.2769 50.9564 53.3173C51.1211 53.3576 51.288 53.3776 51.4574 53.3776C51.7042 53.3776 51.9194 53.3373 52.1034 53.2569C52.2896 53.1766 52.435 53.0653 52.539 52.9231C52.6431 52.7787 52.6951 52.6129 52.6951 52.426C52.6951 52.2224 52.6357 52.0544 52.5171 51.9216C52.4011 51.7867 52.2499 51.6718 52.0633 51.5773C51.8771 51.4827 51.6786 51.3925 51.4682 51.3075C51.2917 51.234 51.1162 51.1558 50.9419 51.0729C50.7676 50.99 50.6093 50.8944 50.4665 50.7853C50.326 50.674 50.2134 50.5402 50.1287 50.3842C50.0439 50.2278 50.0019 50.0395 50.0019 49.8195C50.0019 49.5376 50.0744 49.2893 50.2194 49.0736C50.3647 48.8584 50.5654 48.69 50.8222 48.5693C51.0809 48.4485 51.3786 48.3882 51.715 48.3882C51.9425 48.3882 52.1711 48.418 52.4011 48.4773C52.6308 48.534 52.8535 48.618 53.0687 48.7293L52.8074 49.2406C52.6383 49.1435 52.4602 49.0689 52.274 49.0169C52.09 48.9649 51.9087 48.9387 51.7295 48.9387C51.5165 48.9387 51.3288 48.9744 51.1668 49.0453C51.0073 49.114 50.8813 49.2111 50.7895 49.3365C50.6999 49.4595 50.655 49.6042 50.655 49.7696C50.655 49.9544 50.7096 50.1093 50.8185 50.2351C50.9296 50.3606 51.0724 50.4693 51.2467 50.5616C51.4232 50.6515 51.6098 50.7391 51.8057 50.8246C51.9919 50.9049 52.1759 50.99 52.3573 51.0802C52.5413 51.1678 52.707 51.2718 52.8546 51.3926C53.0047 51.5111 53.1244 51.6529 53.214 51.8187C53.3036 51.9845 53.3482 52.1845 53.3482 52.4187C53.3482 52.7195 53.2709 52.9835 53.1159 53.2107C52.9613 53.4358 52.7435 53.6107 52.4628 53.7362C52.1844 53.862 51.8577 53.9245 51.4827 53.9245C51.1534 53.9245 50.8401 53.8726 50.5427 53.7682C50.245 53.6642 49.9629 53.5078 49.6968 53.2995ZM61.2271 53.818H60.632V51.9253C60.632 51.5442 60.5462 51.2482 60.3744 51.0376C60.205 50.8246 59.9652 50.718 59.6556 50.718C59.3434 50.718 59.0977 50.8256 58.9189 51.0409C58.742 51.254 58.6539 51.5489 58.6539 51.9253V53.818H58.0585V51.9253C58.0585 51.5442 57.9726 51.2482 57.8009 51.0376C57.6288 50.8246 57.3884 50.718 57.0784 50.718C56.7665 50.718 56.5208 50.8256 56.3417 51.0409C56.1652 51.254 56.0767 51.5489 56.0767 51.9253V53.818H55.4816V50.2667H55.9678L55.9931 50.9024C56.1142 50.6704 56.2789 50.4955 56.487 50.3769C56.6974 50.2562 56.9453 50.1958 57.2311 50.1958C57.5359 50.1958 57.7961 50.2635 58.0113 50.3984C58.2291 50.5307 58.3911 50.7213 58.4978 50.97C58.6164 50.7165 58.7844 50.5249 59.0022 50.3947C59.2226 50.262 59.485 50.1958 59.7898 50.1958C60.2425 50.1958 60.5945 50.3366 60.8461 50.6184C61.1003 50.8976 61.2271 51.2885 61.2271 51.7904V53.818ZM66.402 53.818H65.8902L65.8504 53.3493C65.7174 53.5173 65.5479 53.65 65.3423 53.7471C65.1364 53.8416 64.9067 53.8889 64.6525 53.8889C64.3912 53.8889 64.1578 53.8395 63.9519 53.7398C63.7463 53.638 63.5843 53.4995 63.4657 53.3246C63.3494 53.1493 63.2914 52.9504 63.2914 52.7278C63.2914 52.4933 63.3542 52.2875 63.4802 52.11C63.6084 51.93 63.7813 51.7893 63.9991 51.6875C64.2195 51.5856 64.4685 51.5347 64.7469 51.5347C64.9283 51.5347 65.1134 51.5573 65.3022 51.602C65.491 51.6446 65.659 51.7038 65.8069 51.7798V51.6304C65.8069 51.4413 65.7582 51.2802 65.6616 51.1475C65.565 51.0126 65.4353 50.9096 65.2732 50.8387C65.1111 50.7653 64.932 50.7285 64.7361 50.7285C64.5666 50.7285 64.3934 50.7595 64.2169 50.8209C64.0403 50.8802 63.8708 50.9726 63.7088 51.098L63.5129 50.5973C63.7233 50.4646 63.9448 50.3653 64.1771 50.2987C64.4094 50.2304 64.6391 50.1958 64.8666 50.1958C65.1814 50.1958 65.4524 50.2587 65.6798 50.3842C65.9095 50.5071 66.0876 50.6835 66.2132 50.9133C66.3392 51.1405 66.402 51.4104 66.402 51.7227V53.818ZM64.7577 53.3566C64.9443 53.3566 65.1149 53.3184 65.2695 53.2427C65.4245 53.1671 65.5501 53.058 65.6471 52.9162C65.7438 52.7715 65.7973 52.6013 65.8069 52.4046V52.3442C65.6739 52.2424 65.5237 52.1645 65.3568 52.11C65.1922 52.0533 65.0238 52.0245 64.8521 52.0245C64.5837 52.0245 64.3585 52.0885 64.1771 52.2165C63.998 52.3442 63.9084 52.5064 63.9084 52.7031C63.9084 52.826 63.9448 52.9373 64.0173 53.0369C64.0924 53.1362 64.1938 53.2144 64.3221 53.2711C64.4503 53.3278 64.5956 53.3566 64.7577 53.3566ZM69.2431 53.818H68.6477V50.2667H69.1703L69.1959 50.97C69.3216 50.726 69.4981 50.5369 69.7256 50.402C69.9556 50.2646 70.2192 50.1958 70.5169 50.1958C70.5823 50.1958 70.6488 50.1995 70.7165 50.2064C70.7845 50.2136 70.8521 50.2242 70.9198 50.2384L70.8473 50.7642C70.7143 50.7333 70.5823 50.718 70.4515 50.718C70.2143 50.718 70.004 50.7747 69.82 50.8882C69.6386 51.002 69.497 51.1584 69.3955 51.3569C69.2937 51.5558 69.2431 51.7846 69.2431 52.0424V53.818ZM74.8314 53.7329C74.592 53.8369 74.3586 53.8889 74.1311 53.8889C73.9133 53.8889 73.7219 53.8427 73.5576 53.7507C73.393 53.6558 73.2647 53.5246 73.1729 53.3566C73.0807 53.186 73.0347 52.9882 73.0347 52.7635V50.7889H72.3995V50.2667H73.064V49.3791H73.6301V50.2667H74.7154V50.7889H73.6301V52.6569C73.6301 52.87 73.6881 53.0416 73.8044 53.1718C73.923 53.302 74.0776 53.3671 74.269 53.3671C74.4236 53.3671 74.5786 53.322 74.7336 53.2322L74.8314 53.7329ZM85.3083 53.818H84.6694V49.3686L82.8508 52.9231H82.2735L80.4623 49.3896V53.818H79.8238V48.4915H80.6474L82.5642 52.266L84.4731 48.4915H85.3083V53.818ZM89.2381 53.8889C88.8776 53.8889 88.5531 53.8086 88.265 53.6475C87.9774 53.4867 87.7499 53.2675 87.5826 52.9907C87.4184 52.7111 87.3358 52.3951 87.3358 52.0424C87.3358 51.6922 87.4184 51.3784 87.5826 51.1013C87.7499 50.822 87.9774 50.602 88.265 50.4409C88.5531 50.2776 88.8776 50.1958 89.2381 50.1958C89.5986 50.1958 89.9216 50.2776 90.2071 50.4409C90.4925 50.602 90.7178 50.822 90.8821 51.1013C91.0467 51.3784 91.1288 51.6922 91.1288 52.0424C91.1288 52.3951 91.0467 52.7111 90.8821 52.9907C90.7178 53.2675 90.4925 53.4867 90.2071 53.6475C89.9216 53.8086 89.5986 53.8889 89.2381 53.8889ZM89.2344 53.3635C89.4786 53.3635 89.6979 53.3056 89.8912 53.1896C90.0848 53.0736 90.2372 52.9162 90.3487 52.7173C90.4624 52.5184 90.5193 52.2933 90.5193 52.0424C90.5193 51.7915 90.4624 51.5667 90.3487 51.3678C90.2372 51.1689 90.0848 51.0115 89.8912 50.8955C89.6979 50.7795 89.4786 50.7213 89.2344 50.7213C88.9898 50.7213 88.7698 50.7795 88.5735 50.8955C88.3803 51.0115 88.2264 51.1689 88.1127 51.3678C88.0015 51.5667 87.9458 51.7915 87.9458 52.0424C87.9458 52.2933 88.0015 52.5184 88.1127 52.7173C88.2264 52.9162 88.3803 53.0736 88.5735 53.1896C88.7698 53.3056 88.9898 53.3635 89.2344 53.3635ZM96.3874 50.2667L94.859 53.818H94.2822L92.7576 50.2667H93.4002L94.5762 53.2071L95.7559 50.2667H96.3874ZM101.486 53.3813C101.036 53.7198 100.54 53.8889 99.9975 53.8889C99.6203 53.8889 99.2813 53.8064 98.9814 53.6405C98.6814 53.4747 98.4443 53.25 98.27 52.9656C98.0982 52.6795 98.0124 52.3562 98.0124 51.9962C98.0124 51.6507 98.0919 51.3427 98.2517 51.0729C98.4116 50.8009 98.6305 50.5864 98.9089 50.4304C99.1869 50.274 99.5028 50.1958 99.8563 50.1958C100.219 50.1958 100.539 50.2809 100.814 50.4515C101.093 50.622 101.309 50.8587 101.464 51.1616C101.619 51.4649 101.696 51.8151 101.696 52.2129V52.3264H98.6584C98.7019 52.5347 98.7888 52.7158 98.9197 52.87C99.0505 53.0238 99.2137 53.1435 99.4095 53.2285C99.608 53.3136 99.8284 53.3566 100.07 53.3566C100.487 53.3566 100.867 53.2227 101.21 52.9551L101.486 53.3813ZM98.6364 51.8293H101.134C101.107 51.6093 101.037 51.4173 100.923 51.254C100.812 51.0886 100.667 50.9595 100.488 50.8671C100.311 50.7747 100.111 50.7285 99.8886 50.7285C99.6638 50.7285 99.4605 50.7747 99.2791 50.8671C99.0999 50.9595 98.9535 51.0886 98.8397 51.254C98.7286 51.4173 98.6606 51.6093 98.6364 51.8293ZM103.47 53.5089L103.626 52.9624C103.713 53.0427 103.812 53.1126 103.924 53.1718C104.035 53.2307 104.153 53.2769 104.276 53.3104C104.399 53.3409 104.524 53.3566 104.65 53.3566C104.875 53.3566 105.056 53.3078 105.194 53.2107C105.332 53.1136 105.401 52.9871 105.401 52.8307C105.401 52.7173 105.365 52.6238 105.292 52.5504C105.222 52.4744 105.129 52.4093 105.013 52.3551C104.897 52.3006 104.772 52.2485 104.639 52.1987C104.477 52.1373 104.316 52.0675 104.156 51.9893C103.996 51.9111 103.863 51.8082 103.757 51.6802C103.653 51.5526 103.601 51.3842 103.601 51.1758C103.601 50.9773 103.652 50.8042 103.753 50.6576C103.855 50.5107 103.996 50.3973 104.178 50.3166C104.362 50.2362 104.572 50.1958 104.81 50.1958C105.168 50.1958 105.52 50.2835 105.866 50.4587L105.688 50.9842C105.61 50.9344 105.521 50.8907 105.419 50.8529C105.318 50.8125 105.214 50.7816 105.107 50.7605C105.001 50.7391 104.9 50.7285 104.806 50.7285C104.629 50.7285 104.486 50.7689 104.377 50.8493C104.269 50.9275 104.214 51.0329 104.214 51.1653C104.214 51.2409 104.236 51.3111 104.28 51.3747C104.325 51.4366 104.402 51.498 104.508 51.5595C104.615 51.6209 104.762 51.6896 104.951 51.7656C105.118 51.8318 105.282 51.9075 105.445 51.9929C105.607 52.0755 105.741 52.1835 105.847 52.3158C105.956 52.446 106.011 52.6165 106.011 52.8271C106.011 53.0355 105.954 53.2202 105.84 53.3813C105.729 53.5398 105.573 53.6642 105.372 53.754C105.174 53.8442 104.944 53.8889 104.683 53.8889C104.249 53.8889 103.845 53.7624 103.47 53.5089ZM108.347 53.8889C108.241 53.8889 108.154 53.8569 108.086 53.7933C108.021 53.7267 107.988 53.6416 107.988 53.5376C107.988 53.4311 108.021 53.3446 108.086 53.2784C108.154 53.2118 108.241 53.1787 108.347 53.1787C108.454 53.1787 108.541 53.2118 108.609 53.2784C108.679 53.3446 108.714 53.4311 108.714 53.5376C108.714 53.6416 108.679 53.7267 108.609 53.7933C108.541 53.8569 108.454 53.8889 108.347 53.8889ZM113.695 53.2995L114.004 52.8202C114.161 52.9456 114.318 53.0496 114.476 53.1326C114.633 53.2155 114.793 53.2769 114.955 53.3173C115.119 53.3576 115.286 53.3776 115.455 53.3776C115.703 53.3776 115.918 53.3373 116.102 53.2569C116.288 53.1766 116.433 53.0653 116.537 52.9231C116.641 52.7787 116.693 52.6129 116.693 52.426C116.693 52.2224 116.634 52.0544 116.515 51.9216C116.399 51.7867 116.248 51.6718 116.062 51.5773C115.875 51.4827 115.677 51.3925 115.467 51.3075C115.29 51.234 115.115 51.1558 114.94 51.0729C114.766 50.99 114.608 50.8944 114.464 50.7853C114.324 50.674 114.212 50.5402 114.127 50.3842C114.042 50.2278 114 50.0395 114 49.8195C114 49.5376 114.073 49.2893 114.218 49.0736C114.363 48.8584 114.564 48.69 114.821 48.5693C115.079 48.4485 115.377 48.3882 115.713 48.3882C115.941 48.3882 116.169 48.418 116.399 48.4773C116.629 48.534 116.852 48.618 117.067 48.7293L116.806 49.2406C116.637 49.1435 116.459 49.0689 116.272 49.0169C116.088 48.9649 115.907 48.9387 115.728 48.9387C115.515 48.9387 115.327 48.9744 115.165 49.0453C115.006 49.114 114.88 49.2111 114.788 49.3365C114.698 49.4595 114.653 49.6042 114.653 49.7696C114.653 49.9544 114.708 50.1093 114.817 50.2351C114.928 50.3606 115.071 50.4693 115.245 50.5616C115.422 50.6515 115.608 50.7391 115.804 50.8246C115.99 50.9049 116.174 50.99 116.356 51.0802C116.54 51.1678 116.705 51.2718 116.853 51.3926C117.003 51.5111 117.123 51.6529 117.212 51.8187C117.302 51.9845 117.347 52.1845 117.347 52.4187C117.347 52.7195 117.269 52.9835 117.114 53.2107C116.96 53.4358 116.742 53.6107 116.461 53.7362C116.183 53.862 115.856 53.9245 115.481 53.9245C115.152 53.9245 114.838 53.8726 114.541 53.7682C114.243 53.6642 113.961 53.5078 113.695 53.2995ZM125.225 53.818H124.63V51.9253C124.63 51.5442 124.544 51.2482 124.373 51.0376C124.203 50.8246 123.964 50.718 123.654 50.718C123.342 50.718 123.096 50.8256 122.917 51.0409C122.74 51.254 122.652 51.5489 122.652 51.9253V53.818H122.057V51.9253C122.057 51.5442 121.971 51.2482 121.799 51.0376C121.627 50.8246 121.387 50.718 121.077 50.718C120.764 50.718 120.519 50.8256 120.34 51.0409C120.163 51.254 120.075 51.5489 120.075 51.9253V53.818H119.48V50.2667H119.966L119.991 50.9024C120.113 50.6704 120.277 50.4955 120.485 50.3769C120.696 50.2562 120.944 50.1958 121.229 50.1958C121.534 50.1958 121.794 50.2635 122.01 50.3984C122.227 50.5307 122.389 50.7213 122.496 50.97C122.615 50.7165 122.783 50.5249 123.001 50.3947C123.221 50.262 123.483 50.1958 123.788 50.1958C124.241 50.1958 124.593 50.3366 124.844 50.6184C125.099 50.8976 125.225 51.2885 125.225 51.7904V53.818ZM130.4 53.818H129.889L129.849 53.3493C129.716 53.5173 129.546 53.65 129.341 53.7471C129.135 53.8416 128.905 53.8889 128.651 53.8889C128.39 53.8889 128.156 53.8395 127.95 53.7398C127.745 53.638 127.583 53.4995 127.464 53.3246C127.348 53.1493 127.29 52.9504 127.29 52.7278C127.29 52.4933 127.353 52.2875 127.479 52.11C127.607 51.93 127.78 51.7893 127.997 51.6875C128.218 51.5856 128.467 51.5347 128.745 51.5347C128.927 51.5347 129.112 51.5573 129.301 51.602C129.489 51.6446 129.657 51.7038 129.805 51.7798V51.6304C129.805 51.4413 129.757 51.2802 129.66 51.1475C129.563 51.0126 129.434 50.9096 129.272 50.8387C129.109 50.7653 128.93 50.7285 128.734 50.7285C128.565 50.7285 128.392 50.7595 128.215 50.8209C128.039 50.8802 127.869 50.9726 127.707 51.098L127.511 50.5973C127.722 50.4646 127.943 50.3653 128.175 50.2987C128.408 50.2304 128.637 50.1958 128.865 50.1958C129.18 50.1958 129.451 50.2587 129.678 50.3842C129.908 50.5071 130.086 50.6835 130.212 50.9133C130.338 51.1405 130.4 51.4104 130.4 51.7227V53.818ZM128.756 53.3566C128.943 53.3566 129.113 53.3184 129.268 53.2427C129.423 53.1671 129.548 53.058 129.645 52.9162C129.742 52.7715 129.795 52.6013 129.805 52.4046V52.3442C129.672 52.2424 129.522 52.1645 129.355 52.11C129.191 52.0533 129.022 52.0245 128.85 52.0245C128.582 52.0245 128.357 52.0885 128.175 52.2165C127.996 52.3442 127.907 52.5064 127.907 52.7031C127.907 52.826 127.943 52.9373 128.016 53.0369C128.091 53.1362 128.192 53.2144 128.32 53.2711C128.449 53.3278 128.594 53.3566 128.756 53.3566ZM133.241 53.818H132.646V50.2667H133.169L133.194 50.97C133.32 50.726 133.496 50.5369 133.724 50.402C133.954 50.2646 134.218 50.1958 134.515 50.1958C134.581 50.1958 134.647 50.1995 134.715 50.2064C134.783 50.2136 134.85 50.2242 134.918 50.2384L134.846 50.7642C134.713 50.7333 134.581 50.718 134.45 50.718C134.213 50.718 134.002 50.7747 133.818 50.8882C133.637 51.002 133.495 51.1584 133.394 51.3569C133.292 51.5558 133.241 51.7846 133.241 52.0424V53.818ZM138.83 53.7329C138.59 53.8369 138.357 53.8889 138.129 53.8889C137.912 53.8889 137.72 53.8427 137.556 53.7507C137.391 53.6558 137.263 53.5246 137.171 53.3566C137.079 53.186 137.033 52.9882 137.033 52.7635V50.7889H136.398V50.2667H137.062V49.3791H137.628V50.2667H138.714V50.7889H137.628V52.6569C137.628 52.87 137.686 53.0416 137.803 53.1718C137.921 53.302 138.076 53.3671 138.267 53.3671C138.422 53.3671 138.577 53.322 138.732 53.2322L138.83 53.7329ZM144.001 53.3813C143.551 53.7198 143.055 53.8889 142.513 53.8889C142.135 53.8889 141.796 53.8064 141.497 53.6405C141.197 53.4747 140.959 53.25 140.785 52.9656C140.613 52.6795 140.528 52.3562 140.528 51.9962C140.528 51.6507 140.607 51.3427 140.767 51.0729C140.927 50.8009 141.146 50.5864 141.424 50.4304C141.702 50.274 142.018 50.1958 142.371 50.1958C142.734 50.1958 143.053 50.2809 143.33 50.4515C143.608 50.622 143.824 50.8587 143.979 51.1616C144.134 51.4649 144.212 51.8151 144.212 52.2129V52.3264H141.174C141.217 52.5347 141.304 52.7158 141.435 52.87C141.566 53.0238 141.729 53.1435 141.925 53.2285C142.123 53.3136 142.344 53.3566 142.586 53.3566C143.001 53.3566 143.382 53.2227 143.725 52.9551L144.001 53.3813ZM141.152 51.8293H143.649C143.622 51.6093 143.552 51.4173 143.439 51.254C143.327 51.0886 143.182 50.9595 143.003 50.8671C142.826 50.7747 142.626 50.7285 142.404 50.7285C142.179 50.7285 141.976 50.7747 141.794 50.8671C141.615 50.9595 141.469 51.0886 141.355 51.254C141.244 51.4173 141.176 51.6093 141.152 51.8293ZM146.835 53.818H146.24V50.2667H146.762L146.787 50.97C146.913 50.726 147.09 50.5369 147.317 50.402C147.547 50.2646 147.811 50.1958 148.109 50.1958C148.174 50.1958 148.241 50.1995 148.308 50.2064C148.376 50.2136 148.444 50.2242 148.512 50.2384L148.439 50.7642C148.306 50.7333 148.174 50.718 148.043 50.718C147.806 50.718 147.596 50.7747 147.412 50.8882C147.23 51.002 147.089 51.1584 146.987 51.3569C146.886 51.5558 146.835 51.7846 146.835 52.0424V53.818ZM153.322 53.818V48.4915H153.961V53.818H153.322ZM159.673 53.818H159.078V51.7689C159.078 51.4493 158.986 51.1962 158.802 51.0089C158.62 50.822 158.372 50.7285 158.058 50.7285C157.833 50.7285 157.631 50.7784 157.452 50.8776C157.273 50.9747 157.131 51.1122 157.027 51.2896C156.923 51.4671 156.871 51.6733 156.871 51.9075V53.818H156.276V50.2667H156.795L156.816 50.842C156.95 50.634 157.134 50.474 157.368 50.3627C157.605 50.2515 157.871 50.1958 158.167 50.1958C158.629 50.1958 158.996 50.3318 159.267 50.6042C159.538 50.8766 159.673 51.2435 159.673 51.7053V53.818ZM165.145 50.2667L163.618 53.818H163.04L161.516 50.2667H162.158L163.334 53.2071L164.514 50.2667H165.145ZM170.244 53.3813C169.794 53.7198 169.298 53.8889 168.756 53.8889C168.378 53.8889 168.04 53.8064 167.739 53.6405C167.439 53.4747 167.202 53.25 167.028 52.9656C166.856 52.6795 166.77 52.3562 166.77 51.9962C166.77 51.6507 166.85 51.3427 167.01 51.0729C167.17 50.8009 167.389 50.5864 167.667 50.4304C167.945 50.274 168.261 50.1958 168.614 50.1958C168.977 50.1958 169.297 50.2809 169.573 50.4515C169.851 50.622 170.067 50.8587 170.222 51.1616C170.377 51.4649 170.455 51.8151 170.455 52.2129V52.3264H167.416C167.46 52.5347 167.547 52.7158 167.678 52.87C167.809 53.0238 167.972 53.1435 168.168 53.2285C168.366 53.3136 168.587 53.3566 168.828 53.3566C169.245 53.3566 169.625 53.2227 169.968 52.9551L170.244 53.3813ZM167.395 51.8293H169.892C169.865 51.6093 169.795 51.4173 169.681 51.254C169.57 51.0886 169.425 50.9595 169.246 50.8671C169.069 50.7747 168.87 50.7285 168.647 50.7285C168.422 50.7285 168.219 50.7747 168.037 50.8671C167.858 50.9595 167.712 51.0886 167.598 51.254C167.487 51.4173 167.419 51.6093 167.395 51.8293ZM172.228 53.5089L172.384 52.9624C172.471 53.0427 172.571 53.1126 172.682 53.1718C172.793 53.2307 172.911 53.2769 173.034 53.3104C173.157 53.3409 173.282 53.3566 173.408 53.3566C173.633 53.3566 173.815 53.3078 173.952 53.2107C174.09 53.1136 174.16 52.9871 174.16 52.8307C174.16 52.7173 174.123 52.6238 174.051 52.5504C173.98 52.4744 173.887 52.4093 173.771 52.3551C173.655 52.3006 173.53 52.2485 173.397 52.1987C173.235 52.1373 173.074 52.0675 172.914 51.9893C172.755 51.9111 172.621 51.8082 172.515 51.6802C172.411 51.5526 172.359 51.3842 172.359 51.1758C172.359 50.9773 172.41 50.8042 172.511 50.6576C172.613 50.5107 172.755 50.3973 172.936 50.3166C173.12 50.2362 173.331 50.1958 173.568 50.1958C173.926 50.1958 174.278 50.2835 174.624 50.4587L174.446 50.9842C174.369 50.9344 174.279 50.8907 174.177 50.8529C174.076 50.8125 173.972 50.7816 173.865 50.7605C173.759 50.7391 173.658 50.7285 173.564 50.7285C173.388 50.7285 173.245 50.7689 173.136 50.8493C173.027 50.9275 172.972 51.0329 172.972 51.1653C172.972 51.2409 172.994 51.3111 173.038 51.3747C173.084 51.4366 173.16 51.498 173.266 51.5595C173.373 51.6209 173.521 51.6896 173.709 51.7656C173.876 51.8318 174.041 51.9075 174.203 51.9929C174.365 52.0755 174.499 52.1835 174.606 52.3158C174.715 52.446 174.769 52.6165 174.769 52.8271C174.769 53.0355 174.712 53.2202 174.598 53.3813C174.487 53.5398 174.331 53.6642 174.13 53.754C173.932 53.8442 173.702 53.8889 173.441 53.8889C173.008 53.8889 172.603 53.7624 172.228 53.5089ZM178.898 53.7329C178.659 53.8369 178.426 53.8889 178.198 53.8889C177.98 53.8889 177.789 53.8427 177.625 53.7507C177.46 53.6558 177.332 53.5246 177.24 53.3566C177.148 53.186 177.102 52.9882 177.102 52.7635V50.7889H176.467V50.2667H177.131V49.3791H177.697V50.2667H178.782V50.7889H177.697V52.6569C177.697 52.87 177.755 53.0416 177.871 53.1718C177.99 53.302 178.145 53.3671 178.336 53.3671C178.491 53.3671 178.646 53.322 178.801 53.2322L178.898 53.7329ZM186.523 53.818H185.928V51.9253C185.928 51.5442 185.842 51.2482 185.67 51.0376C185.501 50.8246 185.262 50.718 184.952 50.718C184.639 50.718 184.394 50.8256 184.215 51.0409C184.038 51.254 183.95 51.5489 183.95 51.9253V53.818H183.355V51.9253C183.355 51.5442 183.269 51.2482 183.097 51.0376C182.925 50.8246 182.684 50.718 182.375 50.718C182.063 50.718 181.817 50.8256 181.638 51.0409C181.461 51.254 181.373 51.5489 181.373 51.9253V53.818H180.778V50.2667H181.264L181.289 50.9024C181.41 50.6704 181.575 50.4955 181.783 50.3769C181.993 50.2562 182.242 50.1958 182.527 50.1958C182.832 50.1958 183.092 50.2635 183.307 50.3984C183.525 50.5307 183.688 50.7213 183.794 50.97C183.912 50.7165 184.08 50.5249 184.298 50.3947C184.519 50.262 184.781 50.1958 185.086 50.1958C185.539 50.1958 185.891 50.3366 186.142 50.6184C186.396 50.8976 186.523 51.2885 186.523 51.7904V53.818ZM191.952 53.3813C191.502 53.7198 191.006 53.8889 190.464 53.8889C190.086 53.8889 189.748 53.8064 189.448 53.6405C189.148 53.4747 188.91 53.25 188.736 52.9656C188.564 52.6795 188.479 52.3562 188.479 51.9962C188.479 51.6507 188.558 51.3427 188.718 51.0729C188.878 50.8009 189.097 50.5864 189.375 50.4304C189.653 50.274 189.969 50.1958 190.322 50.1958C190.686 50.1958 191.005 50.2809 191.281 50.4515C191.559 50.622 191.776 50.8587 191.93 51.1616C192.085 51.4649 192.163 51.8151 192.163 52.2129V52.3264H189.125C189.168 52.5347 189.255 52.7158 189.386 52.87C189.517 53.0238 189.68 53.1435 189.876 53.2285C190.075 53.3136 190.295 53.3566 190.537 53.3566C190.953 53.3566 191.333 53.2227 191.676 52.9551L191.952 53.3813ZM189.103 51.8293H191.6C191.573 51.6093 191.503 51.4173 191.39 51.254C191.278 51.0886 191.133 50.9595 190.954 50.8671C190.777 50.7747 190.578 50.7285 190.355 50.7285C190.13 50.7285 189.927 50.7747 189.745 50.8671C189.566 50.9595 189.42 51.0886 189.306 51.254C189.195 51.4173 189.127 51.6093 189.103 51.8293ZM197.588 53.818H196.993V51.7689C196.993 51.4493 196.901 51.1962 196.717 51.0089C196.535 50.822 196.288 50.7285 195.973 50.7285C195.748 50.7285 195.546 50.7784 195.367 50.8776C195.188 50.9747 195.046 51.1122 194.942 51.2896C194.838 51.4671 194.786 51.6733 194.786 51.9075V53.818H194.191V50.2667H194.71L194.731 50.842C194.864 50.634 195.048 50.474 195.283 50.3627C195.52 50.2515 195.787 50.1958 196.082 50.1958C196.544 50.1958 196.91 50.3318 197.181 50.6042C197.452 50.8766 197.588 51.2435 197.588 51.7053V53.818ZM201.863 53.7329C201.623 53.8369 201.39 53.8889 201.162 53.8889C200.944 53.8889 200.753 53.8427 200.589 53.7507C200.424 53.6558 200.296 53.5246 200.204 53.3566C200.112 53.186 200.066 52.9882 200.066 52.7635V50.7889H199.431V50.2667H200.095V49.3791H200.661V50.2667H201.746V50.7889H200.661V52.6569C200.661 52.87 200.719 53.0416 200.835 53.1718C200.954 53.302 201.109 53.3671 201.3 53.3671C201.455 53.3671 201.61 53.322 201.765 53.2322L201.863 53.7329ZM203.597 53.5089L203.752 52.9624C203.84 53.0427 203.939 53.1126 204.05 53.1718C204.162 53.2307 204.279 53.2769 204.402 53.3104C204.526 53.3409 204.65 53.3566 204.776 53.3566C205.001 53.3566 205.183 53.3078 205.321 53.2107C205.458 53.1136 205.528 52.9871 205.528 52.8307C205.528 52.7173 205.491 52.6238 205.419 52.5504C205.348 52.4744 205.255 52.4093 205.139 52.3551C205.023 52.3006 204.898 52.2485 204.765 52.1987C204.603 52.1373 204.442 52.0675 204.282 51.9893C204.123 51.9111 203.99 51.8082 203.883 51.6802C203.779 51.5526 203.727 51.3842 203.727 51.1758C203.727 50.9773 203.778 50.8042 203.88 50.6576C203.981 50.5107 204.123 50.3973 204.304 50.3166C204.488 50.2362 204.699 50.1958 204.936 50.1958C205.294 50.1958 205.646 50.2835 205.992 50.4587L205.814 50.9842C205.737 50.9344 205.647 50.8907 205.546 50.8529C205.444 50.8125 205.34 50.7816 205.234 50.7605C205.127 50.7391 205.027 50.7285 204.932 50.7285C204.756 50.7285 204.613 50.7689 204.504 50.8493C204.395 50.9275 204.34 51.0329 204.34 51.1653C204.34 51.2409 204.362 51.3111 204.406 51.3747C204.452 51.4366 204.528 51.498 204.634 51.5595C204.741 51.6209 204.889 51.6896 205.077 51.7656C205.244 51.8318 205.409 51.9075 205.571 51.9929C205.733 52.0755 205.868 52.1835 205.974 52.3158C206.083 52.446 206.137 52.6165 206.137 52.8271C206.137 53.0355 206.08 53.2202 205.967 53.3813C205.855 53.5398 205.699 53.6642 205.499 53.754C205.3 53.8442 205.07 53.8889 204.809 53.8889C204.376 53.8889 203.972 53.7624 203.597 53.5089Z" fill="white"/>
<path d="M30.2966 -8.85194e-05L0 29.4678L4.16714 33.5687L34.4638 4.10079L30.2966 -8.85194e-05Z" fill="white"/>
</g>
<defs>
<clipPath id="clip0_377_2">
<rect width="210" height="56" fill="white"/>
</clipPath>
</defs>
</svg>
