<svg width="396" height="121" viewBox="0 0 396 121" fill="none" xmlns="http://www.w3.org/2000/svg">
<rect width="396" height="121" fill="#7E7E7E" fill-opacity="0.06"/>
<path d="M74.2781 27.2V32.324C75.4541 32.436 76.5741 32.688 77.6381 33.08C78.7021 33.472 79.6261 33.962 80.4101 34.55C81.2221 35.138 81.8521 35.796 82.3001 36.524C82.7761 37.252 83.0141 38.008 83.0141 38.792C83.0141 39.52 82.8181 40.08 82.4261 40.472C82.0341 40.864 81.5021 41.06 80.8301 41.06C80.2141 41.06 79.7521 40.906 79.4441 40.598C79.1641 40.29 78.9401 39.912 78.7721 39.464C78.6041 38.988 78.4501 38.47 78.3101 37.91C78.1701 37.35 77.9601 36.832 77.6801 36.356C77.4001 35.852 76.9941 35.418 76.4621 35.054C75.9581 34.662 75.2301 34.41 74.2781 34.298V45.89C76.1261 46.702 77.6661 47.486 78.8981 48.242C80.1581 48.97 81.1801 49.74 81.9641 50.552C82.7481 51.336 83.3081 52.162 83.6441 53.03C83.9801 53.898 84.1481 54.85 84.1481 55.886C84.1481 57.202 83.9101 58.42 83.4341 59.54C82.9581 60.632 82.2861 61.598 81.4181 62.438C80.5501 63.25 79.5001 63.908 78.2681 64.412C77.0641 64.916 75.7341 65.224 74.2781 65.336V72.14H71.9681V65.378C70.5681 65.322 69.2381 65.098 67.9781 64.706C66.7181 64.314 65.5981 63.796 64.6181 63.152C63.6661 62.508 62.8961 61.752 62.3081 60.884C61.7481 59.988 61.4681 59.008 61.4681 57.944C61.4681 56.992 61.6781 56.32 62.0981 55.928C62.5181 55.536 62.9941 55.34 63.5261 55.34C64.0581 55.34 64.4781 55.508 64.7861 55.844C65.1221 56.152 65.3881 56.544 65.5841 57.02C65.7801 57.468 65.9341 57.944 66.0461 58.448C66.1581 58.952 66.2561 59.372 66.3401 59.708C66.4521 60.156 66.6201 60.59 66.8441 61.01C67.0961 61.402 67.4321 61.766 67.8521 62.102C68.3001 62.438 68.8461 62.718 69.4901 62.942C70.1621 63.138 70.9881 63.25 71.9681 63.278V50.678C70.9041 50.23 69.8541 49.754 68.8181 49.25C67.7821 48.746 66.8581 48.13 66.0461 47.402C65.2341 46.674 64.5761 45.806 64.0721 44.798C63.5681 43.79 63.3161 42.572 63.3161 41.144C63.3161 39.884 63.5121 38.736 63.9041 37.7C64.3241 36.636 64.9121 35.726 65.6681 34.97C66.4241 34.186 67.3341 33.57 68.3981 33.122C69.4621 32.646 70.6521 32.366 71.9681 32.282V27.2H74.2781ZM79.7801 57.902C79.7801 57.09 79.6261 56.376 79.3181 55.76C79.0381 55.116 78.6461 54.556 78.1421 54.08C77.6661 53.576 77.0921 53.142 76.4201 52.778C75.7481 52.386 75.0341 52.022 74.2781 51.686V63.194C76.1261 62.97 77.4981 62.396 78.3941 61.472C79.3181 60.52 79.7801 59.33 79.7801 57.902ZM67.2641 39.044C67.2641 40.22 67.6281 41.284 68.3561 42.236C69.1121 43.188 70.3161 44.07 71.9681 44.882V34.34C70.5121 34.564 69.3641 35.082 68.5241 35.894C67.6841 36.706 67.2641 37.756 67.2641 39.044ZM104.017 56.012C104.017 53.688 103.541 51.896 102.589 50.636C101.665 49.348 100.349 48.704 98.641 48.704C98.221 48.928 97.745 49.11 97.213 49.25C96.709 49.39 96.247 49.46 95.827 49.46C95.267 49.46 94.805 49.334 94.441 49.082C94.077 48.802 93.895 48.452 93.895 48.032C93.895 47.64 94.063 47.346 94.399 47.15C94.735 46.954 95.183 46.856 95.743 46.856C96.107 46.856 96.513 46.898 96.961 46.982C97.437 47.066 97.885 47.178 98.305 47.318C99.817 47.318 101.021 46.646 101.917 45.302C102.841 43.958 103.303 42.166 103.303 39.926C103.303 36.006 101.651 34.046 98.347 34.046C96.863 34.046 95.687 34.382 94.819 35.054C93.979 35.726 93.559 36.65 93.559 37.826C93.559 38.778 93.839 39.548 94.399 40.136C94.959 40.724 95.687 41.018 96.583 41.018C96.443 41.494 96.093 41.886 95.533 42.194C95.001 42.474 94.371 42.614 93.643 42.614C93.027 42.614 92.453 42.502 91.921 42.278C91.417 42.054 90.969 41.746 90.577 41.354C90.213 40.934 89.919 40.458 89.695 39.926C89.471 39.394 89.359 38.806 89.359 38.162C89.359 37.266 89.569 36.454 89.989 35.726C90.437 34.998 91.053 34.382 91.837 33.878C92.621 33.346 93.559 32.94 94.651 32.66C95.771 32.38 97.003 32.24 98.347 32.24C99.859 32.24 101.231 32.422 102.463 32.786C103.695 33.15 104.745 33.654 105.613 34.298C106.481 34.942 107.153 35.726 107.629 36.65C108.105 37.574 108.343 38.596 108.343 39.716C108.343 40.668 108.175 41.564 107.839 42.404C107.503 43.244 107.055 44.014 106.495 44.714C105.935 45.386 105.263 45.96 104.479 46.436C103.723 46.912 102.911 47.262 102.043 47.486V47.738C103.079 48.018 104.045 48.424 104.941 48.956C105.837 49.488 106.607 50.118 107.251 50.846C107.895 51.574 108.399 52.4 108.763 53.324C109.127 54.248 109.309 55.242 109.309 56.306C109.309 57.622 109.029 58.84 108.469 59.96C107.909 61.052 107.139 62.004 106.159 62.816C105.179 63.628 104.003 64.272 102.631 64.748C101.287 65.196 99.803 65.42 98.179 65.42C96.723 65.42 95.379 65.238 94.147 64.874C92.943 64.482 91.893 63.964 90.997 63.32C90.101 62.648 89.401 61.864 88.897 60.968C88.393 60.044 88.141 59.05 88.141 57.986C88.141 57.23 88.267 56.53 88.519 55.886C88.771 55.242 89.107 54.682 89.527 54.206C89.975 53.702 90.493 53.324 91.081 53.072C91.669 52.792 92.299 52.652 92.971 52.652C93.755 52.652 94.455 52.834 95.071 53.198C95.687 53.534 96.065 53.968 96.205 54.5C95.141 54.5 94.273 54.892 93.601 55.676C92.929 56.432 92.593 57.412 92.593 58.616C92.593 60.044 93.097 61.206 94.105 62.102C95.113 62.998 96.443 63.446 98.095 63.446C100.027 63.446 101.497 62.816 102.505 61.556C103.513 60.268 104.017 58.42 104.017 56.012ZM113.938 71.006C115.45 69.942 116.528 68.92 117.172 67.94C117.816 66.96 118.138 65.868 118.138 64.664C117.774 64.888 117.354 65 116.878 65C116.234 65 115.702 64.776 115.282 64.328C114.89 63.852 114.694 63.25 114.694 62.522C114.694 61.738 114.946 61.108 115.45 60.632C115.982 60.156 116.668 59.918 117.508 59.918C119.524 59.918 120.532 61.318 120.532 64.118C120.532 64.902 120.434 65.63 120.238 66.302C120.042 66.974 119.72 67.632 119.272 68.276C118.852 68.92 118.278 69.564 117.55 70.208C116.822 70.88 115.94 71.594 114.904 72.35L113.938 71.006ZM137.456 32.24C139.164 32.24 140.774 32.674 142.286 33.542C143.798 34.41 145.114 35.6 146.234 37.112C147.354 38.624 148.236 40.402 148.88 42.446C149.552 44.49 149.888 46.702 149.888 49.082C149.888 51.35 149.552 53.478 148.88 55.466C148.236 57.454 147.354 59.19 146.234 60.674C145.114 62.13 143.798 63.292 142.286 64.16C140.774 65 139.164 65.42 137.456 65.42C135.748 65.42 134.138 65 132.626 64.16C131.114 63.292 129.798 62.13 128.678 60.674C127.558 59.19 126.662 57.454 125.99 55.466C125.346 53.478 125.024 51.35 125.024 49.082C125.024 46.702 125.346 44.49 125.99 42.446C126.662 40.402 127.558 38.624 128.678 37.112C129.798 35.6 131.114 34.41 132.626 33.542C134.138 32.674 135.748 32.24 137.456 32.24ZM137.456 63.404C138.548 63.404 139.514 63.18 140.354 62.732C141.222 62.284 141.95 61.514 142.538 60.422C143.154 59.33 143.616 57.874 143.924 56.054C144.26 54.234 144.428 51.952 144.428 49.208C144.428 46.352 144.26 43.972 143.924 42.068C143.616 40.164 143.168 38.638 142.58 37.49C141.992 36.314 141.264 35.488 140.396 35.012C139.528 34.508 138.548 34.256 137.456 34.256C136.364 34.256 135.384 34.508 134.516 35.012C133.648 35.488 132.92 36.314 132.332 37.49C131.744 38.638 131.282 40.164 130.946 42.068C130.638 43.972 130.484 46.352 130.484 49.208C130.484 51.952 130.638 54.234 130.946 56.054C131.282 57.874 131.744 59.33 132.332 60.422C132.92 61.514 133.648 62.284 134.516 62.732C135.384 63.18 136.364 63.404 137.456 63.404ZM167.438 32.24C169.146 32.24 170.756 32.674 172.268 33.542C173.78 34.41 175.096 35.6 176.216 37.112C177.336 38.624 178.218 40.402 178.862 42.446C179.534 44.49 179.87 46.702 179.87 49.082C179.87 51.35 179.534 53.478 178.862 55.466C178.218 57.454 177.336 59.19 176.216 60.674C175.096 62.13 173.78 63.292 172.268 64.16C170.756 65 169.146 65.42 167.438 65.42C165.73 65.42 164.12 65 162.608 64.16C161.096 63.292 159.78 62.13 158.66 60.674C157.54 59.19 156.644 57.454 155.972 55.466C155.328 53.478 155.006 51.35 155.006 49.082C155.006 46.702 155.328 44.49 155.972 42.446C156.644 40.402 157.54 38.624 158.66 37.112C159.78 35.6 161.096 34.41 162.608 33.542C164.12 32.674 165.73 32.24 167.438 32.24ZM167.438 63.404C168.53 63.404 169.496 63.18 170.336 62.732C171.204 62.284 171.932 61.514 172.52 60.422C173.136 59.33 173.598 57.874 173.906 56.054C174.242 54.234 174.41 51.952 174.41 49.208C174.41 46.352 174.242 43.972 173.906 42.068C173.598 40.164 173.15 38.638 172.562 37.49C171.974 36.314 171.246 35.488 170.378 35.012C169.51 34.508 168.53 34.256 167.438 34.256C166.346 34.256 165.366 34.508 164.498 35.012C163.63 35.488 162.902 36.314 162.314 37.49C161.726 38.638 161.264 40.164 160.928 42.068C160.62 43.972 160.466 46.352 160.466 49.208C160.466 51.952 160.62 54.234 160.928 56.054C161.264 57.874 161.726 59.33 162.314 60.422C162.902 61.514 163.63 62.284 164.498 62.732C165.366 63.18 166.346 63.404 167.438 63.404ZM197.421 32.24C199.129 32.24 200.739 32.674 202.251 33.542C203.763 34.41 205.079 35.6 206.199 37.112C207.319 38.624 208.201 40.402 208.845 42.446C209.517 44.49 209.853 46.702 209.853 49.082C209.853 51.35 209.517 53.478 208.845 55.466C208.201 57.454 207.319 59.19 206.199 60.674C205.079 62.13 203.763 63.292 202.251 64.16C200.739 65 199.129 65.42 197.421 65.42C195.713 65.42 194.103 65 192.591 64.16C191.079 63.292 189.763 62.13 188.643 60.674C187.523 59.19 186.627 57.454 185.955 55.466C185.311 53.478 184.989 51.35 184.989 49.082C184.989 46.702 185.311 44.49 185.955 42.446C186.627 40.402 187.523 38.624 188.643 37.112C189.763 35.6 191.079 34.41 192.591 33.542C194.103 32.674 195.713 32.24 197.421 32.24ZM197.421 63.404C198.513 63.404 199.479 63.18 200.319 62.732C201.187 62.284 201.915 61.514 202.503 60.422C203.119 59.33 203.581 57.874 203.889 56.054C204.225 54.234 204.393 51.952 204.393 49.208C204.393 46.352 204.225 43.972 203.889 42.068C203.581 40.164 203.133 38.638 202.545 37.49C201.957 36.314 201.229 35.488 200.361 35.012C199.493 34.508 198.513 34.256 197.421 34.256C196.329 34.256 195.349 34.508 194.481 35.012C193.613 35.488 192.885 36.314 192.297 37.49C191.709 38.638 191.247 40.164 190.911 42.068C190.603 43.972 190.449 46.352 190.449 49.208C190.449 51.952 190.603 54.234 190.911 56.054C191.247 57.874 191.709 59.33 192.297 60.422C192.885 61.514 193.613 62.284 194.481 62.732C195.349 63.18 196.329 63.404 197.421 63.404ZM213.565 71.006C215.077 69.942 216.155 68.92 216.799 67.94C217.443 66.96 217.765 65.868 217.765 64.664C217.401 64.888 216.981 65 216.505 65C215.861 65 215.329 64.776 214.909 64.328C214.517 63.852 214.321 63.25 214.321 62.522C214.321 61.738 214.573 61.108 215.077 60.632C215.609 60.156 216.295 59.918 217.135 59.918C219.151 59.918 220.159 61.318 220.159 64.118C220.159 64.902 220.061 65.63 219.865 66.302C219.669 66.974 219.347 67.632 218.899 68.276C218.479 68.92 217.905 69.564 217.177 70.208C216.449 70.88 215.567 71.594 214.531 72.35L213.565 71.006ZM237.083 32.24C238.791 32.24 240.401 32.674 241.913 33.542C243.425 34.41 244.741 35.6 245.861 37.112C246.981 38.624 247.863 40.402 248.507 42.446C249.179 44.49 249.515 46.702 249.515 49.082C249.515 51.35 249.179 53.478 248.507 55.466C247.863 57.454 246.981 59.19 245.861 60.674C244.741 62.13 243.425 63.292 241.913 64.16C240.401 65 238.791 65.42 237.083 65.42C235.375 65.42 233.765 65 232.253 64.16C230.741 63.292 229.425 62.13 228.305 60.674C227.185 59.19 226.289 57.454 225.617 55.466C224.973 53.478 224.651 51.35 224.651 49.082C224.651 46.702 224.973 44.49 225.617 42.446C226.289 40.402 227.185 38.624 228.305 37.112C229.425 35.6 230.741 34.41 232.253 33.542C233.765 32.674 235.375 32.24 237.083 32.24ZM237.083 63.404C238.175 63.404 239.141 63.18 239.981 62.732C240.849 62.284 241.577 61.514 242.165 60.422C242.781 59.33 243.243 57.874 243.551 56.054C243.887 54.234 244.055 51.952 244.055 49.208C244.055 46.352 243.887 43.972 243.551 42.068C243.243 40.164 242.795 38.638 242.207 37.49C241.619 36.314 240.891 35.488 240.023 35.012C239.155 34.508 238.175 34.256 237.083 34.256C235.991 34.256 235.011 34.508 234.143 35.012C233.275 35.488 232.547 36.314 231.959 37.49C231.371 38.638 230.909 40.164 230.573 42.068C230.265 43.972 230.111 46.352 230.111 49.208C230.111 51.952 230.265 54.234 230.573 56.054C230.909 57.874 231.371 59.33 231.959 60.422C232.547 61.514 233.275 62.284 234.143 62.732C235.011 63.18 235.991 63.404 237.083 63.404ZM267.065 32.24C268.773 32.24 270.383 32.674 271.895 33.542C273.407 34.41 274.723 35.6 275.843 37.112C276.963 38.624 277.845 40.402 278.489 42.446C279.161 44.49 279.497 46.702 279.497 49.082C279.497 51.35 279.161 53.478 278.489 55.466C277.845 57.454 276.963 59.19 275.843 60.674C274.723 62.13 273.407 63.292 271.895 64.16C270.383 65 268.773 65.42 267.065 65.42C265.357 65.42 263.747 65 262.235 64.16C260.723 63.292 259.407 62.13 258.287 60.674C257.167 59.19 256.271 57.454 255.599 55.466C254.955 53.478 254.633 51.35 254.633 49.082C254.633 46.702 254.955 44.49 255.599 42.446C256.271 40.402 257.167 38.624 258.287 37.112C259.407 35.6 260.723 34.41 262.235 33.542C263.747 32.674 265.357 32.24 267.065 32.24ZM267.065 63.404C268.157 63.404 269.123 63.18 269.963 62.732C270.831 62.284 271.559 61.514 272.147 60.422C272.763 59.33 273.225 57.874 273.533 56.054C273.869 54.234 274.037 51.952 274.037 49.208C274.037 46.352 273.869 43.972 273.533 42.068C273.225 40.164 272.777 38.638 272.189 37.49C271.601 36.314 270.873 35.488 270.005 35.012C269.137 34.508 268.157 34.256 267.065 34.256C265.973 34.256 264.993 34.508 264.125 35.012C263.257 35.488 262.529 36.314 261.941 37.49C261.353 38.638 260.891 40.164 260.555 42.068C260.247 43.972 260.093 46.352 260.093 49.208C260.093 51.952 260.247 54.234 260.555 56.054C260.891 57.874 261.353 59.33 261.941 60.422C262.529 61.514 263.257 62.284 264.125 62.732C264.993 63.18 265.973 63.404 267.065 63.404ZM297.048 32.24C298.756 32.24 300.366 32.674 301.878 33.542C303.39 34.41 304.706 35.6 305.826 37.112C306.946 38.624 307.828 40.402 308.472 42.446C309.144 44.49 309.48 46.702 309.48 49.082C309.48 51.35 309.144 53.478 308.472 55.466C307.828 57.454 306.946 59.19 305.826 60.674C304.706 62.13 303.39 63.292 301.878 64.16C300.366 65 298.756 65.42 297.048 65.42C295.34 65.42 293.73 65 292.218 64.16C290.706 63.292 289.39 62.13 288.27 60.674C287.15 59.19 286.254 57.454 285.582 55.466C284.938 53.478 284.616 51.35 284.616 49.082C284.616 46.702 284.938 44.49 285.582 42.446C286.254 40.402 287.15 38.624 288.27 37.112C289.39 35.6 290.706 34.41 292.218 33.542C293.73 32.674 295.34 32.24 297.048 32.24ZM297.048 63.404C298.14 63.404 299.106 63.18 299.946 62.732C300.814 62.284 301.542 61.514 302.13 60.422C302.746 59.33 303.208 57.874 303.516 56.054C303.852 54.234 304.02 51.952 304.02 49.208C304.02 46.352 303.852 43.972 303.516 42.068C303.208 40.164 302.76 38.638 302.172 37.49C301.584 36.314 300.856 35.488 299.988 35.012C299.12 34.508 298.14 34.256 297.048 34.256C295.956 34.256 294.976 34.508 294.108 35.012C293.24 35.488 292.512 36.314 291.924 37.49C291.336 38.638 290.874 40.164 290.538 42.068C290.23 43.972 290.076 46.352 290.076 49.208C290.076 51.952 290.23 54.234 290.538 56.054C290.874 57.874 291.336 59.33 291.924 60.422C292.512 61.514 293.24 62.284 294.108 62.732C294.976 63.18 295.956 63.404 297.048 63.404ZM322.494 60.632V51.854H313.758V49.754H322.494V40.976H324.678V49.754H333.414V51.854H324.678V60.632H322.494Z" fill="#001842"/>
<path d="M68.7405 80.4H69.8385V88.32C69.8385 89.232 70.0005 89.976 70.3245 90.552C70.6485 91.116 71.0805 91.53 71.6205 91.794C72.1725 92.046 72.7845 92.172 73.4565 92.172C74.1285 92.172 74.7285 92.046 75.2565 91.794C75.7965 91.53 76.2225 91.116 76.5345 90.552C76.8585 89.976 77.0205 89.232 77.0205 88.32V80.4H78.1185V88.302C78.1185 89.142 77.9925 89.868 77.7405 90.48C77.5005 91.08 77.1645 91.578 76.7325 91.974C76.3005 92.358 75.8025 92.646 75.2385 92.838C74.6745 93.03 74.0745 93.126 73.4385 93.126C72.5865 93.126 71.8065 92.958 71.0985 92.622C70.3905 92.274 69.8205 91.746 69.3885 91.038C68.9565 90.33 68.7405 89.418 68.7405 88.302V80.4ZM82.0147 90.912L82.1047 90.876V96.6H81.0787V84H82.0327L82.1047 85.98C82.3567 85.392 82.7647 84.894 83.3287 84.486C83.9047 84.078 84.6367 83.874 85.5247 83.874C86.3287 83.874 87.0427 84.066 87.6667 84.45C88.2907 84.822 88.7767 85.356 89.1247 86.052C89.4847 86.736 89.6647 87.552 89.6647 88.5C89.6647 89.436 89.4907 90.252 89.1427 90.948C88.8067 91.632 88.3267 92.166 87.7027 92.55C87.0907 92.934 86.3647 93.126 85.5247 93.126C84.6127 93.126 83.8567 92.916 83.2567 92.496C82.6687 92.064 82.2547 91.536 82.0147 90.912ZM88.5667 88.5C88.5667 87.372 88.2727 86.478 87.6847 85.818C87.0967 85.158 86.3107 84.828 85.3267 84.828C84.7027 84.828 84.1447 84.978 83.6527 85.278C83.1607 85.578 82.7767 86.004 82.5007 86.556C82.2367 87.096 82.1047 87.744 82.1047 88.5C82.1047 89.244 82.2427 89.892 82.5187 90.444C82.7947 90.996 83.1727 91.422 83.6527 91.722C84.1447 92.022 84.7087 92.172 85.3447 92.172C86.3287 92.172 87.1087 91.842 87.6847 91.182C88.2727 90.522 88.5667 89.628 88.5667 88.5ZM92.5 82.884C92.5 82.248 92.602 81.708 92.806 81.264C93.01 80.808 93.34 80.478 93.796 80.274C94.264 80.058 94.882 79.98 95.65 80.04V80.976C94.846 80.916 94.288 81.054 93.976 81.39C93.676 81.714 93.526 82.212 93.526 82.884V84H95.704V84.972H93.526V93H92.5V84.972H91.132V84H92.5V82.884ZM97.7955 84H98.7495L98.8035 85.602C99.0075 85.23 99.2835 84.906 99.6315 84.63C99.9795 84.354 100.375 84.156 100.819 84.036C101.263 83.916 101.749 83.904 102.277 84V85.026C101.761 84.918 101.293 84.924 100.873 85.044C100.453 85.152 100.087 85.35 99.7755 85.638C99.4755 85.926 99.2415 86.286 99.0735 86.718C98.9055 87.15 98.8215 87.642 98.8215 88.194V93H97.7955V84ZM108.01 93.126C107.17 93.126 106.414 92.94 105.742 92.568C105.082 92.196 104.56 91.668 104.176 90.984C103.804 90.288 103.618 89.466 103.618 88.518C103.618 87.558 103.81 86.73 104.194 86.034C104.578 85.338 105.1 84.804 105.76 84.432C106.432 84.06 107.194 83.874 108.046 83.874C108.886 83.874 109.636 84.06 110.296 84.432C110.968 84.804 111.496 85.338 111.88 86.034C112.264 86.718 112.456 87.534 112.456 88.482C112.456 89.442 112.258 90.27 111.862 90.966C111.478 91.662 110.95 92.196 110.278 92.568C109.618 92.94 108.862 93.126 108.01 93.126ZM108.01 92.154C108.586 92.154 109.126 92.028 109.63 91.776C110.146 91.512 110.56 91.11 110.872 90.57C111.196 90.03 111.358 89.34 111.358 88.5C111.358 87.66 111.196 86.97 110.872 86.43C110.56 85.89 110.152 85.494 109.648 85.242C109.144 84.978 108.604 84.846 108.028 84.846C107.452 84.846 106.912 84.978 106.408 85.242C105.904 85.494 105.496 85.89 105.184 86.43C104.872 86.97 104.716 87.66 104.716 88.5C104.716 89.34 104.872 90.03 105.184 90.57C105.496 91.11 105.898 91.512 106.39 91.776C106.894 92.028 107.434 92.154 108.01 92.154ZM114.758 84H115.712L115.766 85.638C116.018 85.086 116.39 84.654 116.882 84.342C117.386 84.03 117.998 83.874 118.718 83.874C119.39 83.874 119.984 84.024 120.5 84.324C121.028 84.612 121.436 85.05 121.724 85.638C122.024 86.214 122.174 86.952 122.174 87.852V93H121.148V87.96C121.148 86.94 120.92 86.16 120.464 85.62C120.008 85.08 119.372 84.81 118.556 84.81C117.692 84.81 117.014 85.098 116.522 85.674C116.03 86.25 115.784 87.108 115.784 88.248V93H114.758V84ZM125.495 84V81.48H126.521V84H129.041V84.954H126.521V90.264C126.521 90.792 126.641 91.2 126.881 91.488C127.133 91.776 127.451 91.962 127.835 92.046C128.219 92.118 128.621 92.118 129.041 92.046V92.928C128.609 93.036 128.177 93.066 127.745 93.018C127.325 92.97 126.941 92.838 126.593 92.622C126.257 92.394 125.987 92.088 125.783 91.704C125.591 91.32 125.495 90.84 125.495 90.264V84.954H124.091V84H125.495ZM136.744 82.884C136.744 82.248 136.846 81.708 137.05 81.264C137.254 80.808 137.584 80.478 138.04 80.274C138.508 80.058 139.126 79.98 139.894 80.04V80.976C139.09 80.916 138.532 81.054 138.22 81.39C137.92 81.714 137.77 82.212 137.77 82.884V84H139.948V84.972H137.77V93H136.744V84.972H135.376V84H136.744V82.884ZM149.294 93H148.34L148.286 91.398C148.034 91.95 147.662 92.376 147.17 92.676C146.678 92.976 146.066 93.126 145.334 93.126C144.662 93.126 144.062 92.988 143.534 92.712C143.018 92.424 142.616 91.992 142.328 91.416C142.04 90.828 141.896 90.09 141.896 89.202V84H142.904V89.112C142.904 90.132 143.126 90.9 143.57 91.416C144.026 91.92 144.668 92.172 145.496 92.172C146.348 92.172 147.02 91.896 147.512 91.344C148.016 90.792 148.268 89.952 148.268 88.824V84H149.294V93ZM152.147 84H153.101L153.155 85.638C153.407 85.086 153.779 84.654 154.271 84.342C154.775 84.03 155.387 83.874 156.107 83.874C156.779 83.874 157.373 84.024 157.889 84.324C158.417 84.612 158.825 85.05 159.113 85.638C159.413 86.214 159.563 86.952 159.563 87.852V93H158.537V87.96C158.537 86.94 158.309 86.16 157.853 85.62C157.397 85.08 156.761 84.81 155.945 84.81C155.081 84.81 154.403 85.098 153.911 85.674C153.419 86.25 153.173 87.108 153.173 88.248V93H152.147V84ZM169.364 86.088L169.274 86.124V80.04H170.3V93H169.346L169.274 91.02C169.022 91.608 168.602 92.106 168.014 92.514C167.438 92.922 166.718 93.126 165.854 93.126C165.026 93.126 164.3 92.94 163.676 92.568C163.052 92.184 162.566 91.644 162.218 90.948C161.882 90.252 161.714 89.436 161.714 88.5C161.714 87.564 161.882 86.754 162.218 86.07C162.566 85.374 163.052 84.834 163.676 84.45C164.3 84.066 165.026 83.874 165.854 83.874C166.766 83.874 167.516 84.09 168.104 84.522C168.692 84.942 169.112 85.464 169.364 86.088ZM162.812 88.5C162.812 89.628 163.1 90.522 163.676 91.182C164.264 91.842 165.056 92.172 166.052 92.172C166.676 92.172 167.228 92.022 167.708 91.722C168.2 91.422 168.584 91.002 168.86 90.462C169.136 89.91 169.274 89.256 169.274 88.5C169.274 87.744 169.136 87.096 168.86 86.556C168.584 86.004 168.2 85.578 167.708 85.278C167.228 84.978 166.676 84.828 166.052 84.828C165.056 84.828 164.264 85.158 163.676 85.818C163.1 86.478 162.812 87.372 162.812 88.5ZM173.549 90.372C173.633 90.768 173.771 91.098 173.963 91.362C174.167 91.626 174.437 91.824 174.773 91.956C175.109 92.088 175.511 92.154 175.979 92.154C176.723 92.154 177.281 92.01 177.653 91.722C178.037 91.422 178.229 91.05 178.229 90.606C178.229 90.234 178.115 89.94 177.887 89.724C177.671 89.508 177.383 89.334 177.023 89.202C176.663 89.07 176.273 88.956 175.853 88.86C175.565 88.788 175.241 88.704 174.881 88.608C174.521 88.512 174.173 88.38 173.837 88.212C173.513 88.032 173.243 87.804 173.027 87.528C172.823 87.24 172.721 86.862 172.721 86.394C172.721 85.89 172.859 85.452 173.135 85.08C173.411 84.696 173.789 84.402 174.269 84.198C174.761 83.982 175.319 83.874 175.943 83.874C176.687 83.874 177.347 84.036 177.923 84.36C178.499 84.684 178.895 85.2 179.111 85.908L178.157 86.232C178.049 85.848 177.869 85.56 177.617 85.368C177.377 85.164 177.107 85.026 176.807 84.954C176.507 84.882 176.213 84.846 175.925 84.846C175.289 84.846 174.779 84.978 174.395 85.242C174.011 85.494 173.819 85.86 173.819 86.34C173.819 86.616 173.885 86.844 174.017 87.024C174.149 87.204 174.323 87.348 174.539 87.456C174.767 87.564 175.025 87.654 175.313 87.726C175.601 87.798 175.901 87.87 176.213 87.942C176.561 88.026 176.915 88.128 177.275 88.248C177.635 88.368 177.971 88.524 178.283 88.716C178.595 88.908 178.847 89.154 179.039 89.454C179.231 89.754 179.327 90.132 179.327 90.588C179.327 91.104 179.183 91.554 178.895 91.938C178.619 92.322 178.229 92.616 177.725 92.82C177.233 93.024 176.651 93.126 175.979 93.126C175.067 93.126 174.317 92.928 173.729 92.532C173.153 92.124 172.769 91.512 172.577 90.696L173.549 90.372ZM187.589 90.912L187.679 90.876V96.6H186.653V84H187.607L187.679 85.98C187.931 85.392 188.339 84.894 188.903 84.486C189.479 84.078 190.211 83.874 191.099 83.874C191.903 83.874 192.617 84.066 193.241 84.45C193.865 84.822 194.351 85.356 194.699 86.052C195.059 86.736 195.239 87.552 195.239 88.5C195.239 89.436 195.065 90.252 194.717 90.948C194.381 91.632 193.901 92.166 193.277 92.55C192.665 92.934 191.939 93.126 191.099 93.126C190.187 93.126 189.431 92.916 188.831 92.496C188.243 92.064 187.829 91.536 187.589 90.912ZM194.141 88.5C194.141 87.372 193.847 86.478 193.259 85.818C192.671 85.158 191.885 84.828 190.901 84.828C190.277 84.828 189.719 84.978 189.227 85.278C188.735 85.578 188.351 86.004 188.075 86.556C187.811 87.096 187.679 87.744 187.679 88.5C187.679 89.244 187.817 89.892 188.093 90.444C188.369 90.996 188.747 91.422 189.227 91.722C189.719 92.022 190.283 92.172 190.919 92.172C191.903 92.172 192.683 91.842 193.259 91.182C193.847 90.522 194.141 89.628 194.141 88.5ZM197.516 84H198.47L198.524 85.602C198.728 85.23 199.004 84.906 199.352 84.63C199.7 84.354 200.096 84.156 200.54 84.036C200.984 83.916 201.47 83.904 201.998 84V85.026C201.482 84.918 201.014 84.924 200.594 85.044C200.174 85.152 199.808 85.35 199.496 85.638C199.196 85.926 198.962 86.286 198.794 86.718C198.626 87.15 198.542 87.642 198.542 88.194V93H197.516V84ZM207.731 93.126C206.891 93.126 206.135 92.94 205.463 92.568C204.803 92.196 204.281 91.668 203.897 90.984C203.525 90.288 203.339 89.466 203.339 88.518C203.339 87.558 203.531 86.73 203.915 86.034C204.299 85.338 204.821 84.804 205.481 84.432C206.153 84.06 206.915 83.874 207.767 83.874C208.607 83.874 209.357 84.06 210.017 84.432C210.689 84.804 211.217 85.338 211.601 86.034C211.985 86.718 212.177 87.534 212.177 88.482C212.177 89.442 211.979 90.27 211.583 90.966C211.199 91.662 210.671 92.196 209.999 92.568C209.339 92.94 208.583 93.126 207.731 93.126ZM207.731 92.154C208.307 92.154 208.847 92.028 209.351 91.776C209.867 91.512 210.281 91.11 210.593 90.57C210.917 90.03 211.079 89.34 211.079 88.5C211.079 87.66 210.917 86.97 210.593 86.43C210.281 85.89 209.873 85.494 209.369 85.242C208.865 84.978 208.325 84.846 207.749 84.846C207.173 84.846 206.633 84.978 206.129 85.242C205.625 85.494 205.217 85.89 204.905 86.43C204.593 86.97 204.437 87.66 204.437 88.5C204.437 89.34 204.593 90.03 204.905 90.57C205.217 91.11 205.619 91.512 206.111 91.776C206.615 92.028 207.155 92.154 207.731 92.154ZM214.623 84L217.719 91.794L220.815 84H221.895L218.223 93H217.179L213.525 84H214.623ZM224.047 84H225.055V93H224.047V84ZM224.569 81.984C224.341 81.984 224.155 81.912 224.011 81.768C223.867 81.624 223.795 81.444 223.795 81.228C223.795 81 223.867 80.814 224.011 80.67C224.155 80.526 224.341 80.454 224.569 80.454C224.773 80.454 224.947 80.526 225.091 80.67C225.247 80.814 225.325 81 225.325 81.228C225.325 81.444 225.247 81.624 225.091 81.768C224.947 81.912 224.773 81.984 224.569 81.984ZM235.264 86.088L235.174 86.124V80.04H236.2V93H235.246L235.174 91.02C234.922 91.608 234.502 92.106 233.914 92.514C233.338 92.922 232.618 93.126 231.754 93.126C230.926 93.126 230.2 92.94 229.576 92.568C228.952 92.184 228.466 91.644 228.118 90.948C227.782 90.252 227.614 89.436 227.614 88.5C227.614 87.564 227.782 86.754 228.118 86.07C228.466 85.374 228.952 84.834 229.576 84.45C230.2 84.066 230.926 83.874 231.754 83.874C232.666 83.874 233.416 84.09 234.004 84.522C234.592 84.942 235.012 85.464 235.264 86.088ZM228.712 88.5C228.712 89.628 229 90.522 229.576 91.182C230.164 91.842 230.956 92.172 231.952 92.172C232.576 92.172 233.128 92.022 233.608 91.722C234.1 91.422 234.484 91.002 234.76 90.462C235.036 89.91 235.174 89.256 235.174 88.5C235.174 87.744 235.036 87.096 234.76 86.556C234.484 86.004 234.1 85.578 233.608 85.278C233.128 84.978 232.576 84.828 231.952 84.828C230.956 84.828 230.164 85.158 229.576 85.818C229 86.478 228.712 87.372 228.712 88.5ZM242.743 93.126C241.903 93.126 241.159 92.928 240.511 92.532C239.875 92.124 239.377 91.566 239.017 90.858C238.657 90.15 238.477 89.334 238.477 88.41C238.477 87.534 238.657 86.754 239.017 86.07C239.389 85.386 239.893 84.852 240.529 84.468C241.165 84.072 241.891 83.874 242.707 83.874C243.511 83.874 244.225 84.054 244.849 84.414C245.485 84.762 245.977 85.248 246.325 85.872C246.685 86.484 246.859 87.186 246.847 87.978C246.847 88.098 246.841 88.23 246.829 88.374C246.829 88.506 246.823 88.65 246.811 88.806H239.593C239.605 89.466 239.749 90.048 240.025 90.552C240.301 91.056 240.667 91.452 241.123 91.74C241.591 92.016 242.119 92.154 242.707 92.154C243.451 92.154 244.087 92.004 244.615 91.704C245.155 91.392 245.545 90.954 245.785 90.39L246.667 90.75C246.331 91.518 245.821 92.106 245.137 92.514C244.453 92.922 243.655 93.126 242.743 93.126ZM245.731 87.906C245.743 87.306 245.623 86.778 245.371 86.322C245.119 85.866 244.759 85.506 244.291 85.242C243.835 84.978 243.295 84.846 242.671 84.846C242.119 84.846 241.621 84.978 241.177 85.242C240.733 85.506 240.367 85.872 240.079 86.34C239.803 86.796 239.641 87.318 239.593 87.906H245.731ZM256.217 86.088L256.127 86.124V80.04H257.153V93H256.199L256.127 91.02C255.875 91.608 255.455 92.106 254.867 92.514C254.291 92.922 253.571 93.126 252.707 93.126C251.879 93.126 251.153 92.94 250.529 92.568C249.905 92.184 249.419 91.644 249.071 90.948C248.735 90.252 248.567 89.436 248.567 88.5C248.567 87.564 248.735 86.754 249.071 86.07C249.419 85.374 249.905 84.834 250.529 84.45C251.153 84.066 251.879 83.874 252.707 83.874C253.619 83.874 254.369 84.09 254.957 84.522C255.545 84.942 255.965 85.464 256.217 86.088ZM249.665 88.5C249.665 89.628 249.953 90.522 250.529 91.182C251.117 91.842 251.909 92.172 252.905 92.172C253.529 92.172 254.081 92.022 254.561 91.722C255.053 91.422 255.437 91.002 255.713 90.462C255.989 89.91 256.127 89.256 256.127 88.5C256.127 87.744 255.989 87.096 255.713 86.556C255.437 86.004 255.053 85.578 254.561 85.278C254.081 84.978 253.529 84.828 252.905 84.828C251.909 84.828 251.117 85.158 250.529 85.818C249.953 86.478 249.665 87.372 249.665 88.5ZM265.303 84H266.311V93H265.303V84ZM265.825 81.984C265.597 81.984 265.411 81.912 265.267 81.768C265.123 81.624 265.051 81.444 265.051 81.228C265.051 81 265.123 80.814 265.267 80.67C265.411 80.526 265.597 80.454 265.825 80.454C266.029 80.454 266.203 80.526 266.347 80.67C266.503 80.814 266.581 81 266.581 81.228C266.581 81.444 266.503 81.624 266.347 81.768C266.203 81.912 266.029 81.984 265.825 81.984ZM269.446 84H270.4L270.454 85.638C270.706 85.086 271.078 84.654 271.57 84.342C272.074 84.03 272.686 83.874 273.406 83.874C274.078 83.874 274.672 84.024 275.188 84.324C275.716 84.612 276.124 85.05 276.412 85.638C276.712 86.214 276.862 86.952 276.862 87.852V93H275.836V87.96C275.836 86.94 275.608 86.16 275.152 85.62C274.696 85.08 274.06 84.81 273.244 84.81C272.38 84.81 271.702 85.098 271.21 85.674C270.718 86.25 270.472 87.108 270.472 88.248V93H269.446V84ZM284.255 92.208L288.215 88.5C288.983 87.78 289.595 87.162 290.051 86.646C290.507 86.13 290.831 85.656 291.023 85.224C291.227 84.792 291.329 84.336 291.329 83.856C291.329 83.076 291.089 82.446 290.609 81.966C290.129 81.486 289.439 81.246 288.539 81.246C287.879 81.246 287.321 81.39 286.865 81.678C286.421 81.954 286.079 82.338 285.839 82.83C285.599 83.31 285.479 83.868 285.479 84.504H284.417C284.429 83.592 284.615 82.824 284.975 82.2C285.335 81.576 285.821 81.102 286.433 80.778C287.057 80.442 287.759 80.274 288.539 80.274C289.343 80.274 290.033 80.424 290.609 80.724C291.197 81.024 291.647 81.444 291.959 81.984C292.271 82.512 292.427 83.136 292.427 83.856C292.427 84.396 292.325 84.918 292.121 85.422C291.917 85.914 291.569 86.454 291.077 87.042C290.585 87.618 289.913 88.302 289.061 89.094L285.929 92.046H292.805V93H284.255V92.208ZM295.299 86.7C295.299 85.776 295.359 84.924 295.479 84.144C295.599 83.364 295.815 82.686 296.127 82.11C296.439 81.522 296.877 81.072 297.441 80.76C298.005 80.436 298.725 80.274 299.601 80.274C300.477 80.274 301.191 80.436 301.743 80.76C302.307 81.072 302.745 81.522 303.057 82.11C303.369 82.686 303.585 83.364 303.705 84.144C303.837 84.924 303.903 85.776 303.903 86.7C303.903 87.636 303.837 88.494 303.705 89.274C303.585 90.054 303.369 90.738 303.057 91.326C302.745 91.902 302.307 92.346 301.743 92.658C301.191 92.97 300.477 93.126 299.601 93.126C298.725 93.126 298.005 92.97 297.441 92.658C296.877 92.334 296.439 91.884 296.127 91.308C295.815 90.732 295.599 90.054 295.479 89.274C295.359 88.482 295.299 87.624 295.299 86.7ZM302.805 86.7C302.805 85.944 302.763 85.236 302.679 84.576C302.607 83.916 302.463 83.34 302.247 82.848C302.043 82.344 301.725 81.954 301.293 81.678C300.873 81.39 300.309 81.246 299.601 81.246C298.905 81.246 298.341 81.39 297.909 81.678C297.489 81.954 297.165 82.344 296.937 82.848C296.721 83.34 296.577 83.916 296.505 84.576C296.433 85.236 296.397 85.944 296.397 86.7C296.397 87.48 296.433 88.2 296.505 88.86C296.577 89.52 296.721 90.102 296.937 90.606C297.165 91.098 297.489 91.482 297.909 91.758C298.341 92.022 298.905 92.154 299.601 92.154C300.309 92.154 300.873 92.022 301.293 91.758C301.725 91.482 302.043 91.098 302.247 90.606C302.463 90.102 302.607 89.52 302.679 88.86C302.763 88.2 302.805 87.48 302.805 86.7ZM306.246 92.208L310.206 88.5C310.974 87.78 311.586 87.162 312.042 86.646C312.498 86.13 312.822 85.656 313.014 85.224C313.218 84.792 313.32 84.336 313.32 83.856C313.32 83.076 313.08 82.446 312.6 81.966C312.12 81.486 311.43 81.246 310.53 81.246C309.87 81.246 309.312 81.39 308.856 81.678C308.412 81.954 308.07 82.338 307.83 82.83C307.59 83.31 307.47 83.868 307.47 84.504H306.408C306.42 83.592 306.606 82.824 306.966 82.2C307.326 81.576 307.812 81.102 308.424 80.778C309.048 80.442 309.75 80.274 310.53 80.274C311.334 80.274 312.024 80.424 312.6 80.724C313.188 81.024 313.638 81.444 313.95 81.984C314.262 82.512 314.418 83.136 314.418 83.856C314.418 84.396 314.316 84.918 314.112 85.422C313.908 85.914 313.56 86.454 313.068 87.042C312.576 87.618 311.904 88.302 311.052 89.094L307.92 92.046H314.796V93H306.246V92.208ZM323.68 89.868H316.804V89.04L323.482 80.4H324.76V88.914H326.722V89.868H324.76V93H323.68V89.868ZM323.698 88.914V81.624L318.082 88.914H323.698Z" fill="#001842"/>
</svg>
