<svg width="44" height="44" viewBox="0 0 44 44" fill="none" xmlns="http://www.w3.org/2000/svg">
<path d="M32.9998 33C37.0499 33 40.3332 26.4335 40.3332 18.3334C40.3332 10.2332 37.0499 3.66669 32.9998 3.66669C28.9497 3.66669 25.6665 10.2332 25.6665 18.3334C25.6665 26.4335 28.9497 33 32.9998 33Z" stroke="#001842" stroke-width="1.5" stroke-linecap="round" stroke-linejoin="round"/>
<path d="M32.9998 3.66669C27.311 3.66669 15.519 8.02635 8.74667 10.7324C5.64467 11.9717 3.6665 14.993 3.6665 18.3334C3.6665 21.6737 5.6465 24.695 8.74667 25.9344C15.519 28.6404 27.311 33 32.9998 33M20.1665 40.3334L16.6043 38.3717C14.7026 37.3192 13.16 35.7208 12.1757 33.7829C11.1914 31.845 10.8105 29.6565 11.0823 27.5" stroke="#001842" stroke-width="1.5" stroke-linecap="round" stroke-linejoin="round"/>
</svg>
