<svg width="44" height="44" viewBox="0 0 44 44" fill="none" xmlns="http://www.w3.org/2000/svg">
<path d="M27.5 38.5V23.8333C27.5 23.3471 27.3068 22.8808 26.963 22.537C26.6192 22.1932 26.1529 22 25.6667 22H18.3333C17.8471 22 17.3808 22.1932 17.037 22.537C16.6932 22.8808 16.5 23.3471 16.5 23.8333V38.5" stroke="#001842" stroke-width="2" stroke-linecap="round" stroke-linejoin="round"/>
<path d="M5.5 18.3333C5.49987 17.7999 5.61611 17.273 5.84061 16.7891C6.06511 16.3053 6.39246 15.8763 6.79983 15.532L19.6332 4.53382C20.295 3.97448 21.1335 3.6676 22 3.6676C22.8665 3.6676 23.705 3.97448 24.3668 4.53382L37.2002 15.532C37.6075 15.8763 37.9349 16.3053 38.1594 16.7891C38.3839 17.273 38.5001 17.7999 38.5 18.3333V34.8333C38.5 35.8058 38.1137 36.7384 37.4261 37.426C36.7384 38.1137 35.8058 38.5 34.8333 38.5H9.16667C8.19421 38.5 7.26158 38.1137 6.57394 37.426C5.88631 36.7384 5.5 35.8058 5.5 34.8333V18.3333Z" stroke="#001842" stroke-width="2" stroke-linecap="round" stroke-linejoin="round"/>
</svg>
