<svg width="44" height="44" viewBox="0 0 44 44" fill="none" xmlns="http://www.w3.org/2000/svg">
<path d="M12.375 24.9502H20.625C23.2361 24.9502 25.7324 26.0402 27.5117 27.9453L25.7607 29.5127C25.2088 28.9297 24.5635 28.4437 23.8496 28.0781L23.5137 27.917C22.6049 27.5105 21.6205 27.2998 20.625 27.2998H12.375C8.47367 27.2998 5.2998 30.4737 5.2998 34.375V41.0498H2.9502V34.375C2.9502 29.178 7.17796 24.9502 12.375 24.9502ZM41.0498 27.7002V35.5498H38.7002V31.7109L38.3584 32.0527L32.4561 37.9561C32.2357 38.1763 31.9366 38.2998 31.625 38.2998C31.3526 38.2998 31.0899 38.2052 30.8809 38.0342L30.7939 37.9561L27.6426 34.8027L27.501 34.6611L27.3604 34.8027L21.1943 40.9668L19.5332 39.3057L26.6709 32.1689C26.8633 31.9766 27.1155 31.8581 27.3838 31.8311L27.5 31.8252H27.5029C27.7752 31.8256 28.0374 31.9206 28.2461 32.0918L28.332 32.1689L31.4834 35.3223L31.625 35.4639L37.0391 30.0498H33.2002V27.7002H41.0498ZM16.5 2.9502C18.8436 2.9502 21.0972 3.82294 22.8262 5.38867L23.1641 5.71094C24.9316 7.47847 25.9248 9.87533 25.9248 12.375C25.9248 14.7186 25.0521 16.9722 23.4863 18.7012L23.1641 19.0391C21.3965 20.8066 18.9997 21.7998 16.5 21.7998C14.1564 21.7998 11.9028 20.9271 10.1738 19.3613L9.83594 19.0391C8.06841 17.2715 7.0752 14.8747 7.0752 12.375C7.0752 10.0314 7.94795 7.77781 9.51367 6.04883L9.83594 5.71094C11.6035 3.94341 14.0003 2.9502 16.5 2.9502ZM36.9248 2.9502V5.7002H41.0498V8.0498H32.7998V11.2002H38.5C39.9061 11.2002 41.0498 12.3451 41.0498 13.75V16.5C41.0498 17.9062 39.9062 19.0498 38.5 19.0498H36.9248V21.7998H34.5752V19.0498H30.4502V16.7002H38.7002V13.5498H33C31.5938 13.5498 30.4502 12.4062 30.4502 11V8.25C30.4502 6.84514 31.5939 5.7002 33 5.7002H34.5752V2.9502H36.9248ZM16.5 5.2998C14.7408 5.2998 13.0488 5.9547 11.751 7.12988L11.4971 7.37207C10.1702 8.69889 9.4248 10.4986 9.4248 12.375C9.4248 14.1342 10.0797 15.8262 11.2549 17.124L11.4971 17.3779C12.8239 18.7048 14.6236 19.4502 16.5 19.4502C18.2592 19.4502 19.9512 18.7953 21.249 17.6201L21.5029 17.3779C22.8297 16.0511 23.5752 14.2514 23.5752 12.375C23.5752 10.6158 22.9203 8.92383 21.7451 7.62598L21.5029 7.37207C20.1761 6.04525 18.3764 5.2998 16.5 5.2998Z" fill="#001842" stroke="white" stroke-width="0.4"/>
</svg>
