<svg width="343" height="99" viewBox="0 0 343 99" fill="none" xmlns="http://www.w3.org/2000/svg">
<g clip-path="url(#clip0_375_2)">
<g opacity="0.2">
<path d="M73.8318 98.4693V89.4691H20.6474V51.6221L47.4384 24.8551L73.8318 51.2255L79.9905 44.6505L47.4384 12.1269L0 59.5224L6.36983 65.8866L11.6397 60.6214V98.4693H73.8318Z" fill="white"/>
<path d="M74.03 98.2713V89.2711H20.8457V51.4241L47.636 24.6571L74.03 51.0275L80.1882 44.4525L47.636 11.9289L0.198242 59.3244L6.56807 65.6885L11.8374 60.4234V98.2713H74.03Z" fill="#FBFBFB"/>
<path d="M74.228 98.0738V89.0742H21.0437V51.2261L47.834 24.4597L74.228 50.8295L80.3862 44.2545L47.834 11.7309L0.39624 59.127L6.76549 65.4911L12.0354 60.226V98.0738H74.228Z" fill="#F7F7F7"/>
<path d="M74.4257 97.8753V88.8756H21.2419V51.0281L48.0323 24.2617L74.4257 50.6315L80.5844 44.0565L48.0323 11.5335L0.594482 58.9284L6.96372 65.2925L12.2336 60.028V97.8753H74.4257Z" fill="#F2F2F2"/>
<path d="M74.624 97.6773V88.6776H21.4402V50.8301L48.2306 24.0637L74.624 50.4341L80.7828 43.8585L48.2306 11.3355L0.792236 58.7304L7.16206 65.0945L12.432 59.83V97.6773H74.624Z" fill="#EEEEEE"/>
<path d="M74.822 97.4793V88.4796H21.6382V50.632L48.4286 23.8657L74.822 50.2361L80.9808 43.6604L48.4286 11.1375L0.990234 58.5333L7.36007 64.8971L12.63 59.632V97.4793H74.822Z" fill="#EAEAEA"/>
<path d="M75.0202 97.2818V88.2816H21.8359V50.4341L48.6268 23.6677L75.0202 50.0381L81.179 43.4631L48.6268 10.9395L1.18848 58.3353L7.5583 64.6997L12.8282 59.434V97.2818H75.0202Z" fill="#E6E6E6"/>
<path d="M75.2185 97.0839V88.0836H22.0342V50.2361L48.8251 23.4697L75.2185 49.8401L81.3773 43.265L48.8251 10.7415L1.38672 58.1373L7.75656 64.5011L13.0264 59.236V97.0839H75.2185Z" fill="#E2E2E2"/>
<path d="M75.4165 96.8858V87.8856H22.2321V50.0381L49.0231 23.2717L75.4165 49.6421L81.5752 43.067L49.0231 10.5435L1.58472 57.9393L7.95455 64.3031L13.2244 59.038V96.8858H75.4165Z" fill="#DEDEDE"/>
<path d="M75.6147 96.6878V87.6876H22.4304V49.8401L49.2213 23.0737L75.6147 49.4441L81.7735 42.869L49.2213 10.3455L1.78296 57.7413L8.15278 64.1051L13.4227 58.84V96.6878H75.6147Z" fill="#D9D9D9"/>
<path d="M75.813 96.4904V87.4902H22.6286V49.6426L49.4196 22.8757L75.813 49.246L81.9717 42.671L49.4196 10.1475L1.9812 57.5433L8.35103 63.9077L13.6209 58.6426V96.4904H75.813Z" fill="#D5D5D5"/>
<path d="M76.0112 96.2924V87.2916H22.8269V49.4446L49.6172 22.6777L76.0112 49.0481L82.1694 42.473L49.6172 9.9495L2.17944 57.3453L8.54929 63.7097L13.8186 58.4443V96.2924H76.0112Z" fill="#D1D1D1"/>
<path d="M76.2092 96.0938V87.0936H23.0249V49.2466L49.8152 22.4797L76.2092 48.8501L82.3674 42.275L49.8152 9.7515L2.37744 57.1473L8.74728 63.5111L14.0166 58.2463V96.0938H76.2092Z" fill="#CDCDCD"/>
<path d="M76.4069 95.8958V86.8962H23.2231V49.0486L50.0135 22.2823L76.4069 48.652L82.5656 42.077L50.0135 9.55402L2.57568 56.9492L8.94492 63.3131L14.2148 58.0488V95.8958H76.4069Z" fill="#C9C9C9"/>
<path d="M76.605 95.6979V86.6982H23.4212V48.8506L50.2116 22.0843L76.605 48.4546L82.7637 41.879L50.2116 9.35608L2.77319 56.7513L9.14304 63.1151L14.4129 57.8508V95.6979H76.605Z" fill="#C4C4C4"/>
<path d="M76.8032 95.4999V86.5002H23.6195V48.6526L50.4098 21.8863L76.8032 48.2566L82.962 41.6811L50.4098 9.15808L2.97144 56.5539L9.34127 62.9177L14.6112 57.6529V95.4999H76.8032Z" fill="#C0C0C0"/>
<path d="M77.0014 95.3019V86.3022H23.8177V48.4546L50.608 21.6883L77.0014 48.0586L83.1602 41.4836L50.608 8.96008L3.16968 56.3559L9.53951 62.7197L14.8094 57.4549V95.3019H77.0014Z" fill="#BCBCBC"/>
<path d="M77.1997 95.1044V86.1042H24.0154V48.2566L50.8063 21.4903L77.1997 47.8606L83.3585 41.2856L50.8063 8.76208L3.36792 56.1579L9.73776 62.5217L15.0076 57.2569V95.1044H77.1997Z" fill="#B8B8B8"/>
<path d="M77.3977 94.907V85.9062H24.2133V48.0586L51.0043 21.2923L77.3977 47.6626L83.5564 41.0876L51.0043 8.56409L3.56592 55.9599L9.93575 62.3243L15.2056 57.0589V94.907H77.3977Z" fill="#B4B4B4"/>
<path d="M77.5959 94.7084V85.7088H24.4116V47.8612L51.2025 21.0943L77.5959 47.4646L83.7547 40.8896L51.2025 8.36608L3.76416 55.7619L10.134 62.1257L15.4039 56.8608V94.7084H77.5959Z" fill="#B0B0B0"/>
<path d="M77.7942 94.5104V85.5102H24.6098V47.6632L51.4002 20.8963L77.7942 47.2666L83.9529 40.6916L51.4002 8.16808L3.9624 55.5639L10.3322 61.9277L15.6015 56.6629V94.5104H77.7942Z" fill="#ABABAB"/>
<path d="M77.9924 94.3124V85.3122H24.8081V47.4652L51.5984 20.6983L77.9924 47.0686L84.1506 40.4936L51.5984 7.97009L4.16064 55.3659L10.5305 61.7297L15.7998 56.4649V94.3124H77.9924Z" fill="#A7A7A7"/>
<path d="M78.1904 94.1144V85.1154H25.0061V47.2672L51.7964 20.5003L78.1904 46.8706L84.3486 40.2956L51.7964 7.77267L4.35864 55.1679L10.7285 61.5317L15.9978 56.2669V94.1144H78.1904Z" fill="#A3A3A3"/>
<path d="M78.3887 93.9164V84.9168H25.2043V47.0692L51.9947 20.3029L78.3887 46.6732L84.5468 40.0976L51.9947 7.57467L4.55688 54.9699L10.9261 61.3337L16.196 56.0689V93.9164H78.3887Z" fill="#9F9F9F"/>
<path d="M78.5862 93.7184V84.7188H25.4024V46.8712L52.1928 20.1049L78.5862 46.4752L84.7449 39.8996L52.1928 7.37667L4.75439 54.7719L11.1242 61.1357L16.3941 55.8714V93.7184H78.5862Z" fill="#9B9B9B"/>
<path d="M78.7844 93.5204V84.5208H25.6007V46.6732L52.391 19.9069L78.7844 46.2772L84.9432 39.7016L52.391 7.17867L4.95264 54.5745L11.3225 60.9383L16.5924 55.6734V93.5204H78.7844Z" fill="#969696"/>
<path d="M78.9826 93.323V84.3228H25.7989V46.4752L52.5892 19.7089L78.9826 46.0792L85.1414 39.5036L52.5892 6.98067L5.15088 54.3765L11.5207 60.7403L16.7906 55.4754V93.323H78.9826Z" fill="#929292"/>
<path d="M79.1809 93.1244V84.1248H25.9966V46.2772L52.7875 19.5109L79.1809 45.8812L85.3397 39.3062L52.7875 6.78267L5.34912 54.1785L11.719 60.5423L16.9888 55.2774V93.1244H79.1809Z" fill="#8E8E8E"/>
<path d="M79.3789 92.927V83.9268H26.1945V46.0792L52.9855 19.3129L79.3789 45.6832L85.5376 39.1082L52.9855 6.58467L5.54712 53.9805L11.917 60.3443L17.1868 55.0794V92.927H79.3789Z" fill="#8A8A8A"/>
<path d="M79.5771 92.729V83.7288H26.3928V45.8818L53.1837 19.1149L79.5771 45.4852L85.7359 38.9102L53.1837 6.38667L5.74536 53.7825L12.1152 60.1463L17.3851 54.8814V92.729H79.5771Z" fill="#868686"/>
<path d="M79.7754 92.531V83.5308H26.591V45.6838L53.3814 18.9168L79.7754 45.2872L85.9341 38.7122L53.3814 6.18867L5.9436 53.5844L12.3134 59.9483L17.5833 54.6834V92.531H79.7754Z" fill="#828282"/>
<path d="M79.9736 92.3336V83.3328H26.7893V45.4858L53.5796 18.7189L79.9736 45.0892L86.1324 38.5142L53.5796 5.99067L6.14185 53.3865L12.5117 59.7503L17.7816 54.4854V92.3336H79.9736Z" fill="#7D7D7D"/>
<path d="M80.1716 92.135V83.1354H26.9873V45.2878L53.7776 18.5215L80.1716 44.8912L86.3298 38.3162L53.7776 5.79266L6.33984 53.1885L12.7097 59.5523L17.979 54.2874V92.135H80.1716Z" fill="#797979"/>
<path d="M80.37 91.9376V82.938H27.1856V45.0898L53.976 18.3235L80.37 44.6932L86.5281 38.1182L53.976 5.59526L6.5376 52.9905L12.9074 59.3549L18.1773 54.0894V91.9376H80.37Z" fill="#757575"/>
<path d="M80.5674 91.739V82.7394H27.3836V44.8918L54.174 18.1255L80.5674 44.4958L86.7261 37.9202L54.174 5.39725L6.7356 52.7925L13.1054 59.1569L18.3753 53.892V91.739H80.5674Z" fill="#717171"/>
<path d="M80.7656 91.541V82.5414H27.5819V44.6938L54.3722 17.9275L80.7656 44.2978L86.9244 37.7222L54.3722 5.19925L6.93384 52.5945L13.3037 58.9589L18.5736 53.694V91.541H80.7656Z" fill="#6D6D6D"/>
<path d="M80.9639 91.343V82.3434H27.7801V44.4958L54.5704 17.7295L80.9639 44.0998L87.1226 37.5242L54.5704 5.00124L7.13208 52.3971L13.5019 58.7609L18.7718 53.496V91.343H80.9639Z" fill="#696969"/>
<path d="M81.1621 91.145V82.1454H27.9777V44.2978L54.7687 17.5315L81.1621 43.9018L87.3209 37.3262L54.7687 4.80323L7.33032 52.1991L13.7002 58.5632L18.97 53.298V91.145H81.1621Z" fill="#646464"/>
<path d="M81.3601 90.9476V81.9474H28.1757V44.0998L54.9667 17.3334L81.3601 43.7038L87.5188 37.1288L54.9667 4.60522L7.52832 52.0011L13.8982 58.3652L19.168 53.1V90.9476H81.3601Z" fill="#606060"/>
<path d="M81.5583 90.7496V81.7494H28.374V43.9024L55.1649 17.1355L81.5583 43.5058L87.7171 36.9308L55.1649 4.40726L7.72656 51.8031L14.0964 58.1672L19.3663 52.902V90.7496H81.5583Z" fill="#5C5C5C"/>
<path d="M81.7566 90.5516V81.5514H28.5722V43.7044L55.3626 16.9375L81.7566 43.3078L87.9153 36.7328L55.3626 4.20925L7.9248 51.6051L14.2946 57.9692L19.5645 52.704V90.5516H81.7566Z" fill="#585858"/>
<path d="M81.9548 90.3536V81.3534H28.7705V43.5064L55.5608 16.7395L81.9548 43.1098L88.1136 36.5348L55.5608 4.01124L8.12305 51.4071L14.4929 57.7712L19.7622 52.506V90.3536H81.9548Z" fill="#545454"/>
<path d="M82.1528 90.1556V81.156H28.9685V43.3084L55.7588 16.5421L82.1528 42.9118L88.311 36.3368L55.7588 3.81323L8.32104 51.2091L14.6909 57.5732L19.9602 52.308V90.1556H82.1528Z" fill="#4F4F4F"/>
<path d="M82.3511 89.9576V80.958H29.1667V43.1104L55.9571 16.3441L82.3511 42.7138L88.5092 36.1388L55.9571 3.61584L8.51929 51.0111L14.8885 57.3752L20.1584 52.11V89.9576H82.3511Z" fill="#4B4B4B"/>
<path d="M82.5486 89.7596V80.76H29.3648V42.9124L56.1552 16.1461L82.5486 42.5164L88.7073 35.9408L56.1552 3.41782L8.7168 50.8131L15.0866 57.1772L20.3565 51.9126V89.7596H82.5486Z" fill="#474747"/>
<path d="M82.7468 89.5616V80.562H29.5631V42.7144L56.3534 15.9481L82.7468 42.3184L88.9056 35.7428L56.3534 3.21982L8.91504 50.6151L15.2849 56.9792L20.5548 51.7146V89.5616H82.7468Z" fill="#434343"/>
<path d="M82.9451 89.3636V80.364H29.7613V42.5163L56.5516 15.7501L82.9451 42.1204L89.1038 35.5448L56.5516 3.02181L9.11328 50.4177L15.4831 56.7818L20.753 51.5166V89.3636H82.9451Z" fill="#3F3F3F"/>
<path d="M83.1433 89.1668V80.1666H29.9589V42.3184L56.7499 15.5521L83.1433 41.9224L89.3021 35.3474L56.7499 2.82384L9.31152 50.2196L15.6814 56.5838L20.9512 51.3186V89.1668H83.1433Z" fill="#3B3B3B"/>
<path d="M83.3413 88.9682V79.968H30.1569V42.1204L56.9479 15.3541L83.3413 41.7244L89.5 35.1494L56.9479 2.62583L9.50952 50.0217L15.8794 56.3858L21.1492 51.1206V88.9682H83.3413Z" fill="#363636"/>
<path d="M83.5395 88.7702V79.77H30.3552V41.923L57.1461 15.1561L83.5395 41.5264L89.6983 34.9514L57.1461 2.42783L9.70776 49.8237L16.0776 56.1878L21.3475 50.9226V88.7702H83.5395Z" fill="#323232"/>
<path d="M83.7378 88.5722V79.572H30.5534V41.725L57.3444 14.9581L83.7378 41.3284L89.8965 34.7534L57.3444 2.22982L9.90601 49.6257L16.2758 55.9898L21.5457 50.7246V88.5722H83.7378Z" fill="#2E2E2E"/>
<path d="M83.936 88.3748V79.374H30.7517V41.527L57.542 14.7601L83.936 41.1304L90.0948 34.5554L57.542 2.03185L10.1042 49.4276L16.4741 55.7918L21.744 50.5266V88.3748H83.936Z" fill="#2A2A2A"/>
<path d="M84.134 88.1762V79.176H30.9497V41.329L57.74 14.5621L84.134 40.9324L90.2922 34.3574L57.74 1.83441L10.3022 49.2296L16.6721 55.5938L21.9414 50.3286V88.1762H84.134Z" fill="#262626"/>
<path d="M84.3323 87.9782V78.9786H31.1479V41.131L57.9383 14.3647L84.3323 40.7344L90.4904 34.1594L57.9383 1.6364L10.5005 49.0317L16.8703 55.3958L22.1396 50.1306V87.9782H84.3323Z" fill="#212121"/>
<path d="M84.5299 87.7808V78.7806H31.3462V40.933L58.1365 14.1667L84.5299 40.5364L90.6887 33.9614L58.1365 1.43843L10.6987 48.8337L17.068 55.1978L22.3379 49.9332V87.7808H84.5299Z" fill="#1D1D1D"/>
<path d="M84.728 87.5822V78.5826H31.5443V40.735L58.3346 13.9687L84.728 40.339L90.8868 33.7634L58.3346 1.24042L10.8962 48.6356L17.2661 54.9998L22.536 49.7352V87.5822H84.728Z" fill="#191919"/>
<path d="M84.9263 87.3842V78.3846H31.7419V40.537L58.5328 13.7707L84.9263 40.141L91.085 33.5654L58.5328 1.04242L11.0945 48.4382L17.4643 54.8024L22.7342 49.5372V87.3842H84.9263Z" fill="#151515"/>
<path d="M85.1245 87.1868V78.1866H31.9401V40.339L58.7311 13.5727L85.1245 39.943L91.2833 33.368L58.7311 0.84441L11.2927 48.2402L17.6626 54.6044L22.9324 49.3392V87.1868H85.1245Z" fill="#111111"/>
<path d="M85.3225 86.9888V77.9886H32.1381V40.141L58.9291 13.3747L85.3225 39.745L91.4813 33.17L58.9291 0.646397L11.4907 48.0422L17.8606 54.4064L23.1304 49.1412V86.9888H85.3225Z" fill="#0D0D0D"/>
<path d="M85.5207 86.7914V77.7906H32.3364V39.943L59.1273 13.1767L85.5207 39.547L91.6795 32.972L59.1273 0.448429L11.689 47.8442L18.0588 54.2083L23.3287 48.9432V86.7914H85.5207Z" fill="#080808"/>
<path d="M85.719 86.5928V77.5926H32.5346V39.7456L59.3256 12.9787L85.719 39.349L91.8777 32.774L59.3256 0.25042L11.8872 47.6462L18.257 54.0104L23.5269 48.7452V86.5928H85.719Z" fill="#040404"/>
<path d="M85.917 86.3948V77.3946H32.7326V39.5476L59.5236 12.7807L85.917 39.151L92.0757 32.576L59.5236 0.0524139L12.0852 47.4482L18.455 53.8124L23.7249 48.5472V86.3948H85.917Z" fill="black"/>
</g>
<path d="M85.917 86.3948V77.3946H32.7326V39.5476L59.5236 12.7807L84.1375 37.1982H97.0366L59.5236 0.0524139L12.0852 47.4482L18.455 53.8124L23.7249 48.5472V86.3948H85.917Z" fill="#001842"/>
<path d="M40.7336 68.7798L43.1579 64.8813C43.9218 65.5005 44.6579 66.0096 45.3664 66.4073C46.0859 66.7945 46.7944 67.0822 47.4918 67.2702C48.1892 67.4471 48.9032 67.5356 49.6338 67.5356C50.4973 67.5356 51.2445 67.4137 51.8755 67.1706C52.5065 66.9275 52.9936 66.579 53.3367 66.1256C53.6909 65.6721 53.8681 65.1467 53.8681 64.5492C53.8681 63.8527 53.6467 63.2663 53.2039 62.7906C52.7611 62.3155 52.1799 61.9008 51.4604 61.5464C50.7519 61.1814 49.9826 60.8334 49.1523 60.5013C48.3442 60.1697 47.5306 59.8101 46.7114 59.4228C45.9033 59.0251 45.1561 58.5549 44.4697 58.0129C43.7944 57.471 43.2465 56.8129 42.8258 56.0387C42.4162 55.2535 42.2115 54.3023 42.2115 53.1853C42.2115 51.7253 42.5768 50.4645 43.3074 49.4028C44.0491 48.341 45.0619 47.5225 46.3461 46.9474C47.6302 46.3723 49.097 46.0847 50.7464 46.0847C51.9087 46.0847 53.1154 46.2396 54.3662 46.5493C55.6282 46.8589 56.8847 47.329 58.1355 47.9594L56.1264 52.0903C55.3404 51.6147 54.4936 51.2387 53.5858 50.9622C52.6781 50.6857 51.8257 50.5475 51.0286 50.5475C50.3091 50.5475 49.6781 50.6581 49.1357 50.8793C48.6043 51.1005 48.1892 51.4101 47.8903 51.8083C47.5914 52.1954 47.442 52.6544 47.442 53.1853C47.442 53.8157 47.6578 54.3632 48.0896 54.8277C48.5213 55.2811 49.0803 55.6848 49.7667 56.0387C50.4641 56.3927 51.2113 56.7466 52.0083 57.1005C52.8275 57.4544 53.6523 57.8415 54.4825 58.2618C55.3238 58.6818 56.0876 59.1797 56.774 59.755C57.4713 60.3191 58.0304 60.9992 58.451 61.7953C58.8829 62.5809 59.0987 63.5264 59.0987 64.6324C59.0987 66.0922 58.7111 67.3751 57.9363 68.4811C57.1614 69.5759 56.0821 70.4335 54.6983 71.0527C53.3146 71.6608 51.7039 71.9654 49.8663 71.9654C48.1837 71.9654 46.573 71.6942 45.0343 71.1523C43.4956 70.6104 42.062 69.8196 40.7336 68.7798ZM84.0726 46.5824V60.2693C84.0726 62.7021 83.6352 64.7929 82.7604 66.5403C81.8973 68.2877 80.652 69.6316 79.0243 70.5718C77.4084 71.5008 75.4654 71.9654 73.1963 71.9654C70.9378 71.9654 68.9953 71.5008 67.3676 70.5718C65.7406 69.6316 64.4899 68.2877 63.6151 66.5403C62.7515 64.7929 62.32 62.7021 62.32 60.2693V46.5824H67.4345V59.639C67.4345 61.3753 67.6502 62.824 68.0818 63.9856C68.5244 65.1467 69.1723 66.026 70.0248 66.6229C70.8768 67.2093 71.9345 67.5022 73.1963 67.5022C74.458 67.5022 75.5152 67.2093 76.3677 66.6229C77.2202 66.026 77.8623 65.1467 78.2938 63.9856C78.7365 62.824 78.9581 61.3753 78.9581 59.639V46.5824H84.0726ZM93.238 71.4675H88.1241V46.5824H93.238V58.8259C93.7364 58.0959 94.2125 57.4212 94.6663 56.8019C95.1201 56.1826 95.5077 55.6738 95.8284 55.2756L102.736 46.5824H108.764L99.6313 58.0627L110.524 71.4675H103.899L96.3602 62.1603L93.238 66.0922V71.4675ZM117.78 71.4675H112.666V46.5824H117.78V56.9844H128.557V46.5824H133.671V71.4675H128.557V61.4474H117.78V71.4675ZM141.476 71.4675H136.112L146.042 46.5824H151.438L161.351 71.4675H155.988L153.946 66.1256H143.518L141.476 71.4675ZM145.195 61.646H152.286L148.732 52.4221L145.195 61.646ZM186.409 71.4675H180.53L168.89 54.4793V71.4675H163.776V46.5824H169.654L181.294 63.6037V46.5824H186.409V71.4675Z" fill="#001842"/>
<path d="M198.181 71.4675V46.5824H214.255V51.0452H203.296V56.7023H213.574V61.1814H203.296V67.0048H214.421V71.4675H198.181ZM216.978 68.7798L219.402 64.8813C220.166 65.5005 220.902 66.0096 221.611 66.4073C222.33 66.7945 223.039 67.0822 223.736 67.2702C224.433 67.4471 225.148 67.5356 225.878 67.5356C226.742 67.5356 227.489 67.4137 228.12 67.1706C228.751 66.9275 229.238 66.579 229.581 66.1256C229.936 65.6721 230.113 65.1467 230.113 64.5492C230.113 63.8527 229.891 63.2663 229.448 62.7906C229.006 62.3155 228.425 61.9008 227.705 61.5464C226.996 61.1814 226.227 60.8334 225.397 60.5013C224.589 60.1697 223.775 59.8101 222.956 59.4228C222.148 59.0251 221.4 58.5549 220.714 58.0129C220.039 57.471 219.491 56.8129 219.07 56.0387C218.661 55.2535 218.456 54.3023 218.456 53.1853C218.456 51.7253 218.821 50.4645 219.552 49.4028C220.293 48.341 221.307 47.5225 222.591 46.9474C223.875 46.3723 225.341 46.0847 226.991 46.0847C228.153 46.0847 229.36 46.2396 230.61 46.5493C231.873 46.8589 233.129 47.329 234.38 47.9594L232.371 52.0903C231.585 51.6147 230.738 51.2387 229.83 50.9622C228.922 50.6857 228.07 50.5475 227.273 50.5475C226.554 50.5475 225.923 50.6581 225.38 50.8793C224.849 51.1005 224.433 51.4101 224.135 51.8083C223.836 52.1954 223.687 52.6544 223.687 53.1853C223.687 53.8157 223.902 54.3632 224.334 54.8277C224.766 55.2811 225.325 55.6848 226.011 56.0387C226.708 56.3927 227.456 56.7466 228.253 57.1005C229.072 57.4544 229.897 57.8415 230.727 58.2618C231.568 58.6818 232.332 59.1797 233.018 59.755C233.716 60.3191 234.275 60.9992 234.695 61.7953C235.127 62.5809 235.343 63.5264 235.343 64.6324C235.343 66.0922 234.956 67.3751 234.181 68.4811C233.406 69.5759 232.327 70.4335 230.943 71.0527C229.559 71.6608 227.949 71.9654 226.111 71.9654C224.428 71.9654 222.818 71.6942 221.278 71.1523C219.74 70.6104 218.306 69.8196 216.978 68.7798ZM248.992 71.4675H243.878V51.0452H236.539V46.5824H256.348V51.0452H248.992V71.4675ZM260.466 71.4675H255.103L265.032 46.5824H270.43L280.343 71.4675H274.979L272.937 66.1256H262.509L260.466 71.4675ZM264.186 61.646H271.276L267.722 52.4221L264.186 61.646ZM291.866 71.4675H286.752V51.0452H279.413V46.5824H299.222V51.0452H291.866V71.4675ZM301.597 71.4675V46.5824H317.67V51.0452H306.711V56.7023H316.99V61.1814H306.711V67.0048H317.836V71.4675H301.597ZM320.393 68.7798L322.818 64.8813C323.582 65.5005 324.317 66.0096 325.026 66.4073C325.746 66.7945 326.454 67.0822 327.152 67.2702C327.849 67.4471 328.563 67.5356 329.294 67.5356C330.157 67.5356 330.904 67.4137 331.535 67.1706C332.166 66.9275 332.653 66.579 332.996 66.1256C333.351 65.6721 333.528 65.1467 333.528 64.5492C333.528 63.8527 333.306 63.2663 332.864 62.7906C332.421 62.3155 331.839 61.9008 331.12 61.5464C330.412 61.1814 329.642 60.8334 328.812 60.5013C328.004 60.1697 327.19 59.8101 326.371 59.4228C325.563 59.0251 324.816 58.5549 324.129 58.0129C323.454 57.471 322.906 56.8129 322.486 56.0387C322.076 55.2535 321.871 54.3023 321.871 53.1853C321.871 51.7253 322.237 50.4645 322.967 49.4028C323.709 48.341 324.722 47.5225 326.006 46.9474C327.29 46.3723 328.757 46.0847 330.406 46.0847C331.569 46.0847 332.775 46.2396 334.026 46.5493C335.288 46.8589 336.545 47.329 337.795 47.9594L335.786 52.0903C335 51.6147 334.153 51.2387 333.245 50.9622C332.338 50.6857 331.485 50.5475 330.688 50.5475C329.969 50.5475 329.338 50.6581 328.795 50.8793C328.264 51.1005 327.849 51.4101 327.55 51.8083C327.251 52.1954 327.102 52.6544 327.102 53.1853C327.102 53.8157 327.318 54.3632 327.749 54.8277C328.181 55.2811 328.74 55.6848 329.427 56.0387C330.124 56.3927 330.871 56.7466 331.668 57.1005C332.487 57.4544 333.312 57.8415 334.142 58.2618C334.983 58.6818 335.747 59.1797 336.434 59.755C337.131 60.3191 337.69 60.9992 338.111 61.7953C338.542 62.5809 338.759 63.5264 338.759 64.6324C338.759 66.0922 338.371 67.3751 337.596 68.4811C336.821 69.5759 335.742 70.4335 334.358 71.0527C332.975 71.6608 331.364 71.9654 329.526 71.9654C327.844 71.9654 326.233 71.6942 324.694 71.1523C323.155 70.6104 321.722 69.8196 320.393 68.7798Z" fill="#00B2FF"/>
<path d="M90.1943 86.4487L90.681 85.6766C90.929 85.8787 91.1776 86.0462 91.4256 86.1798C91.6736 86.3134 91.9257 86.4124 92.1814 86.4774C92.4405 86.5424 92.7044 86.5746 92.9712 86.5746C93.3605 86.5746 93.7006 86.5096 93.9908 86.3801C94.2845 86.2507 94.5138 86.0714 94.678 85.8424C94.8421 85.6098 94.9236 85.3427 94.9236 85.0416C94.9236 84.7135 94.8304 84.4429 94.6434 84.2291C94.4598 84.0118 94.2218 83.8266 93.9275 83.6743C93.6337 83.5214 93.3206 83.3767 92.9888 83.2397C92.7097 83.1213 92.4329 82.9954 92.1585 82.8618C91.8835 82.7283 91.6338 82.5742 91.408 82.3985C91.187 82.2192 91.0093 82.0036 90.8756 81.7523C90.742 81.5004 90.6751 81.197 90.6751 80.8426C90.6751 80.3886 90.79 79.9885 91.0187 79.6411C91.248 79.2943 91.5646 79.0231 91.9691 78.8286C92.3778 78.6341 92.8475 78.5369 93.3781 78.5369C93.7369 78.5369 94.0975 78.5849 94.4598 78.6798C94.8228 78.7718 95.174 78.9071 95.5135 79.0864L95.1013 79.91C94.8339 79.7536 94.5537 79.6335 94.2599 79.5497C93.9697 79.466 93.6836 79.4238 93.4009 79.4238C93.065 79.4238 92.7689 79.4812 92.5133 79.5954C92.2611 79.7061 92.063 79.8625 91.9181 80.0646C91.7768 80.2626 91.7059 80.4952 91.7059 80.7623C91.7059 81.0599 91.7921 81.3095 91.9639 81.5116C92.1392 81.7142 92.3643 81.8894 92.6393 82.0382C92.9178 82.1829 93.2121 82.3241 93.5211 82.4617C93.8149 82.5912 94.1051 82.7283 94.3913 82.8735C94.6815 83.0147 94.943 83.1823 95.1758 83.3767C95.4126 83.5677 95.6014 83.7962 95.7427 84.0633C95.884 84.3304 95.9544 84.6526 95.9544 85.0299C95.9544 85.5143 95.8324 85.9396 95.5879 86.3057C95.344 86.6684 95.0004 86.9501 94.5572 87.1522C94.1186 87.3543 93.6032 87.4557 93.0116 87.4557C92.4921 87.4557 91.9979 87.3719 91.5282 87.2038C91.0592 87.0362 90.6141 86.7843 90.1943 86.4487ZM108.383 87.284H107.445V84.2349C107.445 83.621 107.309 83.1442 107.038 82.805C106.771 82.4617 106.393 82.2901 105.904 82.2901C105.412 82.2901 105.024 82.4635 104.742 82.8103C104.463 83.1536 104.324 83.6286 104.324 84.2349V87.284H103.385V84.2349C103.385 83.621 103.249 83.1442 102.979 82.805C102.707 82.4617 102.328 82.2901 101.839 82.2901C101.346 82.2901 100.959 82.4635 100.677 82.8103C100.398 83.1536 100.259 83.6286 100.259 84.2349V87.284H99.3193V81.5631H100.087L100.127 82.5871C100.318 82.2133 100.578 81.9316 100.905 81.7406C101.238 81.5461 101.629 81.4489 102.079 81.4489C102.561 81.4489 102.971 81.5578 103.31 81.7752C103.654 81.9884 103.91 82.2954 104.078 82.696C104.265 82.2877 104.53 81.979 104.874 81.7693C105.221 81.5555 105.635 81.4489 106.116 81.4489C106.83 81.4489 107.385 81.6756 107.782 82.1296C108.183 82.5795 108.383 83.2092 108.383 84.0176V87.284ZM116.547 87.284H115.739L115.677 86.5289C115.467 86.7996 115.199 87.0134 114.875 87.1698C114.55 87.3221 114.188 87.3983 113.787 87.3983C113.375 87.3983 113.006 87.3186 112.682 87.1581C112.357 86.9941 112.102 86.7709 111.915 86.4891C111.731 86.2067 111.64 85.8863 111.64 85.5278C111.64 85.15 111.739 84.8184 111.938 84.5325C112.14 84.2426 112.413 84.0159 112.756 83.8518C113.104 83.6878 113.497 83.6058 113.936 83.6058C114.222 83.6058 114.514 83.6421 114.812 83.7142C115.11 83.7827 115.375 83.8782 115.607 84.0006V83.7599C115.607 83.4552 115.531 83.1957 115.379 82.9819C115.226 82.7646 115.022 82.5988 114.766 82.4846C114.51 82.3662 114.228 82.3071 113.919 82.3071C113.651 82.3071 113.378 82.3569 113.1 82.4559C112.821 82.5514 112.554 82.6996 112.298 82.9023L111.989 82.0956C112.321 81.8818 112.671 81.7219 113.037 81.6147C113.403 81.504 113.766 81.4489 114.125 81.4489C114.621 81.4489 115.049 81.5502 115.407 81.7523C115.77 81.9503 116.051 82.2344 116.249 82.6047C116.448 82.9708 116.547 83.4055 116.547 83.9087V87.284ZM113.953 86.5401C114.247 86.5401 114.516 86.4791 114.76 86.3573C115.005 86.2354 115.203 86.0597 115.356 85.8312C115.508 85.5981 115.592 85.3239 115.607 85.007V84.9098C115.398 84.7458 115.161 84.6198 114.898 84.5325C114.638 84.4406 114.373 84.3949 114.102 84.3949C113.678 84.3949 113.323 84.498 113.037 84.7042C112.754 84.9098 112.613 85.1711 112.613 85.488C112.613 85.686 112.671 85.8652 112.785 86.0257C112.903 86.1857 113.063 86.3116 113.266 86.403C113.468 86.4944 113.697 86.5401 113.953 86.5401ZM121.028 87.284H120.089V81.5631H120.914L120.954 82.696C121.152 82.303 121.431 81.9984 121.79 81.7804C122.153 81.5596 122.568 81.4489 123.038 81.4489C123.141 81.4489 123.246 81.4547 123.353 81.4659C123.459 81.4776 123.567 81.4946 123.673 81.5174L123.559 82.3645C123.349 82.3147 123.141 82.2901 122.935 82.2901C122.561 82.2901 122.229 82.3815 121.939 82.5642C121.652 82.7476 121.429 82.9995 121.269 83.3193C121.108 83.6398 121.028 84.0082 121.028 84.4236V87.284ZM129.844 87.147C129.466 87.3145 129.098 87.3983 128.739 87.3983C128.396 87.3983 128.094 87.3239 127.835 87.1751C127.575 87.0228 127.373 86.8113 127.227 86.5401C127.082 86.2659 127.01 85.9472 127.01 85.5852V82.4043H126.008V81.5631H127.055V80.1332H127.949V81.5631H129.661V82.4043H127.949V85.4136C127.949 85.7569 128.04 86.0333 128.224 86.2431C128.411 86.4528 128.655 86.5576 128.957 86.5576C129.201 86.5576 129.445 86.485 129.69 86.3403L129.844 87.147ZM146.371 87.284H145.363V80.1162L142.495 85.8424H141.584L138.727 80.1502V87.284H137.719V78.7032H139.019L142.042 84.7838L145.054 78.7032H146.371V87.284ZM152.57 87.3983C152.001 87.3983 151.49 87.2688 151.035 87.0093C150.582 86.7504 150.223 86.3971 149.959 85.9513C149.7 85.5009 149.57 84.9918 149.57 84.4236C149.57 83.8594 149.7 83.3539 149.959 82.9075C150.223 82.4576 150.582 82.1032 151.035 81.8437C151.49 81.5807 152.001 81.4489 152.57 81.4489C153.139 81.4489 153.649 81.5807 154.099 81.8437C154.549 82.1032 154.905 82.4576 155.164 82.9075C155.424 83.3539 155.553 83.8594 155.553 84.4236C155.553 84.9918 155.424 85.5009 155.164 85.9513C154.905 86.3971 154.549 86.7504 154.099 87.0093C153.649 87.2688 153.139 87.3983 152.57 87.3983ZM152.565 86.5518C152.95 86.5518 153.295 86.458 153.601 86.2712C153.906 86.0843 154.147 85.8312 154.322 85.5108C154.502 85.1904 154.592 84.8278 154.592 84.4236C154.592 84.0194 154.502 83.6573 154.322 83.3369C154.147 83.0165 153.906 82.7628 153.601 82.576C153.295 82.3891 152.95 82.2954 152.565 82.2954C152.179 82.2954 151.832 82.3891 151.522 82.576C151.217 82.7628 150.975 83.0165 150.795 83.3369C150.62 83.6573 150.532 84.0194 150.532 84.4236C150.532 84.8278 150.62 85.1904 150.795 85.5108C150.975 85.8312 151.217 86.0843 151.522 86.2712C151.832 86.458 152.179 86.5518 152.565 86.5518ZM163.848 81.5631L161.437 87.284H160.528L158.122 81.5631H159.136L160.991 86.2999L162.852 81.5631H163.848ZM171.891 86.5805C171.181 87.1259 170.399 87.3983 169.543 87.3983C168.948 87.3983 168.414 87.2647 167.94 86.9982C167.467 86.731 167.093 86.369 166.818 85.9109C166.547 85.4493 166.411 84.9291 166.411 84.3492C166.411 83.7927 166.537 83.2965 166.789 82.8618C167.042 82.4231 167.387 82.078 167.826 81.8267C168.265 81.5748 168.763 81.4489 169.32 81.4489C169.893 81.4489 170.397 81.586 170.832 81.8607C171.271 82.1354 171.613 82.5168 171.857 83.0048C172.101 83.4933 172.224 84.0574 172.224 84.6983V84.8811H167.431C167.5 85.2167 167.637 85.5085 167.843 85.7569C168.049 86.0046 168.307 86.1974 168.616 86.3344C168.929 86.4715 169.277 86.5401 169.658 86.5401C170.314 86.5401 170.914 86.3251 171.456 85.8939L171.891 86.5805ZM167.396 84.0803H171.336C171.294 83.7259 171.183 83.4166 171.004 83.1536C170.828 82.8864 170.599 82.6791 170.317 82.5303C170.038 82.3815 169.723 82.3071 169.372 82.3071C169.017 82.3071 168.696 82.3815 168.41 82.5303C168.127 82.6791 167.896 82.8864 167.717 83.1536C167.542 83.4166 167.434 83.7259 167.396 84.0803ZM175.021 86.7861L175.268 85.9051C175.405 86.0351 175.561 86.1476 175.737 86.2431C175.913 86.338 176.098 86.4124 176.293 86.4663C176.487 86.5155 176.684 86.5401 176.882 86.5401C177.237 86.5401 177.523 86.4622 177.741 86.3057C177.959 86.1493 178.067 85.9455 178.067 85.6936C178.067 85.5108 178.011 85.3597 177.896 85.2419C177.785 85.1195 177.638 85.0146 177.455 84.9274C177.272 84.8395 177.075 84.7557 176.865 84.6755C176.609 84.5765 176.355 84.464 176.104 84.338C175.852 84.2121 175.642 84.0463 175.474 83.8401C175.309 83.6345 175.227 83.3633 175.227 83.0276C175.227 82.7078 175.308 82.4289 175.468 82.1929C175.628 81.9562 175.852 81.7728 176.138 81.6434C176.428 81.5139 176.76 81.4489 177.134 81.4489C177.699 81.4489 178.254 81.5901 178.8 81.8724L178.52 82.7189C178.398 82.6386 178.256 82.5683 178.096 82.5074C177.936 82.4424 177.772 82.3926 177.604 82.3586C177.436 82.3241 177.278 82.3071 177.129 82.3071C176.85 82.3071 176.624 82.3721 176.453 82.5016C176.281 82.6275 176.195 82.7968 176.195 83.0106C176.195 83.1325 176.229 83.2449 176.298 83.348C176.371 83.4476 176.491 83.5466 176.659 83.6456C176.827 83.7446 177.06 83.8553 177.357 83.9772C177.621 84.0844 177.88 84.2062 178.136 84.3433C178.392 84.4769 178.604 84.6509 178.772 84.8641C178.943 85.0738 179.03 85.3485 179.03 85.6877C179.03 86.0234 178.94 86.321 178.76 86.5805C178.585 86.8359 178.338 87.0362 178.022 87.1809C177.709 87.3262 177.346 87.3983 176.934 87.3983C176.25 87.3983 175.613 87.1944 175.021 86.7861ZM182.715 87.3983C182.547 87.3983 182.41 87.3467 182.303 87.2442C182.2 87.137 182.148 86.9999 182.148 86.8324C182.148 86.6607 182.2 86.5213 182.303 86.4147C182.41 86.3075 182.547 86.2542 182.715 86.2542C182.883 86.2542 183.021 86.3075 183.127 86.4147C183.238 86.5213 183.293 86.6607 183.293 86.8324C183.293 86.9999 183.238 87.137 183.127 87.2442C183.021 87.3467 182.883 87.3983 182.715 87.3983ZM191.151 86.4487L191.638 85.6766C191.886 85.8787 192.134 86.0462 192.383 86.1798C192.631 86.3134 192.882 86.4124 193.138 86.4774C193.397 86.5424 193.661 86.5746 193.928 86.5746C194.317 86.5746 194.657 86.5096 194.948 86.3801C195.241 86.2507 195.471 86.0714 195.635 85.8424C195.798 85.6098 195.881 85.3427 195.881 85.0416C195.881 84.7135 195.787 84.4429 195.6 84.2291C195.417 84.0118 195.179 83.8266 194.884 83.6743C194.591 83.5214 194.278 83.3767 193.946 83.2397C193.667 83.1213 193.39 82.9954 193.115 82.8618C192.84 82.7283 192.59 82.5742 192.365 82.3985C192.144 82.2192 191.966 82.0036 191.833 81.7523C191.699 81.5004 191.632 81.197 191.632 80.8426C191.632 80.3886 191.747 79.9885 191.976 79.6411C192.205 79.2943 192.521 79.0231 192.926 78.8286C193.335 78.6341 193.804 78.5369 194.335 78.5369C194.694 78.5369 195.054 78.5849 195.417 78.6798C195.78 78.7718 196.131 78.9071 196.47 79.0864L196.058 79.91C195.791 79.7536 195.511 79.6335 195.217 79.5497C194.927 79.466 194.64 79.4238 194.358 79.4238C194.022 79.4238 193.726 79.4812 193.47 79.5954C193.218 79.7061 193.02 79.8625 192.874 80.0646C192.734 80.2626 192.663 80.4952 192.663 80.7623C192.663 81.0599 192.749 81.3095 192.921 81.5116C193.096 81.7142 193.321 81.8894 193.596 82.0382C193.875 82.1829 194.169 82.3241 194.478 82.4617C194.772 82.5912 195.062 82.7283 195.348 82.8735C195.638 83.0147 195.9 83.1823 196.133 83.3767C196.37 83.5677 196.558 83.7962 196.7 84.0633C196.841 84.3304 196.911 84.6526 196.911 85.0299C196.911 85.5143 196.789 85.9396 196.545 86.3057C196.301 86.6684 195.957 86.9501 195.514 87.1522C195.076 87.3543 194.56 87.4557 193.969 87.4557C193.449 87.4557 192.955 87.3719 192.485 87.2038C192.016 87.0362 191.571 86.7843 191.151 86.4487ZM209.34 87.284H208.402V84.2349C208.402 83.621 208.266 83.1442 207.995 82.805C207.728 82.4617 207.35 82.2901 206.861 82.2901C206.369 82.2901 205.981 82.4635 205.699 82.8103C205.42 83.1536 205.281 83.6286 205.281 84.2349V87.284H204.342V84.2349C204.342 83.621 204.206 83.1442 203.935 82.805C203.664 82.4617 203.285 82.2901 202.796 82.2901C202.303 82.2901 201.916 82.4635 201.634 82.8103C201.354 83.1536 201.216 83.6286 201.216 84.2349V87.284H200.276V81.5631H201.044L201.084 82.5871C201.275 82.2133 201.534 81.9316 201.862 81.7406C202.195 81.5461 202.586 81.4489 203.036 81.4489C203.517 81.4489 203.928 81.5578 204.267 81.7752C204.611 81.9884 204.867 82.2954 205.035 82.696C205.222 82.2877 205.487 81.979 205.83 81.7693C206.178 81.5555 206.592 81.4489 207.073 81.4489C207.787 81.4489 208.342 81.6756 208.739 82.1296C209.14 82.5795 209.34 83.2092 209.34 84.0176V87.284ZM217.504 87.284H216.696L216.634 86.5289C216.423 86.7996 216.156 87.0134 215.831 87.1698C215.507 87.3221 215.145 87.3983 214.744 87.3983C214.332 87.3983 213.963 87.3186 213.639 87.1581C213.314 86.9941 213.059 86.7709 212.872 86.4891C212.688 86.2067 212.597 85.8863 212.597 85.5278C212.597 85.15 212.696 84.8184 212.895 84.5325C213.097 84.2426 213.369 84.0159 213.713 83.8518C214.061 83.6878 214.454 83.6058 214.893 83.6058C215.179 83.6058 215.471 83.6421 215.769 83.7142C216.067 83.7827 216.332 83.8782 216.564 84.0006V83.7599C216.564 83.4552 216.488 83.1957 216.336 82.9819C216.183 82.7646 215.979 82.5988 215.723 82.4846C215.467 82.3662 215.185 82.3071 214.876 82.3071C214.608 82.3071 214.335 82.3569 214.057 82.4559C213.778 82.5514 213.511 82.6996 213.255 82.9023L212.946 82.0956C213.278 81.8818 213.627 81.7219 213.994 81.6147C214.36 81.504 214.723 81.4489 215.082 81.4489C215.578 81.4489 216.006 81.5502 216.364 81.7523C216.727 81.9503 217.008 82.2344 217.206 82.6047C217.405 82.9708 217.504 83.4055 217.504 83.9087V87.284ZM214.91 86.5401C215.203 86.5401 215.473 86.4791 215.717 86.3573C215.962 86.2354 216.16 86.0597 216.313 85.8312C216.465 85.5981 216.549 85.3239 216.564 85.007V84.9098C216.354 84.7458 216.118 84.6198 215.854 84.5325C215.595 84.4406 215.33 84.3949 215.059 84.3949C214.635 84.3949 214.28 84.498 213.994 84.7042C213.711 84.9098 213.57 85.1711 213.57 85.488C213.57 85.686 213.627 85.8652 213.742 86.0257C213.86 86.1857 214.02 86.3116 214.223 86.403C214.425 86.4944 214.654 86.5401 214.91 86.5401ZM221.985 87.284H221.046V81.5631H221.871L221.91 82.696C222.109 82.303 222.388 81.9984 222.747 81.7804C223.109 81.5596 223.525 81.4489 223.995 81.4489C224.098 81.4489 224.203 81.4547 224.31 81.4659C224.416 81.4776 224.524 81.4946 224.63 81.5174L224.516 82.3645C224.306 82.3147 224.098 82.2901 223.892 82.2901C223.518 82.2901 223.186 82.3815 222.895 82.5642C222.609 82.7476 222.386 82.9995 222.225 83.3193C222.065 83.6398 221.985 84.0082 221.985 84.4236V87.284ZM230.801 87.147C230.423 87.3145 230.054 87.3983 229.696 87.3983C229.353 87.3983 229.051 87.3239 228.791 87.1751C228.532 87.0228 228.33 86.8113 228.184 86.5401C228.039 86.2659 227.967 85.9472 227.967 85.5852V82.4043H226.965V81.5631H228.012V80.1332H228.906V81.5631H230.618V82.4043H228.906V85.4136C228.906 85.7569 228.997 86.0333 229.181 86.2431C229.368 86.4528 229.612 86.5576 229.914 86.5576C230.158 86.5576 230.402 86.485 230.647 86.3403L230.801 87.147ZM238.958 86.5805C238.248 87.1259 237.466 87.3983 236.611 87.3983C236.016 87.3983 235.481 87.2647 235.008 86.9982C234.535 86.731 234.161 86.369 233.886 85.9109C233.615 85.4493 233.479 84.9291 233.479 84.3492C233.479 83.7927 233.605 83.2965 233.857 82.8618C234.109 82.4231 234.454 82.078 234.893 81.8267C235.332 81.5748 235.83 81.4489 236.387 81.4489C236.96 81.4489 237.464 81.586 237.899 81.8607C238.338 82.1354 238.68 82.5168 238.924 83.0048C239.168 83.4933 239.291 84.0574 239.291 84.6983V84.8811H234.498C234.567 85.2167 234.704 85.5085 234.91 85.7569C235.116 86.0046 235.374 86.1974 235.683 86.3344C235.996 86.4715 236.343 86.5401 236.726 86.5401C237.382 86.5401 237.981 86.3251 238.523 85.8939L238.958 86.5805ZM234.464 84.0803H238.403C238.361 83.7259 238.25 83.4166 238.071 83.1536C237.895 82.8864 237.666 82.6791 237.384 82.5303C237.105 82.3815 236.79 82.3071 236.439 82.3071C236.084 82.3071 235.764 82.3815 235.477 82.5303C235.195 82.6791 234.964 82.8864 234.784 83.1536C234.609 83.4166 234.502 83.7259 234.464 84.0803ZM243.429 87.284H242.489V81.5631H243.314L243.354 82.696C243.553 82.303 243.831 81.9984 244.19 81.7804C244.553 81.5596 244.969 81.4489 245.439 81.4489C245.541 81.4489 245.646 81.4547 245.753 81.4659C245.86 81.4776 245.967 81.4946 246.074 81.5174L245.959 82.3645C245.749 82.3147 245.541 82.2901 245.335 82.2901C244.961 82.2901 244.629 82.3815 244.339 82.5642C244.052 82.7476 243.83 82.9995 243.669 83.3193C243.509 83.6398 243.429 84.0082 243.429 84.4236V87.284ZM253.663 87.284V78.7032H254.67V87.284H253.663ZM263.681 87.284H262.742V83.9831C262.742 83.4681 262.597 83.0604 262.307 82.7587C262.02 82.4576 261.629 82.3071 261.133 82.3071C260.778 82.3071 260.46 82.3873 260.177 82.5473C259.894 82.7037 259.671 82.9251 259.507 83.211C259.343 83.4968 259.261 83.829 259.261 84.2062V87.284H258.322V81.5631H259.14L259.175 82.4898C259.385 82.1542 259.675 81.897 260.045 81.7178C260.419 81.5385 260.839 81.4489 261.305 81.4489C262.034 81.4489 262.612 81.668 263.04 82.1067C263.467 82.5455 263.681 83.1366 263.681 83.8799V87.284ZM272.314 81.5631L269.903 87.284H268.993L266.588 81.5631H267.602L269.457 86.2999L271.318 81.5631H272.314ZM280.356 86.5805C279.646 87.1259 278.864 87.3983 278.009 87.3983C277.414 87.3983 276.879 87.2647 276.406 86.9982C275.933 86.731 275.559 86.369 275.284 85.9109C275.013 85.4493 274.877 84.9291 274.877 84.3492C274.877 83.7927 275.003 83.2965 275.255 82.8618C275.507 82.4231 275.852 82.078 276.291 81.8267C276.73 81.5748 277.228 81.4489 277.786 81.4489C278.358 81.4489 278.863 81.586 279.298 81.8607C279.736 82.1354 280.078 82.5168 280.322 83.0048C280.566 83.4933 280.689 84.0574 280.689 84.6983V84.8811H275.896C275.965 85.2167 276.103 85.5085 276.308 85.7569C276.515 86.0046 276.772 86.1974 277.081 86.3344C277.394 86.4715 277.742 86.5401 278.124 86.5401C278.78 86.5401 279.38 86.3251 279.921 85.8939L280.356 86.5805ZM275.862 84.0803H279.801C279.759 83.7259 279.649 83.4166 279.469 83.1536C279.293 82.8864 279.065 82.6791 278.782 82.5303C278.504 82.3815 278.188 82.3071 277.837 82.3071C277.482 82.3071 277.162 82.3815 276.875 82.5303C276.593 82.6791 276.362 82.8864 276.182 83.1536C276.007 83.4166 275.9 83.7259 275.862 84.0803ZM283.487 86.7861L283.733 85.9051C283.87 86.0351 284.027 86.1476 284.203 86.2431C284.378 86.338 284.563 86.4124 284.758 86.4663C284.953 86.5155 285.149 86.5401 285.348 86.5401C285.703 86.5401 285.989 86.4622 286.207 86.3057C286.424 86.1493 286.533 85.9455 286.533 85.6936C286.533 85.5108 286.476 85.3597 286.361 85.2419C286.251 85.1195 286.104 85.0146 285.92 84.9274C285.737 84.8395 285.541 84.7557 285.331 84.6755C285.075 84.5765 284.821 84.464 284.569 84.338C284.317 84.2121 284.107 84.0463 283.94 83.8401C283.775 83.6345 283.693 83.3633 283.693 83.0276C283.693 82.7078 283.773 82.4289 283.934 82.1929C284.094 81.9562 284.317 81.7728 284.603 81.6434C284.893 81.5139 285.226 81.4489 285.6 81.4489C286.165 81.4489 286.72 81.5901 287.266 81.8724L286.985 82.7189C286.864 82.6386 286.722 82.5683 286.562 82.5074C286.401 82.4424 286.237 82.3926 286.069 82.3586C285.901 82.3241 285.743 82.3071 285.594 82.3071C285.316 82.3071 285.09 82.3721 284.918 82.5016C284.746 82.6275 284.661 82.7968 284.661 83.0106C284.661 83.1325 284.695 83.2449 284.764 83.348C284.836 83.4476 284.957 83.5466 285.124 83.6456C285.292 83.7446 285.526 83.8553 285.823 83.9772C286.087 84.0844 286.346 84.2062 286.602 84.3433C286.858 84.4769 287.069 84.6509 287.238 84.8641C287.409 85.0738 287.495 85.3485 287.495 85.6877C287.495 86.0234 287.405 86.321 287.226 86.5805C287.051 86.8359 286.804 87.0362 286.487 87.1809C286.174 87.3262 285.812 87.3983 285.399 87.3983C284.716 87.3983 284.078 87.1944 283.487 86.7861ZM294.009 87.147C293.631 87.3145 293.263 87.3983 292.904 87.3983C292.56 87.3983 292.259 87.3239 291.999 87.1751C291.74 87.0228 291.538 86.8113 291.392 86.5401C291.247 86.2659 291.175 85.9472 291.175 85.5852V82.4043H290.173V81.5631H291.22V80.1332H292.114V81.5631H293.826V82.4043H292.114V85.4136C292.114 85.7569 292.205 86.0333 292.388 86.2431C292.575 86.4528 292.82 86.5576 293.121 86.5576C293.366 86.5576 293.61 86.485 293.854 86.3403L294.009 87.147ZM306.037 87.284H305.098V84.2349C305.098 83.621 304.963 83.1442 304.692 82.805C304.425 82.4617 304.046 82.2901 303.558 82.2901C303.065 82.2901 302.678 82.4635 302.396 82.8103C302.117 83.1536 301.978 83.6286 301.978 84.2349V87.284H301.038V84.2349C301.038 83.621 300.903 83.1442 300.632 82.805C300.361 82.4617 299.981 82.2901 299.492 82.2901C299 82.2901 298.613 82.4635 298.33 82.8103C298.052 83.1536 297.912 83.6286 297.912 84.2349V87.284H296.973V81.5631H297.74L297.781 82.5871C297.971 82.2133 298.231 81.9316 298.56 81.7406C298.891 81.5461 299.282 81.4489 299.733 81.4489C300.214 81.4489 300.625 81.5578 300.964 81.7752C301.308 81.9884 301.563 82.2954 301.732 82.696C301.919 82.2877 302.184 81.979 302.527 81.7693C302.875 81.5555 303.289 81.4489 303.77 81.4489C304.484 81.4489 305.039 81.6756 305.436 82.1296C305.837 82.5795 306.037 83.2092 306.037 84.0176V87.284ZM314.601 86.5805C313.891 87.1259 313.109 87.3983 312.254 87.3983C311.658 87.3983 311.124 87.2647 310.651 86.9982C310.177 86.731 309.803 86.369 309.528 85.9109C309.257 85.4493 309.122 84.9291 309.122 84.3492C309.122 83.7927 309.248 83.2965 309.5 82.8618C309.751 82.4231 310.097 82.078 310.536 81.8267C310.975 81.5748 311.473 81.4489 312.03 81.4489C312.603 81.4489 313.107 81.586 313.542 81.8607C313.981 82.1354 314.323 82.5168 314.567 83.0048C314.811 83.4933 314.933 84.0574 314.933 84.6983V84.8811H310.141C310.21 85.2167 310.347 85.5085 310.553 85.7569C310.759 86.0046 311.017 86.1974 311.326 86.3344C311.639 86.4715 311.986 86.5401 312.368 86.5401C313.025 86.5401 313.624 86.3251 314.166 85.8939L314.601 86.5805ZM310.107 84.0803H314.046C314.004 83.7259 313.893 83.4166 313.714 83.1536C313.538 82.8864 313.309 82.6791 313.027 82.5303C312.748 82.3815 312.433 82.3071 312.082 82.3071C311.727 82.3071 311.406 82.3815 311.12 82.5303C310.838 82.6791 310.607 82.8864 310.427 83.1536C310.251 83.4166 310.145 83.7259 310.107 84.0803ZM323.492 87.284H322.552V83.9831C322.552 83.4681 322.408 83.0604 322.117 82.7587C321.831 82.4576 321.44 82.3071 320.944 82.3071C320.589 82.3071 320.27 82.3873 319.987 82.5473C319.705 82.7037 319.482 82.9251 319.318 83.211C319.154 83.4968 319.072 83.829 319.072 84.2062V87.284H318.132V81.5631H318.951L318.985 82.4898C319.195 82.1542 319.485 81.897 319.856 81.7178C320.23 81.5385 320.65 81.4489 321.115 81.4489C321.844 81.4489 322.423 81.668 322.85 82.1067C323.278 82.5455 323.492 83.1366 323.492 83.8799V87.284ZM330.235 87.147C329.857 87.3145 329.489 87.3983 329.13 87.3983C328.786 87.3983 328.484 87.3239 328.225 87.1751C327.965 87.0228 327.763 86.8113 327.618 86.5401C327.473 86.2659 327.401 85.9472 327.401 85.5852V82.4043H326.399V81.5631H327.447V80.1332H328.34V81.5631H330.052V82.4043H328.34V85.4136C328.34 85.7569 328.431 86.0333 328.615 86.2431C328.802 86.4528 329.046 86.5576 329.347 86.5576C329.592 86.5576 329.836 86.485 330.08 86.3403L330.235 87.147ZM332.97 86.7861L333.216 85.9051C333.354 86.0351 333.51 86.1476 333.686 86.2431C333.862 86.338 334.046 86.4124 334.241 86.4663C334.436 86.5155 334.633 86.5401 334.831 86.5401C335.186 86.5401 335.472 86.4622 335.69 86.3057C335.907 86.1493 336.016 85.9455 336.016 85.6936C336.016 85.5108 335.959 85.3597 335.844 85.2419C335.734 85.1195 335.587 85.0146 335.404 84.9274C335.22 84.8395 335.024 84.7557 334.814 84.6755C334.558 84.5765 334.304 84.464 334.052 84.338C333.8 84.2121 333.59 84.0463 333.422 83.8401C333.258 83.6345 333.176 83.3633 333.176 83.0276C333.176 82.7078 333.256 82.4289 333.417 82.1929C333.577 81.9562 333.8 81.7728 334.087 81.6434C334.376 81.5139 334.709 81.4489 335.083 81.4489C335.647 81.4489 336.203 81.5901 336.749 81.8724L336.468 82.7189C336.346 82.6386 336.205 82.5683 336.045 82.5074C335.884 82.4424 335.72 82.3926 335.552 82.3586C335.384 82.3241 335.226 82.3071 335.077 82.3071C334.798 82.3071 334.573 82.3721 334.402 82.5016C334.23 82.6275 334.144 82.7968 334.144 83.0106C334.144 83.1325 334.178 83.2449 334.247 83.348C334.319 83.4476 334.44 83.5466 334.607 83.6456C334.776 83.7446 335.008 83.8553 335.306 83.9772C335.569 84.0844 335.829 84.2062 336.085 84.3433C336.341 84.4769 336.552 84.6509 336.72 84.8641C336.892 85.0738 336.978 85.3485 336.978 85.6877C336.978 86.0234 336.888 86.321 336.709 86.5805C336.533 86.8359 336.287 87.0362 335.971 87.1809C335.657 87.3262 335.295 87.3983 334.882 87.3983C334.199 87.3983 333.561 87.1944 332.97 86.7861Z" fill="#001842"/>
<path d="M59.5906 -0.000128819L11.7979 47.471L18.3715 54.0773L66.1642 6.60617L59.5906 -0.000128819Z" fill="#00B2FF"/>
</g>
<defs>
<clipPath id="clip0_375_2">
<rect width="343" height="99" fill="white"/>
</clipPath>
</defs>
</svg>
