<svg width="345" height="112" viewBox="0 0 345 112" fill="none" xmlns="http://www.w3.org/2000/svg">
<g clip-path="url(#clip0_152_468)">
<g opacity="0.2">
<path d="M75.1233 101.448V92.7814H21.0086V56.3377L48.2682 30.5633L75.1233 55.9558L81.3898 49.6246L48.2682 18.307L0 63.9451L6.48126 70.0733L11.8433 65.0033V101.448H75.1233Z" fill="white"/>
<path d="M75.3249 101.257V92.5907H21.2103V56.147L48.4692 30.3726L75.3249 55.7651L81.5908 49.4339L48.4692 18.1163L0.20166 63.7545L6.68291 69.8826L12.0444 64.8127V101.257H75.3249Z" fill="#FBFBFB"/>
<path d="M75.5266 101.067V92.4011H21.4119V55.9564L48.6709 30.1825L75.5266 55.5745L81.7925 49.2433L48.6709 17.9257L0.40332 63.5644L6.88399 69.6925L12.2461 64.6226V101.067H75.5266Z" fill="#F7F7F7"/>
<path d="M75.7277 100.876V92.2099H21.6136V55.7657L48.8726 29.9919L75.7277 55.3838L81.9942 49.0526L48.8726 17.7356L0.60498 63.3732L7.08564 69.5013L12.4477 64.4319V100.876H75.7277Z" fill="#F2F2F2"/>
<path d="M75.9294 100.685V92.0193H21.8154V55.5751L49.0743 29.8012L75.9294 55.1937L82.1959 48.862L49.0743 17.5449L0.806152 63.1825L7.2874 69.3106L12.6495 64.2413V100.685H75.9294Z" fill="#EEEEEE"/>
<path d="M76.1309 100.495V91.8286H22.0168V55.3843L49.2758 29.6105L76.1309 55.0031L82.3973 48.6713L49.2758 17.3543L1.00757 62.9927L7.48883 69.1205L12.8509 64.0506V100.495H76.1309Z" fill="#EAEAEA"/>
<path d="M76.3325 100.304V91.638H22.2178V55.1937L49.4774 29.4199L76.3325 54.8124L82.599 48.4812L49.4774 17.1636L1.20923 62.802L7.69048 68.9304L13.0526 63.8599V100.304H76.3325Z" fill="#E6E6E6"/>
<path d="M76.5342 100.114V91.4473H22.4195V55.0031L49.6791 29.2293L76.5342 54.6218L82.8007 48.2906L49.6791 16.973L1.41089 62.6114L7.89215 68.7392L13.2542 63.6693V100.114H76.5342Z" fill="#E2E2E2"/>
<path d="M76.7358 99.9231V91.2566H22.6212V54.8124L49.8807 29.0386L76.7358 54.4311L83.0023 48.0999L49.8807 16.7823L1.61255 62.4207L8.09381 68.5486L13.4559 63.4786V99.9231H76.7358Z" fill="#DEDEDE"/>
<path d="M76.9375 99.7325V91.066H22.8228V54.6218L50.0824 28.8479L76.9375 54.2405L83.204 47.9092L50.0824 16.5917L1.81421 62.2301L8.29545 68.3579L13.6575 63.288V99.7325H76.9375Z" fill="#D9D9D9"/>
<path d="M77.1392 99.5424V90.8759H23.0245V54.4317L50.2841 28.6573L77.1392 54.0498L83.4056 47.7186L50.2841 16.401L2.01587 62.0394L8.49713 68.1678L13.8592 63.0979V99.5424H77.1392Z" fill="#D5D5D5"/>
<path d="M77.3408 99.3517V90.6847H23.2261V54.241L50.4851 28.4666L77.3408 53.8591L83.6067 47.5279L50.4851 16.2103L2.21753 61.8487L8.6988 67.9772L14.0603 62.9069V99.3517H77.3408Z" fill="#D1D1D1"/>
<path d="M77.5425 99.1605V90.494H23.4278V54.0503L50.6868 28.2759L77.5425 53.6685L83.8084 47.3373L50.6868 16.0197L2.41919 61.6581L8.90045 67.7859L14.2619 62.7163V99.1605H77.5425Z" fill="#CDCDCD"/>
<path d="M77.7435 98.9698V90.3039H23.6294V53.8596L50.8884 28.0859L77.7435 53.4778L84.01 47.1466L50.8884 15.8295L2.62085 61.4674L9.1015 67.5953L14.4636 62.5261V98.9698H77.7435Z" fill="#C9C9C9"/>
<path d="M77.9451 98.7792V90.1133H23.831V53.669L51.09 27.8952L77.9451 53.2877L84.2116 46.956L51.09 15.6389L2.82178 61.2768L9.30305 67.4046L14.6651 62.3355V98.7792H77.9451Z" fill="#C4C4C4"/>
<path d="M78.1467 98.5885V89.9226H24.0326V53.4784L51.2916 27.7045L78.1467 53.0971L84.4132 46.7653L51.2916 15.4483L3.02344 61.0867L9.5047 67.2145L14.8668 62.1449V98.5885H78.1467Z" fill="#C0C0C0"/>
<path d="M78.3484 98.3979V89.732H24.2343V53.2877L51.4933 27.5139L78.3484 52.9064L84.6149 46.5752L51.4933 15.2576L3.2251 60.896L9.70635 67.0239L15.0684 61.9542V98.3979H78.3484Z" fill="#BCBCBC"/>
<path d="M78.5501 98.2078V89.5413H24.4354V53.0971L51.695 27.3232L78.5501 52.7158L84.8166 46.3845L51.695 15.067L3.42676 60.7054L9.90802 66.8332L15.2701 61.7636V98.2078H78.5501Z" fill="#B8B8B8"/>
<path d="M78.7517 98.0177V89.3506H24.637V52.9064L51.8966 27.1326L78.7517 52.5251L85.0182 46.1939L51.8966 14.8763L3.62842 60.5147L10.1097 66.6431L15.4717 61.5729V98.0177H78.7517Z" fill="#B4B4B4"/>
<path d="M78.9534 97.8265V89.1605H24.8387V52.7163L52.0983 26.9419L78.9534 52.3344L85.2199 46.0032L52.0983 14.6856L3.83008 60.324L10.3113 66.4519L15.6734 61.3822V97.8265H78.9534Z" fill="#B0B0B0"/>
<path d="M79.155 97.6358V88.9693H25.0403V52.5257L52.2993 26.7513L79.155 52.1438L85.4215 45.8126L52.2993 14.495L4.03174 60.1334L10.513 66.2612L15.8745 61.1916V97.6358H79.155Z" fill="#ABABAB"/>
<path d="M79.3567 97.4451V88.7786H25.242V52.335L52.501 26.5606L79.3567 51.9531L85.6226 45.6219L52.501 14.3043L4.2334 59.9427L10.7146 66.0706L16.0761 61.0009V97.4451H79.3567Z" fill="#A7A7A7"/>
<path d="M79.5584 97.2545V88.5891H25.4437V52.1443L52.7027 26.3699L79.5584 51.7625L85.8243 45.4313L52.7027 14.1142L4.43506 59.7521L10.9163 65.8799L16.2778 60.8103V97.2545H79.5584Z" fill="#A3A3A3"/>
<path d="M79.76 97.0638V88.3979H25.6453V51.9537L52.9043 26.1798L79.76 51.5724L86.0259 45.2406L52.9043 13.9236L4.63672 59.5614L11.1174 65.6893L16.4795 60.6196V97.0638H79.76Z" fill="#9F9F9F"/>
<path d="M79.9609 96.8732V88.2072H25.8468V51.763L53.1058 25.9892L79.9609 51.3817L86.2274 45.0499L53.1058 13.7329L4.83765 59.3707L11.3189 65.4986L16.681 60.4295V96.8732H79.9609Z" fill="#9B9B9B"/>
<path d="M80.1626 96.6825V88.0166H26.0485V51.5724L53.3075 25.7985L80.1626 51.191L86.4291 44.8593L53.3075 13.5422L5.03931 59.1806L11.5206 65.3085L16.8826 60.2389V96.6825H80.1626Z" fill="#969696"/>
<path d="M80.3643 96.4924V87.8259H26.2502V51.3817L53.5092 25.6079L80.3643 51.0004L86.6307 44.6686L53.5092 13.3516L5.24097 58.99L11.7222 65.1179L17.0843 60.0482V96.4924H80.3643Z" fill="#929292"/>
<path d="M80.5659 96.3012V87.6353H26.4512V51.1911L53.7108 25.4172L80.5659 50.8097L86.8324 44.4785L53.7108 13.1609L5.44263 58.7993L11.9239 64.9272L17.286 59.8576V96.3012H80.5659Z" fill="#8E8E8E"/>
<path d="M80.7676 96.1111V87.4446H26.6529V51.0004L53.9125 25.2266L80.7676 50.6191L87.0341 44.2879L53.9125 12.9703L5.64429 58.6087L12.1255 64.7365L17.4876 59.6669V96.1111H80.7676Z" fill="#8A8A8A"/>
<path d="M80.9692 95.9204V87.2539H26.8545V50.8103L54.1141 25.0359L80.9692 50.4284L87.2357 44.0972L54.1141 12.7796L5.84595 58.418L12.3272 64.5459L17.6893 59.4762V95.9204H80.9692Z" fill="#868686"/>
<path d="M81.1709 95.7298V87.0633H27.0562V50.6196L54.3152 24.8452L81.1709 50.2378L87.4374 43.9065L54.3152 12.589L6.04761 58.2273L12.5289 64.3552L17.8909 59.2855V95.7298H81.1709Z" fill="#828282"/>
<path d="M81.3726 95.5397V86.8726H27.2579V50.429L54.5169 24.6546L81.3726 50.0471L87.639 43.7159L54.5169 12.3983L6.24927 58.0367L12.7305 64.1645L18.0926 59.0949V95.5397H81.3726Z" fill="#7D7D7D"/>
<path d="M81.574 95.3484V86.6825H27.4593V50.2383L54.7183 24.4645L81.574 49.8564L87.8399 43.5252L54.7183 12.2076L6.45068 57.846L12.9319 63.9739L18.2934 58.9042V95.3484H81.574Z" fill="#797979"/>
<path d="M81.7757 95.1584V86.4924H27.6611V50.0476L54.92 24.2738L81.7757 49.6658L88.0416 43.3346L54.92 12.0175L6.65186 57.6554L13.1331 63.7838L18.4952 58.7136V95.1584H81.7757Z" fill="#757575"/>
<path d="M81.9768 94.9671V86.3012H27.8627V49.857L55.1217 24.0832L81.9768 49.4757L88.2433 43.1439L55.1217 11.8269L6.85352 57.4647L13.3348 63.5931L18.6968 58.5235V94.9671H81.9768Z" fill="#717171"/>
<path d="M82.1785 94.7765V86.1106H28.0644V49.6663L55.3234 23.8925L82.1785 49.285L88.445 42.9533L55.3234 11.6362L7.05518 57.2741L13.5364 63.4025L18.8985 58.3328V94.7765H82.1785Z" fill="#6D6D6D"/>
<path d="M82.3801 94.5858V85.9199H28.266V49.4757L55.525 23.7018L82.3801 49.0944L88.6466 42.7626L55.525 11.4456L7.25684 57.084L13.7381 63.2118L19.1002 58.1422V94.5858H82.3801Z" fill="#696969"/>
<path d="M82.5818 94.3952V85.7292H28.4671V49.285L55.7267 23.5112L82.5818 48.9037L88.8483 42.5719L55.7267 11.2549L7.4585 56.8933L13.9398 63.0215L19.3018 57.9515V94.3952H82.5818Z" fill="#646464"/>
<path d="M82.7834 94.2051V85.5386H28.6688V49.0943L55.9283 23.3205L82.7834 48.713L89.0499 42.3818L55.9283 11.0642L7.66016 56.7026L14.1414 62.8308L19.5035 57.7608V94.2051H82.7834Z" fill="#606060"/>
<path d="M82.9851 94.0144V85.3479H28.8704V48.9043L56.13 23.1299L82.9851 48.5224L89.2516 42.1912L56.13 10.8736L7.86182 56.512L14.3431 62.6401L19.7051 57.5702V94.0144H82.9851Z" fill="#5C5C5C"/>
<path d="M83.1865 93.8238V85.1573H29.0718V48.7136L56.3308 22.9392L83.1865 48.3317L89.453 42.0005L56.3308 10.6829L8.06323 56.3213L14.5445 62.4495L19.9066 57.3795V93.8238H83.1865Z" fill="#585858"/>
<path d="M83.3884 93.6331V84.9666H29.2737V48.523L56.5327 22.7486L83.3884 48.1411L89.6549 41.8099L56.5327 10.4923L8.26514 56.1307L14.7464 62.2588L20.1079 57.1889V93.6331H83.3884Z" fill="#545454"/>
<path d="M83.5901 93.4424V84.7765H29.4754V48.3323L56.7344 22.5585L83.5901 47.9504L89.856 41.6192L56.7344 10.3016L8.4668 55.94L14.9481 62.0681L20.3095 56.9982V93.4424H83.5901Z" fill="#4F4F4F"/>
<path d="M83.7915 93.2518V84.5859H29.6768V48.1416L56.9358 22.3678L83.7915 47.7598L90.0574 41.4286L56.9358 10.1115L8.66821 55.7494L15.1489 61.8775L20.5109 56.8076V93.2518H83.7915Z" fill="#4B4B4B"/>
<path d="M83.9927 93.0611V84.3952H29.8786V47.951L57.1376 22.1772L83.9927 47.5697L90.2592 41.2379L57.1376 9.92086L8.86938 55.5587L15.3506 61.6869L20.7127 56.6175V93.0611H83.9927Z" fill="#474747"/>
<path d="M84.1943 92.8705V84.2045H30.0802V47.7603L57.3392 21.9865L84.1943 47.379L90.4608 41.0472L57.3392 9.73018L9.07104 55.368L15.5523 61.4962L20.9144 56.4268V92.8705H84.1943Z" fill="#434343"/>
<path d="M84.396 92.6798V84.0139H30.2819V47.5696L57.5409 21.7958L84.396 47.1883L90.6625 40.8566L57.5409 9.53952L9.27271 55.1779L15.754 61.3061L21.116 56.2361V92.6798H84.396Z" fill="#3F3F3F"/>
<path d="M84.5977 92.4903V83.8238H30.483V47.379L57.7426 21.6052L84.5977 46.9977L90.8641 40.6665L57.7426 9.3489L9.47437 54.9873L15.9556 61.1154L21.3177 56.0455V92.4903H84.5977Z" fill="#3B3B3B"/>
<path d="M84.7991 92.299V83.6325H30.6844V47.1883L57.944 21.4145L84.7991 46.807L91.0656 40.4758L57.944 9.15821L9.67578 54.7966L16.157 60.9248L21.5191 55.8548V92.299H84.7991Z" fill="#363636"/>
<path d="M85.001 92.1084V83.4419H30.8863V46.9982L58.1459 21.2238L85.001 46.6164L91.2675 40.2852L58.1459 8.96755L9.87769 54.606L16.3589 60.7341L21.721 55.6642V92.1084H85.001Z" fill="#323232"/>
<path d="M85.2026 91.9177V83.2513H31.088V46.8076L58.3475 21.0332L85.2026 46.4257L91.4691 40.0945L58.3475 8.77689L10.0793 54.4153L16.5606 60.5435L21.9227 55.4735V91.9177H85.2026Z" fill="#2E2E2E"/>
<path d="M85.4041 91.7276V83.0606H31.2894V46.6169L58.5484 20.8425L85.4041 46.2351L91.6705 39.9039L58.5484 8.58627L10.2808 54.2247L16.762 60.3528L22.1241 55.2829V91.7276H85.4041Z" fill="#2A2A2A"/>
<path d="M85.606 91.5364V82.8699H31.4913V46.4263L58.7503 20.6519L85.606 46.0444L91.8718 39.7132L58.7503 8.39614L10.4827 54.034L16.9639 60.1621L22.3254 55.0922V91.5364H85.606Z" fill="#262626"/>
<path d="M85.8074 91.3458V82.6798H31.6927V46.2356L58.9517 20.4618L85.8074 45.8537L92.0733 39.5225L58.9517 8.20548L10.6841 53.8433L17.1653 59.9715L22.5268 54.9016V91.3458H85.8074Z" fill="#212121"/>
<path d="M86.0084 91.1557V82.4892H31.8944V46.045L59.1533 20.2711L86.0084 45.6631L92.2749 39.3319L59.1533 8.01486L10.8857 53.6527L17.3664 59.7808L22.7285 54.7115V91.1557H86.0084Z" fill="#1D1D1D"/>
<path d="M86.2102 90.9644V82.2985H32.0961V45.8543L59.3551 20.0805L86.2102 45.473L92.4767 39.1412L59.3551 7.82418L11.0869 53.462L17.5682 59.5902L22.9302 54.5208V90.9644H86.2102Z" fill="#191919"/>
<path d="M86.4116 90.7738V82.1079H32.2969V45.6637L59.5565 19.8898L86.4116 45.2823L92.6781 38.9506L59.5565 7.63352L11.2883 53.2719L17.7696 59.4001L23.1317 54.3301V90.7738H86.4116Z" fill="#151515"/>
<path d="M86.6135 90.5837V81.9172H32.4988V45.473L59.7584 19.6992L86.6135 45.0917L92.88 38.7605L59.7584 7.44286L11.4902 53.0813L17.9715 59.2094L23.3336 54.1395V90.5837H86.6135Z" fill="#111111"/>
<path d="M86.8152 90.393V81.7266H32.7005V45.2823L59.9601 19.5085L86.8152 44.901L93.0817 38.5698L59.9601 7.25219L11.6919 52.8906L18.1732 59.0188L23.5352 53.9488V90.393H86.8152Z" fill="#0D0D0D"/>
<path d="M87.0166 90.2029V81.5359H32.9019V45.0917L60.1615 19.3178L87.0166 44.7103L93.2831 38.3791L60.1615 7.06155L11.8933 52.6999L18.3746 58.8281L23.7366 53.7582V90.2029H87.0166Z" fill="#080808"/>
<path d="M87.2185 90.0117V81.3452H33.1038V44.9016L60.3634 19.1272L87.2185 44.5197L93.485 38.1885L60.3634 6.87089L12.0952 52.5093L18.5765 58.6374L23.9385 53.5675V90.0117H87.2185Z" fill="#040404"/>
<path d="M87.4202 89.8211V81.1546H33.3055V44.7109L60.5651 18.9365L87.4202 44.329L93.6867 37.9978L60.5651 6.68023L12.2969 52.3186L18.7781 58.4468L24.1402 53.3768V89.8211H87.4202Z" fill="black"/>
</g>
<path d="M87.6932 89.284V80.6682H33.6657V44.4378L60.8813 18.8142L85.8855 42.1888H98.9891L60.8813 6.62963L12.6909 52.001L19.1617 58.0933L24.5152 53.053V89.284H87.6932Z" fill="#001842"/>
<path d="M41.446 70.5588L43.9127 66.5028C44.69 67.147 45.439 67.6766 46.1598 68.0905C46.8919 68.4933 47.6128 68.7926 48.3224 68.9882C49.0321 69.1723 49.7585 69.2643 50.5019 69.2643C51.3805 69.2643 52.1408 69.1375 52.7828 68.8846C53.4249 68.6317 53.9204 68.269 54.2696 67.7973C54.63 67.3256 54.8102 66.7789 54.8102 66.1572C54.8102 65.4326 54.585 64.8225 54.1344 64.3276C53.6839 63.8333 53.0926 63.4018 52.3604 63.0331C51.6395 62.6534 50.8568 62.2914 50.012 61.9458C49.1897 61.6008 48.3619 61.2266 47.5284 60.8238C46.7061 60.4099 45.9458 59.9208 45.2475 59.3569C44.5604 58.7931 44.0029 58.1084 43.5748 57.3029C43.1581 56.486 42.9497 55.4964 42.9497 54.3342C42.9497 52.8152 43.3214 51.5035 44.0648 50.3988C44.8195 49.2942 45.8501 48.4426 47.1566 47.8443C48.4632 47.2459 49.9557 46.9467 51.6339 46.9467C52.8166 46.9467 54.0443 47.1078 55.3171 47.4301C56.6012 47.7522 57.8796 48.2413 59.1523 48.8972L57.108 53.195C56.3083 52.7002 55.4467 52.309 54.523 52.0213C53.5994 51.7336 52.7321 51.5898 51.9211 51.5898C51.189 51.5898 50.547 51.7049 49.995 51.935C49.4544 52.1651 49.0321 52.4873 48.7279 52.9015C48.4238 53.3043 48.2718 53.7819 48.2718 54.3342C48.2718 54.9901 48.4914 55.5597 48.9307 56.0429C49.37 56.5147 49.9387 56.9347 50.6371 57.3029C51.3467 57.6712 52.107 58.0394 52.9179 58.4076C53.7515 58.7758 54.5906 59.1786 55.4354 59.6158C56.2914 60.0528 57.0686 60.5708 57.767 61.1693C58.4765 61.7563 59.0454 62.4638 59.4734 63.2921C59.9128 64.1094 60.1323 65.0931 60.1323 66.2438C60.1323 67.7626 59.738 69.0973 58.9496 70.248C58.1612 71.3871 57.063 72.2793 55.655 72.9235C54.2471 73.5562 52.6082 73.8731 50.7385 73.8731C49.0264 73.8731 47.3876 73.5909 45.8219 73.0271C44.2563 72.4634 42.7977 71.6406 41.446 70.5588ZM85.5431 47.4646V61.7045C85.5431 64.2356 85.0981 66.4108 84.208 68.2288C83.3298 70.0468 82.0627 71.445 80.4066 72.4232C78.7624 73.3898 76.7853 73.8731 74.4765 73.8731C72.1785 73.8731 70.202 73.3898 68.5459 72.4232C66.8904 71.445 65.6179 70.0468 64.7278 68.2288C63.849 66.4108 63.41 64.2356 63.41 61.7045V47.4646H68.6139V61.0487C68.6139 62.8551 68.8335 64.3623 69.2726 65.5709C69.723 66.7789 70.3822 67.6937 71.2496 68.3147C72.1165 68.9248 73.1927 69.2295 74.4765 69.2295C75.7604 69.2295 76.836 68.9248 77.7034 68.3147C78.5709 67.6937 79.2241 66.7789 79.6632 65.5709C80.1136 64.3623 80.3391 62.8551 80.3391 61.0487V47.4646H85.5431ZM94.8689 73.355H89.6655V47.4646H94.8689V60.2027C95.376 59.4432 95.8604 58.7413 96.3221 58.0969C96.7839 57.4526 97.1782 56.9232 97.5046 56.509L104.533 47.4646H110.666L101.374 59.4087L112.457 73.355H105.716L98.0457 63.6718L94.8689 67.7626V73.355ZM119.841 73.355H114.637V47.4646H119.841V58.2868H130.806V47.4646H136.009V73.355H130.806V62.9301H119.841V73.355ZM143.95 73.355H138.493L148.596 47.4646H154.087L164.174 73.355H158.717L156.639 67.7973H146.028L143.95 73.355ZM147.735 63.1367H154.949L151.333 53.5402L147.735 63.1367ZM189.669 73.355H183.688L171.845 55.6805V73.355H166.641V47.4646H172.622L184.465 65.1735V47.4646H189.669V73.355Z" fill="#001842"/>
<path d="M201.648 73.355V47.4646H218.003V52.1076H206.852V57.9933H217.31V62.6534H206.852V68.7121H218.171V73.355H201.648ZM220.773 70.5588L223.24 66.5028C224.017 67.147 224.766 67.6766 225.487 68.0905C226.219 68.4933 226.94 68.7926 227.65 68.9882C228.359 69.1723 229.086 69.2643 229.829 69.2643C230.708 69.2643 231.468 69.1375 232.11 68.8846C232.752 68.6317 233.248 68.269 233.597 67.7973C233.958 67.3256 234.138 66.7789 234.138 66.1572C234.138 65.4326 233.912 64.8225 233.462 64.3276C233.011 63.8333 232.42 63.4018 231.688 63.0331C230.967 62.6534 230.184 62.2914 229.339 61.9458C228.517 61.6008 227.689 61.2266 226.856 60.8238C226.034 60.4099 225.273 59.9208 224.575 59.3569C223.888 58.7931 223.33 58.1084 222.902 57.3029C222.485 56.486 222.277 55.4964 222.277 54.3342C222.277 52.8152 222.649 51.5035 223.392 50.3988C224.147 49.2942 225.178 48.4426 226.484 47.8443C227.791 47.2459 229.283 46.9467 230.962 46.9467C232.144 46.9467 233.372 47.1078 234.644 47.4301C235.929 47.7522 237.207 48.2413 238.48 48.8972L236.435 53.195C235.636 52.7002 234.774 52.309 233.85 52.0213C232.927 51.7336 232.059 51.5898 231.249 51.5898C230.516 51.5898 229.875 51.7049 229.323 51.935C228.782 52.1651 228.359 52.4873 228.056 52.9015C227.751 53.3043 227.599 53.7819 227.599 54.3342C227.599 54.9901 227.819 55.5597 228.258 56.0429C228.698 56.5147 229.266 56.9347 229.965 57.3029C230.674 57.6712 231.435 58.0394 232.245 58.4076C233.079 58.7758 233.918 59.1786 234.763 59.6158C235.619 60.0528 236.396 60.5708 237.094 61.1693C237.804 61.7563 238.373 62.4638 238.801 63.2921C239.24 64.1094 239.46 65.0931 239.46 66.2438C239.46 67.7626 239.066 69.0973 238.277 70.248C237.489 71.3871 236.39 72.2793 234.983 72.9235C233.575 73.5562 231.936 73.8731 230.066 73.8731C228.354 73.8731 226.715 73.5909 225.149 73.0271C223.584 72.4634 222.125 71.6406 220.773 70.5588ZM253.348 73.355H248.144V52.1076H240.676V47.4646H260.832V52.1076H253.348V73.355ZM265.022 73.355H259.565L269.668 47.4646H275.16L285.246 73.355H279.789L277.711 67.7973H267.101L265.022 73.355ZM268.807 63.1367H276.021L272.405 53.5402L268.807 63.1367ZM296.971 73.355H291.768V52.1076H284.3V47.4646H304.456V52.1076H296.971V73.355ZM306.872 73.355V47.4646H323.227V52.1076H312.076V57.9933H322.534V62.6534H312.076V68.7121H323.396V73.355H306.872Z" fill="#00B2FF"/>
<path d="M60.6331 6.62963L12.0044 52.3406L18.693 58.7019L67.3218 12.991L60.6331 6.62963Z" fill="#00B2FF"/>
<path d="M98.106 79.2H99.506V89H98.106V79.2ZM105.257 82H106.461L106.545 82.812C106.769 82.5227 107.054 82.2987 107.399 82.14C107.745 81.9813 108.127 81.902 108.547 81.902C109.089 81.902 109.555 82.0187 109.947 82.252C110.349 82.476 110.657 82.812 110.871 83.26C111.095 83.708 111.207 84.268 111.207 84.94V89H109.891V85.108C109.891 84.4547 109.751 83.96 109.471 83.624C109.201 83.2787 108.804 83.106 108.281 83.106C107.74 83.106 107.32 83.2833 107.021 83.638C106.723 83.9833 106.573 84.4967 106.573 85.178V89H105.257V82ZM117.501 82L119.517 87.586L121.547 82H122.947L120.217 89H118.789L116.073 82H117.501ZM130.956 89.098C130.284 89.098 129.687 88.944 129.164 88.636C128.651 88.3187 128.245 87.8847 127.946 87.334C127.657 86.7833 127.512 86.1533 127.512 85.444C127.512 84.7627 127.657 84.156 127.946 83.624C128.236 83.092 128.632 82.672 129.136 82.364C129.65 82.056 130.228 81.902 130.872 81.902C131.526 81.902 132.104 82.0467 132.608 82.336C133.112 82.616 133.504 83.0127 133.784 83.526C134.064 84.03 134.2 84.6133 134.19 85.276C134.19 85.388 134.186 85.5047 134.176 85.626C134.167 85.738 134.153 85.864 134.134 86.004H128.954C128.982 86.3773 129.085 86.7087 129.262 86.998C129.449 87.278 129.682 87.4973 129.962 87.656C130.252 87.8147 130.578 87.894 130.942 87.894C131.409 87.894 131.815 87.8053 132.16 87.628C132.506 87.4413 132.748 87.194 132.888 86.886L134.036 87.292C133.756 87.8613 133.346 88.3047 132.804 88.622C132.272 88.9393 131.656 89.098 130.956 89.098ZM132.748 84.87C132.748 84.534 132.664 84.2307 132.496 83.96C132.328 83.6893 132.1 83.4793 131.81 83.33C131.53 83.1713 131.213 83.092 130.858 83.092C130.541 83.092 130.247 83.1713 129.976 83.33C129.715 83.4793 129.491 83.6893 129.304 83.96C129.127 84.2213 129.015 84.5247 128.968 84.87H132.748ZM140.231 86.788C140.296 87.068 140.408 87.2873 140.567 87.446C140.726 87.6047 140.912 87.7213 141.127 87.796C141.351 87.8613 141.584 87.894 141.827 87.894C142.247 87.894 142.574 87.81 142.807 87.642C143.04 87.474 143.157 87.264 143.157 87.012C143.157 86.7973 143.082 86.6293 142.933 86.508C142.793 86.3773 142.602 86.2747 142.359 86.2C142.126 86.1253 141.874 86.0553 141.603 85.99C141.36 85.9247 141.094 85.85 140.805 85.766C140.525 85.682 140.259 85.57 140.007 85.43C139.764 85.2807 139.564 85.094 139.405 84.87C139.246 84.6367 139.167 84.3427 139.167 83.988C139.167 83.568 139.279 83.204 139.503 82.896C139.736 82.5787 140.054 82.336 140.455 82.168C140.866 81.9907 141.328 81.902 141.841 81.902C142.438 81.902 142.961 82.0327 143.409 82.294C143.866 82.546 144.198 82.9287 144.403 83.442L143.213 83.834C143.148 83.6567 143.04 83.512 142.891 83.4C142.742 83.288 142.569 83.2133 142.373 83.176C142.186 83.1293 142 83.106 141.813 83.106C141.458 83.106 141.164 83.176 140.931 83.316C140.698 83.456 140.581 83.6613 140.581 83.932C140.581 84.0813 140.618 84.2073 140.693 84.31C140.768 84.4033 140.87 84.4827 141.001 84.548C141.141 84.604 141.304 84.6553 141.491 84.702C141.678 84.7487 141.878 84.8 142.093 84.856C142.373 84.94 142.658 85.0333 142.947 85.136C143.236 85.2293 143.502 85.3507 143.745 85.5C143.988 85.6493 144.184 85.8453 144.333 86.088C144.482 86.3307 144.562 86.6293 144.571 86.984C144.571 87.3947 144.454 87.7587 144.221 88.076C143.997 88.3933 143.675 88.6453 143.255 88.832C142.844 89.0093 142.354 89.098 141.785 89.098C141.094 89.098 140.506 88.944 140.021 88.636C139.536 88.328 139.209 87.852 139.041 87.208L140.231 86.788ZM150.261 82V80.04H151.591V82H153.341V83.176H151.591V86.62C151.591 87.0493 151.675 87.3527 151.843 87.53C152.021 87.7073 152.24 87.81 152.501 87.838C152.772 87.8567 153.052 87.8473 153.341 87.81V88.944C152.959 89.028 152.581 89.0513 152.207 89.014C151.843 88.986 151.512 88.8833 151.213 88.706C150.924 88.5287 150.691 88.272 150.513 87.936C150.345 87.5907 150.261 87.152 150.261 86.62V83.176H149.253V82H150.261ZM171.747 82.126C171.747 81.594 171.589 81.1693 171.271 80.852C170.954 80.5347 170.45 80.376 169.759 80.376H167.519V83.862H169.773C170.231 83.862 170.604 83.792 170.893 83.652C171.183 83.5027 171.397 83.2973 171.537 83.036C171.677 82.7747 171.747 82.4713 171.747 82.126ZM169.759 79.2C170.534 79.2 171.169 79.3353 171.663 79.606C172.167 79.8673 172.541 80.2173 172.783 80.656C173.035 81.0947 173.161 81.5847 173.161 82.126C173.161 82.4807 173.101 82.8307 172.979 83.176C172.858 83.5213 172.662 83.8387 172.391 84.128C172.121 84.408 171.766 84.632 171.327 84.8C170.898 84.9587 170.38 85.038 169.773 85.038H167.519V89H166.119V79.2H169.759ZM170.655 84.562L173.357 89H171.775L169.171 84.562H170.655ZM178.772 82H180.102V89H178.772V82ZM179.444 80.768C179.192 80.768 178.982 80.684 178.814 80.516C178.646 80.348 178.562 80.1427 178.562 79.9C178.562 79.648 178.646 79.438 178.814 79.27C178.982 79.0927 179.192 79.004 179.444 79.004C179.686 79.004 179.892 79.0927 180.06 79.27C180.237 79.438 180.326 79.648 180.326 79.9C180.326 80.1427 180.237 80.348 180.06 80.516C179.892 80.684 179.686 80.768 179.444 80.768ZM191.198 82H192.402V87.852C192.402 88.6733 192.206 89.378 191.814 89.966C191.422 90.554 190.857 91.0067 190.12 91.324C189.392 91.6413 188.51 91.8 187.474 91.8L187.264 90.638C188.514 90.61 189.462 90.358 190.106 89.882C190.75 89.4153 191.072 88.7387 191.072 87.852V87.782L191.226 87.796C191.002 88.1507 190.68 88.4587 190.26 88.72C189.849 88.972 189.336 89.098 188.72 89.098C188.094 89.098 187.539 88.9487 187.054 88.65C186.578 88.3513 186.204 87.9313 185.934 87.39C185.672 86.8487 185.542 86.2187 185.542 85.5C185.542 84.7813 185.672 84.1513 185.934 83.61C186.204 83.0687 186.578 82.6487 187.054 82.35C187.539 82.0513 188.094 81.902 188.72 81.902C189.102 81.902 189.443 81.9533 189.742 82.056C190.05 82.1587 190.316 82.2987 190.54 82.476C190.764 82.644 190.95 82.8353 191.1 83.05L191.198 82ZM186.956 85.5C186.956 86.2187 187.142 86.7973 187.516 87.236C187.898 87.6747 188.407 87.894 189.042 87.894C189.415 87.894 189.756 87.8007 190.064 87.614C190.372 87.418 190.614 87.1427 190.792 86.788C190.978 86.424 191.072 85.9947 191.072 85.5C191.072 84.996 190.978 84.5667 190.792 84.212C190.614 83.8573 190.367 83.5867 190.05 83.4C189.742 83.204 189.406 83.106 189.042 83.106C188.407 83.106 187.898 83.3253 187.516 83.764C187.142 84.2027 186.956 84.7813 186.956 85.5ZM198.037 78.92H199.353V82.77C199.577 82.4993 199.866 82.2893 200.221 82.14C200.576 81.9813 200.968 81.902 201.397 81.902C201.92 81.902 202.377 82.0187 202.769 82.252C203.17 82.476 203.483 82.8167 203.707 83.274C203.931 83.722 204.043 84.282 204.043 84.954V89H202.657V85.122C202.657 84.4687 202.522 83.9693 202.251 83.624C201.98 83.2787 201.584 83.106 201.061 83.106C200.52 83.106 200.1 83.2833 199.801 83.638C199.502 83.9927 199.353 84.5107 199.353 85.192V89H198.037V78.92ZM210.041 82V80.04H211.371V82H213.121V83.176H211.371V86.62C211.371 87.0493 211.455 87.3527 211.623 87.53C211.8 87.7073 212.02 87.81 212.281 87.838C212.552 87.8567 212.832 87.8473 213.121 87.81V88.944C212.738 89.028 212.36 89.0513 211.987 89.014C211.623 88.986 211.292 88.8833 210.993 88.706C210.704 88.5287 210.47 88.272 210.293 87.936C210.125 87.5907 210.041 87.152 210.041 86.62V83.176H209.033V82H210.041ZM218.965 89.084C218.713 89.084 218.498 88.9953 218.321 88.818C218.143 88.6407 218.055 88.426 218.055 88.174C218.055 87.9127 218.143 87.6933 218.321 87.516C218.498 87.3387 218.713 87.25 218.965 87.25C219.217 87.25 219.431 87.3387 219.609 87.516C219.786 87.6933 219.875 87.9127 219.875 88.174C219.875 88.426 219.786 88.6407 219.609 88.818C219.431 88.9953 219.217 89.084 218.965 89.084ZM240.725 79.2V89H239.297L234.411 81.412V89H233.011V79.2H234.439L239.325 86.76V79.2H240.725ZM249.517 89.098C248.845 89.098 248.248 88.944 247.725 88.636C247.212 88.3187 246.806 87.8847 246.507 87.334C246.218 86.7833 246.073 86.1533 246.073 85.444C246.073 84.7627 246.218 84.156 246.507 83.624C246.796 83.092 247.193 82.672 247.697 82.364C248.21 82.056 248.789 81.902 249.433 81.902C250.086 81.902 250.665 82.0467 251.169 82.336C251.673 82.616 252.065 83.0127 252.345 83.526C252.625 84.03 252.76 84.6133 252.751 85.276C252.751 85.388 252.746 85.5047 252.737 85.626C252.728 85.738 252.714 85.864 252.695 86.004H247.515C247.543 86.3773 247.646 86.7087 247.823 86.998C248.01 87.278 248.243 87.4973 248.523 87.656C248.812 87.8147 249.139 87.894 249.503 87.894C249.97 87.894 250.376 87.8053 250.721 87.628C251.066 87.4413 251.309 87.194 251.449 86.886L252.597 87.292C252.317 87.8613 251.906 88.3047 251.365 88.622C250.833 88.9393 250.217 89.098 249.517 89.098ZM251.309 84.87C251.309 84.534 251.225 84.2307 251.057 83.96C250.889 83.6893 250.66 83.4793 250.371 83.33C250.091 83.1713 249.774 83.092 249.419 83.092C249.102 83.092 248.808 83.1713 248.537 83.33C248.276 83.4793 248.052 83.6893 247.865 83.96C247.688 84.2213 247.576 84.5247 247.529 84.87H251.309ZM258.792 86.788C258.857 87.068 258.969 87.2873 259.128 87.446C259.286 87.6047 259.473 87.7213 259.688 87.796C259.912 87.8613 260.145 87.894 260.388 87.894C260.808 87.894 261.134 87.81 261.368 87.642C261.601 87.474 261.718 87.264 261.718 87.012C261.718 86.7973 261.643 86.6293 261.494 86.508C261.354 86.3773 261.162 86.2747 260.92 86.2C260.686 86.1253 260.434 86.0553 260.164 85.99C259.921 85.9247 259.655 85.85 259.366 85.766C259.086 85.682 258.82 85.57 258.568 85.43C258.325 85.2807 258.124 85.094 257.966 84.87C257.807 84.6367 257.728 84.3427 257.728 83.988C257.728 83.568 257.84 83.204 258.064 82.896C258.297 82.5787 258.614 82.336 259.016 82.168C259.426 81.9907 259.888 81.902 260.402 81.902C260.999 81.902 261.522 82.0327 261.97 82.294C262.427 82.546 262.758 82.9287 262.964 83.442L261.774 83.834C261.708 83.6567 261.601 83.512 261.452 83.4C261.302 83.288 261.13 83.2133 260.934 83.176C260.747 83.1293 260.56 83.106 260.374 83.106C260.019 83.106 259.725 83.176 259.492 83.316C259.258 83.456 259.142 83.6613 259.142 83.932C259.142 84.0813 259.179 84.2073 259.254 84.31C259.328 84.4033 259.431 84.4827 259.562 84.548C259.702 84.604 259.865 84.6553 260.052 84.702C260.238 84.7487 260.439 84.8 260.654 84.856C260.934 84.94 261.218 85.0333 261.508 85.136C261.797 85.2293 262.063 85.3507 262.306 85.5C262.548 85.6493 262.744 85.8453 262.894 86.088C263.043 86.3307 263.122 86.6293 263.132 86.984C263.132 87.3947 263.015 87.7587 262.782 88.076C262.558 88.3933 262.236 88.6453 261.816 88.832C261.405 89.0093 260.915 89.098 260.346 89.098C259.655 89.098 259.067 88.944 258.582 88.636C258.096 88.328 257.77 87.852 257.602 87.208L258.792 86.788ZM268.822 82V80.04H270.152V82H271.902V83.176H270.152V86.62C270.152 87.0493 270.236 87.3527 270.404 87.53C270.582 87.7073 270.801 87.81 271.062 87.838C271.333 87.8567 271.613 87.8473 271.902 87.81V88.944C271.52 89.028 271.142 89.0513 270.768 89.014C270.404 88.986 270.073 88.8833 269.774 88.706C269.485 88.5287 269.252 88.272 269.074 87.936C268.906 87.5907 268.822 87.152 268.822 86.62V83.176H267.814V82H268.822ZM290.532 81.916C290.532 81.44 290.373 81.0667 290.056 80.796C289.748 80.516 289.3 80.376 288.712 80.376H286.08V83.442H288.726C289.295 83.442 289.739 83.3067 290.056 83.036C290.373 82.7653 290.532 82.392 290.532 81.916ZM284.68 89V79.2H288.838C289.529 79.2 290.103 79.3167 290.56 79.55C291.017 79.7833 291.358 80.0913 291.582 80.474C291.815 80.8567 291.932 81.2813 291.932 81.748C291.932 82.1867 291.848 82.5553 291.68 82.854C291.521 83.1527 291.307 83.3907 291.036 83.568C290.775 83.7453 290.476 83.8713 290.14 83.946V84.044C290.541 84.1 290.891 84.2213 291.19 84.408C291.498 84.5853 291.736 84.8373 291.904 85.164C292.081 85.4907 292.17 85.8967 292.17 86.382C292.17 86.8673 292.044 87.3107 291.792 87.712C291.54 88.1133 291.176 88.4307 290.7 88.664C290.233 88.888 289.664 89 288.992 89H284.68ZM286.08 87.824H288.866C289.463 87.824 289.93 87.6887 290.266 87.418C290.611 87.138 290.784 86.7413 290.784 86.228C290.784 85.7053 290.602 85.3087 290.238 85.038C289.883 84.758 289.412 84.618 288.824 84.618H286.08V87.824ZM297.546 82H298.75L298.834 82.938C299.03 82.6953 299.254 82.4947 299.506 82.336C299.768 82.168 300.048 82.0513 300.346 81.986C300.654 81.9207 300.972 81.9253 301.298 82V83.246C300.99 83.1713 300.692 83.162 300.402 83.218C300.113 83.274 299.852 83.3953 299.618 83.582C299.394 83.7593 299.212 83.9973 299.072 84.296C298.932 84.5947 298.862 84.954 298.862 85.374V89H297.546V82ZM306.482 82H307.812V89H306.482V82ZM307.154 80.768C306.902 80.768 306.692 80.684 306.524 80.516C306.356 80.348 306.272 80.1427 306.272 79.9C306.272 79.648 306.356 79.438 306.524 79.27C306.692 79.0927 306.902 79.004 307.154 79.004C307.397 79.004 307.602 79.0927 307.77 79.27C307.948 79.438 308.036 79.648 308.036 79.9C308.036 80.1427 307.948 80.348 307.77 80.516C307.602 80.684 307.397 80.768 307.154 80.768ZM318.908 82H320.112V87.852C320.112 88.6733 319.916 89.378 319.524 89.966C319.132 90.554 318.568 91.0067 317.83 91.324C317.102 91.6413 316.22 91.8 315.184 91.8L314.974 90.638C316.225 90.61 317.172 90.358 317.816 89.882C318.46 89.4153 318.782 88.7387 318.782 87.852V87.782L318.936 87.796C318.712 88.1507 318.39 88.4587 317.97 88.72C317.56 88.972 317.046 89.098 316.43 89.098C315.805 89.098 315.25 88.9487 314.764 88.65C314.288 88.3513 313.915 87.9313 313.644 87.39C313.383 86.8487 313.252 86.2187 313.252 85.5C313.252 84.7813 313.383 84.1513 313.644 83.61C313.915 83.0687 314.288 82.6487 314.764 82.35C315.25 82.0513 315.805 81.902 316.43 81.902C316.813 81.902 317.154 81.9533 317.452 82.056C317.76 82.1587 318.026 82.2987 318.25 82.476C318.474 82.644 318.661 82.8353 318.81 83.05L318.908 82ZM314.666 85.5C314.666 86.2187 314.853 86.7973 315.226 87.236C315.609 87.6747 316.118 87.894 316.752 87.894C317.126 87.894 317.466 87.8007 317.774 87.614C318.082 87.418 318.325 87.1427 318.502 86.788C318.689 86.424 318.782 85.9947 318.782 85.5C318.782 84.996 318.689 84.5667 318.502 84.212C318.325 83.8573 318.078 83.5867 317.76 83.4C317.452 83.204 317.116 83.106 316.752 83.106C316.118 83.106 315.609 83.3253 315.226 83.764C314.853 84.2027 314.666 84.7813 314.666 85.5ZM325.748 78.92H327.064V82.77C327.288 82.4993 327.577 82.2893 327.932 82.14C328.286 81.9813 328.678 81.902 329.108 81.902C329.63 81.902 330.088 82.0187 330.48 82.252C330.881 82.476 331.194 82.8167 331.418 83.274C331.642 83.722 331.754 84.282 331.754 84.954V89H330.368V85.122C330.368 84.4687 330.232 83.9693 329.962 83.624C329.691 83.2787 329.294 83.106 328.772 83.106C328.23 83.106 327.81 83.2833 327.512 83.638C327.213 83.9927 327.064 84.5107 327.064 85.192V89H325.748V78.92ZM337.752 82V80.04H339.082V82H340.832V83.176H339.082V86.62C339.082 87.0493 339.166 87.3527 339.334 87.53C339.511 87.7073 339.73 87.81 339.992 87.838C340.262 87.8567 340.542 87.8473 340.832 87.81V88.944C340.449 89.028 340.071 89.0513 339.698 89.014C339.334 88.986 339.002 88.8833 338.704 88.706C338.414 88.5287 338.181 88.272 338.004 87.936C337.836 87.5907 337.752 87.152 337.752 86.62V83.176H336.744V82H337.752Z" fill="#001842"/>
<path d="M307 73.4805V47.5192H322.986V52.175H312.087V58.0768H322.309V62.7496H312.087V68.8249H323.151V73.4805H307ZM325.694 70.6767L328.105 66.6096C328.865 67.2555 329.596 67.7866 330.301 68.2016C331.017 68.6055 331.721 68.9056 332.415 69.1018C333.108 69.2863 333.819 69.3786 334.545 69.3786C335.404 69.3786 336.147 69.2515 336.774 68.9979C337.402 68.7442 337.886 68.3806 338.228 67.9076C338.58 67.4346 338.757 66.8864 338.757 66.263C338.757 65.5364 338.536 64.9247 338.096 64.4284C337.656 63.9328 337.078 63.5001 336.362 63.1304C335.657 62.7496 334.892 62.3866 334.067 62.0401C333.263 61.6942 332.454 61.319 331.639 60.915C330.835 60.5 330.092 60.0095 329.41 59.4441C328.738 58.8788 328.193 58.1922 327.775 57.3845C327.367 56.5653 327.164 55.573 327.164 54.4076C327.164 52.8846 327.527 51.5692 328.253 50.4615C328.991 49.3538 329.999 48.5 331.276 47.9C332.553 47.3 334.011 47 335.652 47C336.808 47 338.008 47.1615 339.252 47.4846C340.507 47.8077 341.757 48.2981 343 48.9558L341.002 53.2654C340.221 52.7692 339.379 52.3769 338.475 52.0884C337.573 51.8 336.725 51.6557 335.932 51.6557C335.217 51.6557 334.59 51.7711 334.05 52.0019C333.521 52.2327 333.108 52.5557 332.812 52.9711C332.514 53.3749 332.366 53.8538 332.366 54.4076C332.366 55.0653 332.58 55.6365 333.009 56.1211C333.439 56.5941 333.995 57.0153 334.678 57.3845C335.371 57.7538 336.114 58.123 336.907 58.4922C337.721 58.8615 338.542 59.2653 339.368 59.7037C340.204 60.1419 340.964 60.6614 341.646 61.2615C342.34 61.85 342.896 62.5596 343.314 63.3901C343.744 64.2096 343.958 65.196 343.958 66.3498C343.958 67.8728 343.573 69.2112 342.802 70.365C342.032 71.5072 340.958 72.4019 339.582 73.0479C338.206 73.6822 336.604 74 334.777 74C333.103 74 331.501 73.717 329.971 73.1517C328.441 72.5864 327.015 71.7614 325.694 70.6767ZM357.533 73.4805H352.446V52.175H345.147V47.5192H364.849V52.175H357.533V73.4805ZM368.944 73.4805H363.61L373.485 47.5192H378.853L388.711 73.4805H383.377L381.346 67.9076H370.975L368.944 73.4805ZM372.643 63.2342H379.695L376.16 53.6115L372.643 63.2342ZM400.172 73.4805H395.086V52.175H387.787V47.5192H407.488V52.175H400.172V73.4805ZM409.849 73.4805V47.5192H425.835V52.175H414.935V58.0768H425.158V62.7496H414.935V68.8249H426V73.4805H409.849Z" fill="#00B2FF"/>
</g>
<defs>
<clipPath id="clip0_152_468">
<rect width="345" height="112" fill="white"/>
</clipPath>
</defs>
</svg>
