<svg width="367" height="118" viewBox="0 0 367 118" fill="none" xmlns="http://www.w3.org/2000/svg">
<g opacity="0.2">
<path d="M78.9978 106.883V97.7518H22.0921V59.3558L50.7577 32.2006L78.9978 58.9534L85.5875 52.2831L50.7577 19.2877L0 67.3708L6.81553 73.8272L12.4542 68.4857V106.883H78.9978Z" fill="white"/>
<path d="M79.21 106.682V97.5509H22.3043V59.1549L50.9692 31.9997L79.21 58.7526L85.7991 52.0822L50.9692 19.0869L0.212158 67.1699L7.02768 73.6263L12.6657 68.2848V106.682H79.21Z" fill="#FBFBFB"/>
<path d="M79.4219 106.481V97.3512H22.5162V58.954L51.1811 31.7995L79.4219 58.5517L86.011 51.8813L51.1811 18.886L0.424072 66.9696L7.23898 73.426L12.8776 68.0845V106.481H79.4219Z" fill="#F7F7F7"/>
<path d="M79.6333 106.28V97.1498H22.7282V58.7532L51.3931 31.5986L79.6333 58.3508L86.223 51.6804L51.3931 18.6857L0.636108 66.7681L7.45101 73.2246L13.0896 67.8836V106.28H79.6333Z" fill="#F2F2F2"/>
<path d="M79.8455 106.079V96.9489H22.9404V58.5523L51.6053 31.3977L79.8455 58.1505L86.4352 51.4796L51.6053 18.4848L0.847656 66.5673L7.66319 73.0237L13.3018 67.6828V106.079H79.8455Z" fill="#EEEEEE"/>
<path d="M80.0574 105.878V96.748H23.1523V58.3514L51.8172 31.1968L80.0574 57.9497L86.6471 51.2786L51.8172 18.284L1.05957 66.3673L7.87511 72.8234L13.5137 67.4819V105.878H80.0574Z" fill="#EAEAEA"/>
<path d="M80.2695 105.678V96.5471H23.3637V58.1505L52.0293 30.996L80.2695 57.7488L86.8591 51.0784L52.0293 18.0831L1.27161 66.1664L8.08714 72.6231L13.7258 67.281V105.678H80.2695Z" fill="#E6E6E6"/>
<path d="M80.4815 105.477V96.3463H23.5758V57.9497L52.2413 30.7951L80.4815 57.5479L87.0712 50.8776L52.2413 17.8822L1.48364 65.9656L8.29918 72.4217L13.9378 67.0802V105.477H80.4815Z" fill="#E2E2E2"/>
<path d="M80.6935 105.276V96.1454H23.7878V57.7488L52.4533 30.5942L80.6935 57.3471L87.2832 50.6767L52.4533 17.6814L1.69568 65.7647L8.51121 72.2208L14.1498 66.8793V105.276H80.6935Z" fill="#DEDEDE"/>
<path d="M80.9057 105.075V95.9445H24V57.5479L52.6655 30.3934L80.9057 57.1462L87.4954 50.4758L52.6655 17.4805L1.90784 65.5638L8.72336 72.0199L14.362 66.6784V105.075H80.9057Z" fill="#D9D9D9"/>
<path d="M81.1176 104.875V95.7442H24.2119V57.3476L52.8774 30.1925L81.1176 56.9453L87.7073 50.2749L52.8774 17.2796L2.11975 65.3629L8.93529 71.8197L14.5739 66.4781V104.875H81.1176Z" fill="#D5D5D5"/>
<path d="M81.3298 104.674V95.5428H24.4241V57.1468L53.089 29.9916L81.3298 56.7444L87.9188 50.0741L53.089 17.0787L2.33191 65.1621L9.14746 71.6188L14.7855 66.2769V104.674H81.3298Z" fill="#D1D1D1"/>
<path d="M81.5418 104.473V95.3419H24.6361V56.9459L53.301 29.7907L81.5418 56.5436L88.1309 49.8732L53.301 16.8779L2.54395 64.9612L9.35949 71.4173L14.9975 66.0761V104.473H81.5418Z" fill="#CDCDCD"/>
<path d="M81.7532 104.272V95.1416H24.8481V56.745L53.513 29.5905L81.7532 56.3426L88.3429 49.6723L53.513 16.6775L2.75598 64.7602L9.57088 71.2164L15.2095 65.8757V104.272H81.7532Z" fill="#C9C9C9"/>
<path d="M81.9653 104.071V94.9407H25.0602V56.5442L53.7251 29.3896L81.9653 56.1424L88.555 49.4714L53.7251 16.4767L2.96741 64.5594L9.78296 71.0156L15.4216 65.6749V104.071H81.9653Z" fill="#C4C4C4"/>
<path d="M82.1773 103.87V94.7399H25.2722V56.3433L53.9371 29.1887L82.1773 55.9416L88.767 49.2706L53.9371 16.2758L3.17944 64.3592L9.99498 70.8153L15.6336 65.4741V103.87H82.1773Z" fill="#C0C0C0"/>
<path d="M82.3893 103.669V94.539H25.4842V56.1424L54.1491 28.9879L82.3893 55.7407L88.979 49.0703L54.1491 16.075L3.39148 64.1583L10.207 70.6144L15.8456 65.2732V103.669H82.3893Z" fill="#BCBCBC"/>
<path d="M82.6014 103.469V94.3381H25.6957V55.9416L54.3612 28.787L82.6014 55.5398L89.1911 48.8694L54.3612 15.8741L3.60352 63.9574L10.4191 70.4136L16.0577 65.0723V103.469H82.6014Z" fill="#B8B8B8"/>
<path d="M82.8133 103.269V94.1373H25.9076V55.7407L54.5731 28.5861L82.8133 55.3389L89.403 48.6686L54.5731 15.6732L3.81543 63.7565L10.631 70.2133L16.2696 64.8715V103.269H82.8133Z" fill="#B4B4B4"/>
<path d="M83.0255 103.067V93.937H26.1197V55.5404L54.7853 28.3852L83.0255 55.1381L89.6151 48.4677L54.7853 15.4724L4.02759 63.5557L10.8431 70.0118L16.4818 64.6706V103.067H83.0255Z" fill="#B0B0B0"/>
<path d="M83.2376 102.866V93.7355H26.3319V55.3395L54.9968 28.1844L83.2376 54.9372L89.8273 48.2668L54.9968 15.2715L4.23975 63.3548L11.0553 69.8109L16.6933 64.4697V102.866H83.2376Z" fill="#ABABAB"/>
<path d="M83.4495 102.665V93.5347H26.5438V55.1387L55.2087 27.9835L83.4495 54.7363L90.0386 48.0659L55.2087 15.0706L4.45166 63.1539L11.2672 69.6101L16.9052 64.2688V102.665H83.4495Z" fill="#A7A7A7"/>
<path d="M83.6615 102.465V93.335H26.7558V54.9378L55.4207 27.7826L83.6615 54.5354L90.2506 47.8651L55.4207 14.8703L4.6637 62.9531L11.4792 69.4092L17.1172 64.068V102.465H83.6615Z" fill="#A3A3A3"/>
<path d="M83.8737 102.264V93.1335H26.968V54.7369L55.6329 27.5823L83.8737 54.3352L90.4628 47.6642L55.6329 14.6695L4.87585 62.7522L11.6908 69.2083L17.3294 63.8671V102.264H83.8737Z" fill="#9F9F9F"/>
<path d="M84.085 102.063V92.9326H27.1799V54.536L55.8448 27.3815L84.085 54.1343L90.6747 47.4633L55.8448 14.4686L5.08716 62.5513L11.9027 69.0075L17.5413 63.6668V102.063H84.085Z" fill="#9B9B9B"/>
<path d="M84.297 101.862V92.7318H27.392V54.3352L56.0569 27.1806L84.297 53.9334L90.8867 47.2624L56.0569 14.2677L5.29919 62.351L12.1147 68.8072L17.7534 63.4659V101.862H84.297Z" fill="#969696"/>
<path d="M84.5092 101.662V92.5309H27.6041V54.1343L56.269 26.9797L84.5092 53.7326L91.0989 47.0616L56.269 14.0669L5.51135 62.1502L12.3269 68.6063L17.9655 63.2651V101.662H84.5092Z" fill="#929292"/>
<path d="M84.7211 101.46V92.33H27.8154V53.9334L56.4809 26.7789L84.7211 53.5317L91.3108 46.8613L56.4809 13.866L5.72327 61.9493L12.5388 68.4054L18.1774 63.0642V101.46H84.7211Z" fill="#8E8E8E"/>
<path d="M84.9333 101.26V92.1291H28.0276V53.7326L56.6931 26.578L84.9333 53.3308L91.523 46.6604L56.6931 13.6651L5.93542 61.7484L12.751 68.2046L18.3896 62.8633V101.26H84.9333Z" fill="#8A8A8A"/>
<path d="M85.1452 101.059V91.9283H28.2395V53.5323L56.905 26.3771L85.1452 53.1299L91.7349 46.4596L56.905 13.4642L6.14734 61.5476L12.9629 68.0037L18.6015 62.6624V101.059H85.1452Z" fill="#868686"/>
<path d="M85.3573 100.858V91.7274H28.4516V53.3313L57.1165 26.1762L85.3573 52.9291L91.947 46.2587L57.1165 13.2634L6.3595 61.3466L13.175 67.8028L18.8137 62.4615V100.858H85.3573Z" fill="#828282"/>
<path d="M85.5694 100.658V91.5265H28.6637V53.1305L57.3286 25.9753L85.5694 52.7282L92.1591 46.0578L57.3286 13.0625L6.57153 61.1458L13.3871 67.6019L19.0257 62.2607V100.658H85.5694Z" fill="#7D7D7D"/>
<path d="M85.7813 100.456V91.3262H28.8756V52.9297L57.5405 25.7751L85.7813 52.5273L92.3703 45.8569L57.5405 12.8616L6.78345 60.9449L13.599 67.4011L19.237 62.0598V100.456H85.7813Z" fill="#797979"/>
<path d="M85.9935 100.256V91.126H29.0878V52.7288L57.7527 25.5742L85.9935 52.3264L92.5825 45.6561L57.7527 12.6613L6.995 60.7441L13.8105 67.2008L19.4492 61.859V100.256H85.9935Z" fill="#757575"/>
<path d="M86.2049 100.055V90.9245H29.2998V52.5279L57.9647 25.3733L86.2049 52.1262L92.7946 45.4552L57.9647 12.4605L7.20703 60.5432L14.0226 66.9999L19.6612 61.6587V100.055H86.2049Z" fill="#717171"/>
<path d="M86.4169 99.8538V90.7236H29.5118V52.327L58.1767 25.1725L86.4169 51.9253L93.0066 45.2543L58.1767 12.2596L7.41907 60.3423L14.2346 66.799L19.8732 61.4578V99.8538H86.4169Z" fill="#6D6D6D"/>
<path d="M86.6289 99.6529V90.5228H29.7239V52.1262L58.3888 24.9716L86.6289 51.7244L93.2186 45.0535L58.3888 12.0587L7.6311 60.142L14.4466 66.5982L20.0853 61.2569V99.6529H86.6289Z" fill="#696969"/>
<path d="M86.8409 99.4521V90.3219H29.9352V51.9253L58.6007 24.7707L86.8409 51.5236L93.4306 44.8526L58.6007 11.8578L7.84302 59.9412L14.6586 66.3976L20.2972 61.0561V99.4521H86.8409Z" fill="#646464"/>
<path d="M87.053 99.2518V90.121H30.1473V51.7244L58.8128 24.5698L87.053 51.3227L93.6427 44.6523L58.8128 11.6569L8.05518 59.7403L14.8707 66.1967L20.5093 60.8551V99.2518H87.053Z" fill="#606060"/>
<path d="M87.2652 99.0509V89.9201H30.3595V51.5242L59.025 24.369L87.2652 51.1218L93.8549 44.4514L59.025 11.4561L8.26733 59.5394L15.0829 65.9959L20.7215 60.6543V99.0509H87.2652Z" fill="#5C5C5C"/>
<path d="M87.4771 98.85V89.7193H30.5714V51.3233L59.2363 24.1681L87.4771 50.9209L94.0668 44.2506L59.2363 11.2552L8.47925 59.3385L15.2948 65.795L20.9334 60.4534V98.85H87.4771Z" fill="#585858"/>
<path d="M87.6891 98.6492V89.5184H30.7834V51.1224L59.4483 23.9672L87.6891 50.7201L94.2788 44.0497L59.4483 11.0544L8.69128 59.1377L15.5068 65.5941L21.1448 60.2526V98.6492H87.6891Z" fill="#545454"/>
<path d="M87.9013 98.4483V89.3181H30.9956V50.9215L59.6605 23.7669L87.9013 50.5192L94.4903 43.8488L59.6605 10.8535L8.90344 58.9368L15.719 65.3932L21.357 60.0517V98.4483H87.9013Z" fill="#4F4F4F"/>
<path d="M88.1132 98.2474V89.1173H31.2075V50.7207L59.8724 23.5661L88.1132 50.3183L94.7023 43.6479L59.8724 10.6532L9.11536 58.7359L15.9303 65.1924L21.5689 59.8508V98.2474H88.1132Z" fill="#4B4B4B"/>
<path d="M88.3246 98.0465V88.9164H31.4196V50.5198L60.0845 23.3652L88.3246 50.118L94.9143 43.4471L60.0845 10.4523L9.32678 58.5351L16.1423 64.9915L21.7809 59.6506V98.0465H88.3246Z" fill="#474747"/>
<path d="M88.5368 97.8457V88.7155H31.6317V50.3189L60.2966 23.1643L88.5368 49.9172L95.1265 43.2462L60.2966 10.2514L9.53894 58.3342L16.3545 64.7906L21.9931 59.4497V97.8457H88.5368Z" fill="#434343"/>
<path d="M88.7487 97.6448V88.5146H31.8436V50.118L60.5085 22.9635L88.7487 49.7163L95.3384 43.0453L60.5085 10.0506L9.75085 58.1339L16.5664 64.5903L22.205 59.2487V97.6448H88.7487Z" fill="#3F3F3F"/>
<path d="M88.9609 97.4451V88.3144H32.0552V49.9172L60.7207 22.7626L88.9609 49.5154L95.5505 42.845L60.7207 9.84973L9.96301 57.933L16.7785 64.3895L22.4172 59.0479V97.4451H88.9609Z" fill="#3B3B3B"/>
<path d="M89.1728 97.2436V88.1129H32.2671V49.7163L60.9326 22.5617L89.1728 49.3145L95.7625 42.6442L60.9326 9.64883L10.1749 57.7322L16.9905 64.1886L22.6291 58.8471V97.2436H89.1728Z" fill="#363636"/>
<path d="M89.3849 97.0428V87.912H32.4792V49.516L61.1447 22.3608L89.3849 49.1137L95.9746 42.4433L61.1447 9.44796L10.3871 57.5313L17.2026 63.9877L22.8412 58.6462V97.0428H89.3849Z" fill="#323232"/>
<path d="M89.597 96.8419V87.7111H32.6913V49.3151L61.3568 22.16L89.597 48.9128L96.1867 42.2424L61.3568 9.24708L10.5991 57.3304L17.4147 63.7868L23.0533 58.4453V96.8419H89.597Z" fill="#2E2E2E"/>
<path d="M89.8089 96.6416V87.5103H32.9032V49.1143L61.5681 21.9591L89.8089 48.7119L96.3986 42.0416L61.5681 9.04625L10.811 57.1296L17.6266 63.586L23.2652 58.2445V96.6416H89.8089Z" fill="#2A2A2A"/>
<path d="M90.021 96.4402V87.3094H33.1153V48.9134L61.7802 21.7582L90.021 48.5111L96.6101 41.8407L61.7802 8.84594L11.0232 56.9287L17.8387 63.3851L23.4767 58.0436V96.4402H90.021Z" fill="#262626"/>
<path d="M90.233 96.2393V87.1091H33.3273V48.7125L61.9921 21.558L90.233 48.3102L96.822 41.6398L61.9921 8.64506L11.2351 56.7278L18.0506 63.1842L23.6886 57.8427V96.2393H90.233Z" fill="#212121"/>
<path d="M90.4445 96.039V86.9083H33.5394V48.5117L62.2043 21.3571L90.4445 48.1093L97.0342 41.439L62.2043 8.44423L11.4473 56.5269L18.2622 62.9834L23.9008 57.6424V96.039H90.4445Z" fill="#1D1D1D"/>
<path d="M90.6565 95.8375V86.7074H33.7515V48.3108L62.4164 21.1562L90.6565 47.909L97.2462 41.2381L62.4164 8.24333L11.6587 56.3261L18.4742 62.7825L24.1129 57.4415V95.8375H90.6565Z" fill="#191919"/>
<path d="M90.8685 95.6367V86.5065H33.9627V48.1099L62.6283 20.9553L90.8685 47.7082L97.4581 41.0372L62.6283 8.04245L11.8706 56.1258L18.6861 62.5822L24.3248 57.2407V95.6367H90.8685Z" fill="#151515"/>
<path d="M91.0806 95.4364V86.3056H34.1749V47.909L62.8404 20.7545L91.0806 47.5073L97.6703 40.8369L62.8404 7.84158L12.0828 55.9249L18.8983 62.3813L24.5369 57.0398V95.4364H91.0806Z" fill="#111111"/>
<path d="M91.2926 95.2355V86.1048H34.3869V47.7082L63.0525 20.5536L91.2926 47.3064L97.8823 40.6361L63.0525 7.64071L12.2948 55.724L19.1103 62.1805L24.749 56.8389V95.2355H91.2926Z" fill="#0D0D0D"/>
<path d="M91.5047 95.0352V85.9039H34.599V47.5073L63.2645 20.3527L91.5047 47.1055L98.0944 40.4352L63.2645 7.43985L12.5068 55.5232L19.3224 61.9796L24.961 56.6381V95.0352H91.5047Z" fill="#080808"/>
<path d="M91.7167 94.8338V85.703H34.811V47.307L63.4765 20.1518L91.7167 46.9047L98.3064 40.2343L63.4765 7.23897L12.7189 55.3223L19.5344 61.7787L25.173 56.4372V94.8338H91.7167Z" fill="#040404"/>
<path d="M91.9289 94.6329V85.5021H35.0232V47.1062L63.6887 19.951L91.9289 46.7038L98.5186 40.0334L63.6887 7.0381L12.931 55.1214L19.7466 61.5779L25.3852 56.2363V94.6329H91.9289Z" fill="black"/>
</g>
<path d="M92.216 94.067V84.9897H35.402V46.8184L64.0213 19.8221L90.3151 44.4489H104.095L64.0213 6.98479L13.3455 54.7867L20.15 61.2054L25.7796 55.8951V94.067H92.216Z" fill="#001842"/>
<path d="M43.5836 74.3387L46.1775 70.0654C46.9948 70.7442 47.7825 71.3022 48.5405 71.7382C49.3104 72.1626 50.0685 72.4779 50.8146 72.684C51.5609 72.8779 52.3248 72.9749 53.1065 72.9749C54.0304 72.9749 54.8299 72.8413 55.5051 72.5748C56.1802 72.3084 56.7014 71.9263 57.0686 71.4293C57.4476 70.9323 57.6371 70.3563 57.6371 69.7014C57.6371 68.9379 57.4002 68.2951 56.9264 67.7737C56.4526 67.253 55.8308 66.7984 55.0609 66.4099C54.3028 66.0098 53.4797 65.6284 52.5914 65.2643C51.7267 64.9009 50.8561 64.5066 49.9796 64.0822C49.115 63.6462 48.3155 63.1308 47.5811 62.5367C46.8586 61.9427 46.2723 61.2214 45.8222 60.3727C45.3839 59.512 45.1649 58.4694 45.1649 57.2449C45.1649 55.6446 45.5557 54.2626 46.3374 53.0988C47.131 51.9349 48.2148 51.0378 49.5887 50.4074C50.9627 49.777 52.5321 49.4618 54.2969 49.4618C55.5406 49.4618 56.8317 49.6315 58.1701 49.971C59.5204 50.3104 60.8647 50.8256 62.2031 51.5167L60.0534 56.0447C59.2124 55.5234 58.3063 55.1112 57.3351 54.8082C56.3638 54.5051 55.4518 54.3535 54.5989 54.3535C53.8291 54.3535 53.154 54.4748 52.5735 54.7172C52.005 54.9597 51.5609 55.2991 51.2411 55.7356C50.9212 56.1599 50.7614 56.663 50.7614 57.2449C50.7614 57.936 50.9923 58.5361 51.4543 59.0452C51.9162 59.5423 52.5143 59.9848 53.2487 60.3727C53.9949 60.7607 54.7944 61.1486 55.6472 61.5366C56.5237 61.9246 57.4062 62.3489 58.2945 62.8095C59.1947 63.2699 60.0119 63.8157 60.7463 64.4463C61.4925 65.0646 62.0906 65.8101 62.5407 66.6828C63.0028 67.5438 63.2337 68.5802 63.2337 69.7925C63.2337 71.3927 62.819 72.7989 61.99 74.0113C61.1608 75.2114 60.006 76.1514 58.5254 76.8302C57.0449 77.4967 55.3215 77.8306 53.3553 77.8306C51.5549 77.8306 49.8316 77.5333 48.1852 76.9393C46.5388 76.3454 45.0049 75.4785 43.5836 74.3387ZM89.955 50.0073V65.0101C89.955 67.6768 89.487 69.9685 88.551 71.8839C87.6276 73.7994 86.2951 75.2724 84.5536 76.303C82.8246 77.3214 80.7455 77.8306 78.3177 77.8306C75.9011 77.8306 73.8227 77.3214 72.0812 76.303C70.3403 75.2724 69.0022 73.7994 68.0662 71.8839C67.1421 69.9685 66.6803 67.6768 66.6803 65.0101V50.0073H72.1527V64.3191C72.1527 66.2224 72.3836 67.8103 72.8453 69.0836C73.319 70.3563 74.0122 71.3201 74.9243 71.9745C75.8359 72.6172 76.9676 72.9383 78.3177 72.9383C79.6677 72.9383 80.7989 72.6172 81.711 71.9745C82.6232 71.3201 83.3101 70.3563 83.7719 69.0836C84.2455 67.8103 84.4827 66.2224 84.4827 64.3191V50.0073H89.955ZM99.7618 77.2848H94.29V50.0073H99.7618V63.4279C100.295 62.6277 100.804 61.8881 101.29 61.2092C101.776 60.5304 102.19 59.9727 102.533 59.5363L109.925 50.0073H116.374L106.602 62.5913L118.257 77.2848H111.168L103.102 67.0828L99.7618 71.3927V77.2848ZM126.021 77.2848H120.549V50.0073H126.021V61.4093H137.552V50.0073H143.024V77.2848H137.552V66.3013H126.021V77.2848ZM151.375 77.2848H145.636L156.26 50.0073H162.034L172.641 77.2848H166.903L164.718 71.4293H153.56L151.375 77.2848ZM155.354 66.519H162.941L159.139 56.4084L155.354 66.519ZM199.452 77.2848H193.162L180.708 58.6634V77.2848H175.235V50.0073H181.525L193.979 68.665V50.0073H199.452V77.2848Z" fill="#001842"/>
<path d="M212.048 77.2848V50.0073H229.246V54.8991H217.52V61.1001H228.518V66.0098H217.52V72.3931H229.424V77.2848H212.048ZM232.16 74.3387L234.754 70.0654C235.571 70.7442 236.359 71.3022 237.117 71.7382C237.887 72.1626 238.645 72.4779 239.391 72.684C240.137 72.8779 240.901 72.9749 241.683 72.9749C242.607 72.9749 243.406 72.8413 244.081 72.5748C244.757 72.3084 245.278 71.9263 245.645 71.4293C246.024 70.9323 246.214 70.3563 246.214 69.7014C246.214 68.9379 245.976 68.2951 245.503 67.7737C245.029 67.253 244.407 66.7984 243.637 66.4099C242.879 66.0098 242.056 65.6284 241.168 65.2643C240.303 64.9009 239.433 64.5066 238.556 64.0822C237.692 63.6462 236.892 63.1308 236.158 62.5367C235.435 61.9427 234.849 61.2214 234.399 60.3727C233.96 59.512 233.741 58.4694 233.741 57.2449C233.741 55.6446 234.132 54.2626 234.914 53.0988C235.707 51.9349 236.791 51.0378 238.165 50.4074C239.539 49.777 241.108 49.4618 242.874 49.4618C244.117 49.4618 245.408 49.6315 246.746 49.971C248.097 50.3104 249.441 50.8256 250.779 51.5167L248.63 56.0447C247.789 55.5234 246.883 55.1112 245.911 54.8082C244.94 54.5051 244.028 54.3535 243.175 54.3535C242.406 54.3535 241.731 54.4748 241.15 54.7172C240.581 54.9597 240.137 55.2991 239.818 55.7356C239.498 56.1599 239.338 56.663 239.338 57.2449C239.338 57.936 239.569 58.5361 240.03 59.0452C240.493 59.5423 241.091 59.9848 241.825 60.3727C242.571 60.7607 243.371 61.1486 244.224 61.5366C245.1 61.9246 245.983 62.3489 246.871 62.8095C247.771 63.2699 248.588 63.8157 249.323 64.4463C250.069 65.0646 250.667 65.8101 251.117 66.6828C251.579 67.5438 251.81 68.5802 251.81 69.7925C251.81 71.3927 251.396 72.7989 250.566 74.0113C249.737 75.2114 248.582 76.1514 247.102 76.8302C245.621 77.4967 243.898 77.8306 241.932 77.8306C240.131 77.8306 238.408 77.5333 236.761 76.9393C235.115 76.3454 233.581 75.4785 232.16 74.3387ZM266.414 77.2848H260.942V54.8991H253.089V50.0073H274.285V54.8991H266.414V77.2848ZM278.691 77.2848H272.953L283.577 50.0073H289.351L299.958 77.2848H294.219L292.034 71.4293H280.877L278.691 77.2848ZM282.671 66.519H290.257L286.455 56.4084L282.671 66.519ZM312.288 77.2848H306.816V54.8991H298.963V50.0073H320.159V54.8991H312.288V77.2848ZM322.7 77.2848V50.0073H339.898V54.8991H328.171V61.1001H339.169V66.0098H328.171V72.3931H340.075V77.2848H322.7Z" fill="#00B2FF"/>
<path d="M63.7604 6.98478L12.6235 55.1445L19.6571 61.8467L70.794 13.6869L63.7604 6.98478Z" fill="#00B2FF"/>
<path d="M97.4294 91.633C97.4854 91.885 97.602 92.137 97.7794 92.389C97.966 92.6317 98.218 92.837 98.5354 93.005C98.862 93.1637 99.2774 93.243 99.7814 93.243C100.5 93.243 101.032 93.075 101.377 92.739C101.723 92.403 101.895 92.0063 101.895 91.549C101.895 91.185 101.797 90.8863 101.601 90.653C101.405 90.4197 101.139 90.2283 100.803 90.079C100.467 89.9203 100.089 89.7803 99.6694 89.659C99.296 89.5563 98.9227 89.4443 98.5494 89.323C98.1854 89.1923 97.854 89.0337 97.5554 88.847C97.2567 88.651 97.0187 88.399 96.8414 88.091C96.664 87.783 96.5754 87.4003 96.5754 86.943C96.5754 86.3923 96.706 85.9163 96.9674 85.515C97.2287 85.1043 97.5974 84.787 98.0734 84.563C98.5494 84.339 99.1047 84.227 99.7394 84.227C100.29 84.227 100.771 84.3063 101.181 84.465C101.592 84.6237 101.933 84.8477 102.203 85.137C102.483 85.417 102.689 85.7437 102.819 86.117L101.825 86.495C101.76 86.2803 101.634 86.075 101.447 85.879C101.261 85.6737 101.018 85.5057 100.719 85.375C100.421 85.2443 100.08 85.179 99.6974 85.179C99.324 85.179 98.9834 85.2443 98.6754 85.375C98.3767 85.5057 98.1387 85.6923 97.9614 85.935C97.784 86.1777 97.6954 86.4717 97.6954 86.817C97.6954 87.1903 97.798 87.489 98.0034 87.713C98.218 87.9277 98.498 88.105 98.8434 88.245C99.198 88.3757 99.5854 88.5017 100.005 88.623C100.388 88.7443 100.757 88.875 101.111 89.015C101.475 89.155 101.797 89.3277 102.077 89.533C102.367 89.7383 102.595 89.995 102.763 90.303C102.931 90.611 103.015 90.989 103.015 91.437C103.015 91.9317 102.899 92.3937 102.665 92.823C102.432 93.243 102.077 93.5837 101.601 93.845C101.135 94.097 100.533 94.223 99.7954 94.223C99.1794 94.223 98.638 94.1297 98.1714 93.943C97.7047 93.747 97.322 93.4857 97.0234 93.159C96.7247 92.8323 96.5194 92.459 96.4074 92.039L97.4294 91.633ZM105.09 87.125H106.056L106.126 88.133C106.332 87.797 106.607 87.531 106.952 87.335C107.307 87.1297 107.727 87.027 108.212 87.027C108.707 87.027 109.155 87.1483 109.556 87.391C109.967 87.6243 110.284 87.9743 110.508 88.441C110.723 87.965 111.05 87.6103 111.488 87.377C111.927 87.1437 112.412 87.027 112.944 87.027C113.467 87.027 113.929 87.1437 114.33 87.377C114.732 87.601 115.044 87.9417 115.268 88.399C115.492 88.847 115.604 89.4117 115.604 90.093V94.125H114.554V90.219C114.554 89.491 114.396 88.9403 114.078 88.567C113.77 88.1843 113.327 87.993 112.748 87.993C112.16 87.993 111.694 88.1983 111.348 88.609C111.003 89.0103 110.83 89.6077 110.83 90.401V94.125H109.78V90.219C109.78 89.491 109.631 88.9403 109.332 88.567C109.034 88.1843 108.595 87.993 108.016 87.993C107.428 87.993 106.966 88.1983 106.63 88.609C106.304 89.0103 106.14 89.6077 106.14 90.401V94.125H105.09V87.125ZM122.303 94.125L122.219 92.865C122.023 93.2943 121.734 93.6303 121.351 93.873C120.969 94.1063 120.483 94.223 119.895 94.223C119.391 94.223 118.962 94.1437 118.607 93.985C118.253 93.8263 117.977 93.6023 117.781 93.313C117.595 93.0143 117.501 92.6643 117.501 92.263C117.501 91.675 117.721 91.1943 118.159 90.821C118.598 90.4383 119.233 90.205 120.063 90.121L122.219 89.883V89.323C122.219 88.931 122.075 88.6183 121.785 88.385C121.496 88.1423 121.104 88.021 120.609 88.021C120.124 88.021 119.718 88.133 119.391 88.357C119.074 88.581 118.855 88.903 118.733 89.323L117.781 88.987C117.968 88.371 118.309 87.8903 118.803 87.545C119.307 87.1997 119.919 87.027 120.637 87.027C121.468 87.027 122.112 87.2417 122.569 87.671C123.036 88.091 123.269 88.665 123.269 89.393V94.125H122.303ZM122.219 90.779L120.049 91.031C119.583 91.087 119.228 91.2177 118.985 91.423C118.743 91.619 118.621 91.8803 118.621 92.207C118.621 92.5337 118.738 92.795 118.971 92.991C119.214 93.187 119.559 93.285 120.007 93.285C120.521 93.285 120.941 93.1823 121.267 92.977C121.594 92.7717 121.832 92.4963 121.981 92.151C122.14 91.7963 122.219 91.4137 122.219 91.003V90.779ZM125.598 87.125H126.564L126.62 88.147C126.806 87.895 127.03 87.6803 127.292 87.503C127.562 87.3257 127.856 87.2043 128.174 87.139C128.5 87.0643 128.846 87.0597 129.21 87.125V88.175C128.818 88.1003 128.463 88.1003 128.146 88.175C127.838 88.2497 127.572 88.3897 127.348 88.595C127.124 88.8003 126.951 89.0617 126.83 89.379C126.708 89.687 126.648 90.0463 126.648 90.457V94.125H125.598V87.125ZM131.371 87.125V85.165H132.421V87.125H134.283V88.105H132.421V91.871C132.421 92.3003 132.509 92.613 132.687 92.809C132.873 93.005 133.107 93.1217 133.387 93.159C133.676 93.1963 133.975 93.1963 134.283 93.159V94.069C133.919 94.153 133.559 94.1763 133.205 94.139C132.859 94.1017 132.547 93.999 132.267 93.831C131.996 93.6537 131.777 93.4063 131.609 93.089C131.45 92.7717 131.371 92.3657 131.371 91.871V88.105H130.321V87.125H131.371ZM141.56 94.125H140.44V84.325H141.672L145.312 92.585L148.938 84.325H150.156V94.125H149.036V86.537L145.704 94.125H144.906L141.56 86.537V94.125ZM155.732 94.223C155.069 94.223 154.477 94.0783 153.954 93.789C153.431 93.4997 153.021 93.089 152.722 92.557C152.423 92.0157 152.274 91.3763 152.274 90.639C152.274 89.8923 152.423 89.2483 152.722 88.707C153.03 88.1657 153.445 87.7503 153.968 87.461C154.5 87.1717 155.097 87.027 155.76 87.027C156.423 87.027 157.015 87.1717 157.538 87.461C158.07 87.7503 158.485 88.1657 158.784 88.707C159.092 89.239 159.246 89.8737 159.246 90.611C159.246 91.3577 159.092 92.0017 158.784 92.543C158.476 93.0843 158.056 93.4997 157.524 93.789C156.992 94.0783 156.395 94.223 155.732 94.223ZM155.718 93.229C156.129 93.229 156.516 93.1403 156.88 92.963C157.244 92.7763 157.538 92.4917 157.762 92.109C157.995 91.717 158.112 91.2223 158.112 90.625C158.112 90.0183 158 89.5237 157.776 89.141C157.552 88.7583 157.258 88.4783 156.894 88.301C156.539 88.1143 156.157 88.021 155.746 88.021C155.335 88.021 154.953 88.1143 154.598 88.301C154.243 88.4783 153.954 88.763 153.73 89.155C153.515 89.5377 153.408 90.0277 153.408 90.625C153.408 91.2317 153.515 91.7263 153.73 92.109C153.945 92.4917 154.225 92.7763 154.57 92.963C154.925 93.1403 155.307 93.229 155.718 93.229ZM161.652 87.125L163.864 92.949L166.09 87.125H167.196L164.396 94.125H163.304L160.532 87.125H161.652ZM171.849 94.223C171.195 94.223 170.612 94.0643 170.099 93.747C169.595 93.4297 169.198 92.9957 168.909 92.445C168.619 91.8943 168.475 91.2643 168.475 90.555C168.475 89.8737 168.619 89.267 168.909 88.735C169.198 88.203 169.595 87.7877 170.099 87.489C170.603 87.181 171.177 87.027 171.821 87.027C172.455 87.027 173.02 87.167 173.515 87.447C174.019 87.727 174.411 88.1143 174.691 88.609C174.971 89.1037 175.101 89.6683 175.083 90.303C175.083 90.4057 175.078 90.513 175.069 90.625C175.059 90.737 175.05 90.8583 175.041 90.989H169.623C169.641 91.4277 169.749 91.815 169.945 92.151C170.141 92.487 170.397 92.753 170.715 92.949C171.041 93.1357 171.41 93.229 171.821 93.229C172.362 93.229 172.819 93.1263 173.193 92.921C173.575 92.7157 173.851 92.4217 174.019 92.039L174.929 92.403C174.649 92.991 174.243 93.4437 173.711 93.761C173.179 94.069 172.558 94.223 171.849 94.223ZM173.935 90.079C173.944 89.6777 173.855 89.323 173.669 89.015C173.491 88.707 173.239 88.4643 172.913 88.287C172.586 88.1097 172.208 88.021 171.779 88.021C171.405 88.021 171.065 88.1097 170.757 88.287C170.449 88.4643 170.192 88.7117 169.987 89.029C169.791 89.337 169.674 89.687 169.637 90.079H173.935ZM177.665 91.983C177.721 92.263 177.824 92.4963 177.973 92.683C178.122 92.8603 178.314 92.9957 178.547 93.089C178.79 93.1823 179.07 93.229 179.387 93.229C179.882 93.229 180.255 93.1357 180.507 92.949C180.768 92.753 180.899 92.5103 180.899 92.221C180.899 91.9783 180.82 91.7823 180.661 91.633C180.512 91.4837 180.311 91.3623 180.059 91.269C179.807 91.1663 179.527 91.0777 179.219 91.003C178.976 90.947 178.715 90.8817 178.435 90.807C178.155 90.723 177.889 90.611 177.637 90.471C177.385 90.331 177.18 90.149 177.021 89.925C176.862 89.701 176.783 89.407 176.783 89.043C176.783 88.6417 176.89 88.2917 177.105 87.993C177.329 87.685 177.632 87.447 178.015 87.279C178.407 87.111 178.855 87.027 179.359 87.027C179.938 87.027 180.451 87.153 180.899 87.405C181.356 87.657 181.674 88.049 181.851 88.581L180.871 88.917C180.806 88.6743 180.684 88.4877 180.507 88.357C180.339 88.2263 180.148 88.1377 179.933 88.091C179.728 88.0443 179.522 88.021 179.317 88.021C178.897 88.021 178.556 88.105 178.295 88.273C178.043 88.4317 177.917 88.6743 177.917 89.001C177.917 89.1783 177.959 89.3277 178.043 89.449C178.127 89.561 178.244 89.6543 178.393 89.729C178.542 89.8037 178.72 89.869 178.925 89.925C179.13 89.9717 179.354 90.0277 179.597 90.093C179.868 90.1583 180.143 90.2423 180.423 90.345C180.703 90.4383 180.964 90.5643 181.207 90.723C181.45 90.8723 181.646 91.0683 181.795 91.311C181.954 91.5443 182.033 91.8383 182.033 92.193C182.033 92.6037 181.921 92.963 181.697 93.271C181.473 93.5697 181.16 93.803 180.759 93.971C180.367 94.139 179.91 94.223 179.387 94.223C178.668 94.223 178.071 94.0643 177.595 93.747C177.128 93.4203 176.816 92.9443 176.657 92.319L177.665 91.983ZM184.589 94.195C184.375 94.195 184.193 94.1203 184.043 93.971C183.903 93.8217 183.833 93.6397 183.833 93.425C183.833 93.2103 183.903 93.0283 184.043 92.879C184.193 92.7297 184.375 92.655 184.589 92.655C184.795 92.655 184.972 92.7297 185.121 92.879C185.271 93.0283 185.345 93.2103 185.345 93.425C185.345 93.6397 185.271 93.8217 185.121 93.971C184.972 94.1203 184.795 94.195 184.589 94.195ZM192.452 91.633C192.508 91.885 192.625 92.137 192.802 92.389C192.989 92.6317 193.241 92.837 193.558 93.005C193.885 93.1637 194.3 93.243 194.804 93.243C195.523 93.243 196.055 93.075 196.4 92.739C196.746 92.403 196.918 92.0063 196.918 91.549C196.918 91.185 196.82 90.8863 196.624 90.653C196.428 90.4197 196.162 90.2283 195.826 90.079C195.49 89.9203 195.112 89.7803 194.692 89.659C194.319 89.5563 193.946 89.4443 193.572 89.323C193.208 89.1923 192.877 89.0337 192.578 88.847C192.28 88.651 192.042 88.399 191.864 88.091C191.687 87.783 191.598 87.4003 191.598 86.943C191.598 86.3923 191.729 85.9163 191.99 85.515C192.252 85.1043 192.62 84.787 193.096 84.563C193.572 84.339 194.128 84.227 194.762 84.227C195.313 84.227 195.794 84.3063 196.204 84.465C196.615 84.6237 196.956 84.8477 197.226 85.137C197.506 85.417 197.712 85.7437 197.842 86.117L196.848 86.495C196.783 86.2803 196.657 86.075 196.47 85.879C196.284 85.6737 196.041 85.5057 195.742 85.375C195.444 85.2443 195.103 85.179 194.72 85.179C194.347 85.179 194.006 85.2443 193.698 85.375C193.4 85.5057 193.162 85.6923 192.984 85.935C192.807 86.1777 192.718 86.4717 192.718 86.817C192.718 87.1903 192.821 87.489 193.026 87.713C193.241 87.9277 193.521 88.105 193.866 88.245C194.221 88.3757 194.608 88.5017 195.028 88.623C195.411 88.7443 195.78 88.875 196.134 89.015C196.498 89.155 196.82 89.3277 197.1 89.533C197.39 89.7383 197.618 89.995 197.786 90.303C197.954 90.611 198.038 90.989 198.038 91.437C198.038 91.9317 197.922 92.3937 197.688 92.823C197.455 93.243 197.1 93.5837 196.624 93.845C196.158 94.097 195.556 94.223 194.818 94.223C194.202 94.223 193.661 94.1297 193.194 93.943C192.728 93.747 192.345 93.4857 192.046 93.159C191.748 92.8323 191.542 92.459 191.43 92.039L192.452 91.633ZM200.113 87.125H201.079L201.149 88.133C201.355 87.797 201.63 87.531 201.975 87.335C202.33 87.1297 202.75 87.027 203.235 87.027C203.73 87.027 204.178 87.1483 204.579 87.391C204.99 87.6243 205.307 87.9743 205.531 88.441C205.746 87.965 206.073 87.6103 206.511 87.377C206.95 87.1437 207.435 87.027 207.967 87.027C208.49 87.027 208.952 87.1437 209.353 87.377C209.755 87.601 210.067 87.9417 210.291 88.399C210.515 88.847 210.627 89.4117 210.627 90.093V94.125H209.577V90.219C209.577 89.491 209.419 88.9403 209.101 88.567C208.793 88.1843 208.35 87.993 207.771 87.993C207.183 87.993 206.717 88.1983 206.371 88.609C206.026 89.0103 205.853 89.6077 205.853 90.401V94.125H204.803V90.219C204.803 89.491 204.654 88.9403 204.355 88.567C204.057 88.1843 203.618 87.993 203.039 87.993C202.451 87.993 201.989 88.1983 201.653 88.609C201.327 89.0103 201.163 89.6077 201.163 90.401V94.125H200.113V87.125ZM217.326 94.125L217.242 92.865C217.046 93.2943 216.757 93.6303 216.374 93.873C215.991 94.1063 215.506 94.223 214.918 94.223C214.414 94.223 213.985 94.1437 213.63 93.985C213.275 93.8263 213 93.6023 212.804 93.313C212.617 93.0143 212.524 92.6643 212.524 92.263C212.524 91.675 212.743 91.1943 213.182 90.821C213.621 90.4383 214.255 90.205 215.086 90.121L217.242 89.883V89.323C217.242 88.931 217.097 88.6183 216.808 88.385C216.519 88.1423 216.127 88.021 215.632 88.021C215.147 88.021 214.741 88.133 214.414 88.357C214.097 88.581 213.877 88.903 213.756 89.323L212.804 88.987C212.991 88.371 213.331 87.8903 213.826 87.545C214.33 87.1997 214.941 87.027 215.66 87.027C216.491 87.027 217.135 87.2417 217.592 87.671C218.059 88.091 218.292 88.665 218.292 89.393V94.125H217.326ZM217.242 90.779L215.072 91.031C214.605 91.087 214.251 91.2177 214.008 91.423C213.765 91.619 213.644 91.8803 213.644 92.207C213.644 92.5337 213.761 92.795 213.994 92.991C214.237 93.187 214.582 93.285 215.03 93.285C215.543 93.285 215.963 93.1823 216.29 92.977C216.617 92.7717 216.855 92.4963 217.004 92.151C217.163 91.7963 217.242 91.4137 217.242 91.003V90.779ZM220.621 87.125H221.587L221.643 88.147C221.829 87.895 222.053 87.6803 222.315 87.503C222.585 87.3257 222.879 87.2043 223.197 87.139C223.523 87.0643 223.869 87.0597 224.233 87.125V88.175C223.841 88.1003 223.486 88.1003 223.169 88.175C222.861 88.2497 222.595 88.3897 222.371 88.595C222.147 88.8003 221.974 89.0617 221.853 89.379C221.731 89.687 221.671 90.0463 221.671 90.457V94.125H220.621V87.125ZM226.393 87.125V85.165H227.443V87.125H229.305V88.105H227.443V91.871C227.443 92.3003 227.532 92.613 227.709 92.809C227.896 93.005 228.129 93.1217 228.409 93.159C228.699 93.1963 228.997 93.1963 229.305 93.159V94.069C228.941 94.153 228.582 94.1763 228.227 94.139C227.882 94.1017 227.569 93.999 227.289 93.831C227.019 93.6537 226.799 93.4063 226.631 93.089C226.473 92.7717 226.393 92.3657 226.393 91.871V88.105H225.343V87.125H226.393ZM234.087 94.223C233.434 94.223 232.851 94.0643 232.337 93.747C231.833 93.4297 231.437 92.9957 231.147 92.445C230.858 91.8943 230.713 91.2643 230.713 90.555C230.713 89.8737 230.858 89.267 231.147 88.735C231.437 88.203 231.833 87.7877 232.337 87.489C232.841 87.181 233.415 87.027 234.059 87.027C234.694 87.027 235.259 87.167 235.753 87.447C236.257 87.727 236.649 88.1143 236.929 88.609C237.209 89.1037 237.34 89.6683 237.321 90.303C237.321 90.4057 237.317 90.513 237.307 90.625C237.298 90.737 237.289 90.8583 237.279 90.989H231.861C231.88 91.4277 231.987 91.815 232.183 92.151C232.379 92.487 232.636 92.753 232.953 92.949C233.28 93.1357 233.649 93.229 234.059 93.229C234.601 93.229 235.058 93.1263 235.431 92.921C235.814 92.7157 236.089 92.4217 236.257 92.039L237.167 92.403C236.887 92.991 236.481 93.4437 235.949 93.761C235.417 94.069 234.797 94.223 234.087 94.223ZM236.173 90.079C236.183 89.6777 236.094 89.323 235.907 89.015C235.73 88.707 235.478 88.4643 235.151 88.287C234.825 88.1097 234.447 88.021 234.017 88.021C233.644 88.021 233.303 88.1097 232.995 88.287C232.687 88.4643 232.431 88.7117 232.225 89.029C232.029 89.337 231.913 89.687 231.875 90.079H236.173ZM239.33 87.125H240.296L240.352 88.147C240.538 87.895 240.762 87.6803 241.024 87.503C241.294 87.3257 241.588 87.2043 241.906 87.139C242.232 87.0643 242.578 87.0597 242.942 87.125V88.175C242.55 88.1003 242.195 88.1003 241.878 88.175C241.57 88.2497 241.304 88.3897 241.08 88.595C240.856 88.8003 240.683 89.0617 240.562 89.379C240.44 89.687 240.38 90.0463 240.38 90.457V94.125H239.33V87.125ZM248.97 84.325H250.09V94.125H248.97V84.325ZM252.638 87.125H253.604L253.66 88.119C253.884 87.7737 254.178 87.5077 254.542 87.321C254.906 87.125 255.331 87.027 255.816 87.027C256.348 87.027 256.815 87.1437 257.216 87.377C257.618 87.601 257.93 87.9417 258.154 88.399C258.378 88.847 258.49 89.4117 258.49 90.093V94.125H257.44V90.219C257.44 89.491 257.282 88.9403 256.964 88.567C256.656 88.1843 256.208 87.993 255.62 87.993C255.014 87.993 254.538 88.1937 254.192 88.595C253.856 88.9963 253.688 89.589 253.688 90.373V94.125H252.638V87.125ZM261.213 87.125L263.425 92.949L265.651 87.125H266.757L263.957 94.125H262.865L260.093 87.125H261.213ZM271.41 94.223C270.757 94.223 270.173 94.0643 269.66 93.747C269.156 93.4297 268.759 92.9957 268.47 92.445C268.181 91.8943 268.036 91.2643 268.036 90.555C268.036 89.8737 268.181 89.267 268.47 88.735C268.759 88.203 269.156 87.7877 269.66 87.489C270.164 87.181 270.738 87.027 271.382 87.027C272.017 87.027 272.581 87.167 273.076 87.447C273.58 87.727 273.972 88.1143 274.252 88.609C274.532 89.1037 274.663 89.6683 274.644 90.303C274.644 90.4057 274.639 90.513 274.63 90.625C274.621 90.737 274.611 90.8583 274.602 90.989H269.184C269.203 91.4277 269.31 91.815 269.506 92.151C269.702 92.487 269.959 92.753 270.276 92.949C270.603 93.1357 270.971 93.229 271.382 93.229C271.923 93.229 272.381 93.1263 272.754 92.921C273.137 92.7157 273.412 92.4217 273.58 92.039L274.49 92.403C274.21 92.991 273.804 93.4437 273.272 93.761C272.74 94.069 272.119 94.223 271.41 94.223ZM273.496 90.079C273.505 89.6777 273.417 89.323 273.23 89.015C273.053 88.707 272.801 88.4643 272.474 88.287C272.147 88.1097 271.769 88.021 271.34 88.021C270.967 88.021 270.626 88.1097 270.318 88.287C270.01 88.4643 269.753 88.7117 269.548 89.029C269.352 89.337 269.235 89.687 269.198 90.079H273.496ZM277.226 91.983C277.282 92.263 277.385 92.4963 277.534 92.683C277.684 92.8603 277.875 92.9957 278.108 93.089C278.351 93.1823 278.631 93.229 278.948 93.229C279.443 93.229 279.816 93.1357 280.068 92.949C280.33 92.753 280.46 92.5103 280.46 92.221C280.46 91.9783 280.381 91.7823 280.222 91.633C280.073 91.4837 279.872 91.3623 279.62 91.269C279.368 91.1663 279.088 91.0777 278.78 91.003C278.538 90.947 278.276 90.8817 277.996 90.807C277.716 90.723 277.45 90.611 277.198 90.471C276.946 90.331 276.741 90.149 276.582 89.925C276.424 89.701 276.344 89.407 276.344 89.043C276.344 88.6417 276.452 88.2917 276.666 87.993C276.89 87.685 277.194 87.447 277.576 87.279C277.968 87.111 278.416 87.027 278.92 87.027C279.499 87.027 280.012 87.153 280.46 87.405C280.918 87.657 281.235 88.049 281.412 88.581L280.432 88.917C280.367 88.6743 280.246 88.4877 280.068 88.357C279.9 88.2263 279.709 88.1377 279.494 88.091C279.289 88.0443 279.084 88.021 278.878 88.021C278.458 88.021 278.118 88.105 277.856 88.273C277.604 88.4317 277.478 88.6743 277.478 89.001C277.478 89.1783 277.52 89.3277 277.604 89.449C277.688 89.561 277.805 89.6543 277.954 89.729C278.104 89.8037 278.281 89.869 278.486 89.925C278.692 89.9717 278.916 90.0277 279.158 90.093C279.429 90.1583 279.704 90.2423 279.984 90.345C280.264 90.4383 280.526 90.5643 280.768 90.723C281.011 90.8723 281.207 91.0683 281.356 91.311C281.515 91.5443 281.594 91.8383 281.594 92.193C281.594 92.6037 281.482 92.963 281.258 93.271C281.034 93.5697 280.722 93.803 280.32 93.971C279.928 94.139 279.471 94.223 278.948 94.223C278.23 94.223 277.632 94.0643 277.156 93.747C276.69 93.4203 276.377 92.9443 276.218 92.319L277.226 91.983ZM284.025 87.125V85.165H285.075V87.125H286.937V88.105H285.075V91.871C285.075 92.3003 285.163 92.613 285.341 92.809C285.527 93.005 285.761 93.1217 286.041 93.159C286.33 93.1963 286.629 93.1963 286.937 93.159V94.069C286.573 94.153 286.213 94.1763 285.859 94.139C285.513 94.1017 285.201 93.999 284.921 93.831C284.65 93.6537 284.431 93.4063 284.263 93.089C284.104 92.7717 284.025 92.3657 284.025 91.871V88.105H282.975V87.125H284.025ZM288.779 87.125H289.745L289.815 88.133C290.02 87.797 290.295 87.531 290.641 87.335C290.995 87.1297 291.415 87.027 291.901 87.027C292.395 87.027 292.843 87.1483 293.245 87.391C293.655 87.6243 293.973 87.9743 294.197 88.441C294.411 87.965 294.738 87.6103 295.177 87.377C295.615 87.1437 296.101 87.027 296.633 87.027C297.155 87.027 297.617 87.1437 298.019 87.377C298.42 87.601 298.733 87.9417 298.957 88.399C299.181 88.847 299.293 89.4117 299.293 90.093V94.125H298.243V90.219C298.243 89.491 298.084 88.9403 297.767 88.567C297.459 88.1843 297.015 87.993 296.437 87.993C295.849 87.993 295.382 88.1983 295.037 88.609C294.691 89.0103 294.519 89.6077 294.519 90.401V94.125H293.469V90.219C293.469 89.491 293.319 88.9403 293.021 88.567C292.722 88.1843 292.283 87.993 291.705 87.993C291.117 87.993 290.655 88.1983 290.319 88.609C289.992 89.0103 289.829 89.6077 289.829 90.401V94.125H288.779V87.125ZM304.549 94.223C303.896 94.223 303.313 94.0643 302.799 93.747C302.295 93.4297 301.899 92.9957 301.609 92.445C301.32 91.8943 301.175 91.2643 301.175 90.555C301.175 89.8737 301.32 89.267 301.609 88.735C301.899 88.203 302.295 87.7877 302.799 87.489C303.303 87.181 303.877 87.027 304.521 87.027C305.156 87.027 305.721 87.167 306.215 87.447C306.719 87.727 307.111 88.1143 307.391 88.609C307.671 89.1037 307.802 89.6683 307.783 90.303C307.783 90.4057 307.779 90.513 307.769 90.625C307.76 90.737 307.751 90.8583 307.741 90.989H302.323C302.342 91.4277 302.449 91.815 302.645 92.151C302.841 92.487 303.098 92.753 303.415 92.949C303.742 93.1357 304.111 93.229 304.521 93.229C305.063 93.229 305.52 93.1263 305.893 92.921C306.276 92.7157 306.551 92.4217 306.719 92.039L307.629 92.403C307.349 92.991 306.943 93.4437 306.411 93.761C305.879 94.069 305.259 94.223 304.549 94.223ZM306.635 90.079C306.645 89.6777 306.556 89.323 306.369 89.015C306.192 88.707 305.94 88.4643 305.613 88.287C305.287 88.1097 304.909 88.021 304.479 88.021C304.106 88.021 303.765 88.1097 303.457 88.287C303.149 88.4643 302.893 88.7117 302.687 89.029C302.491 89.337 302.375 89.687 302.337 90.079H306.635ZM309.792 87.125H310.758L310.814 88.119C311.038 87.7737 311.332 87.5077 311.696 87.321C312.06 87.125 312.484 87.027 312.97 87.027C313.502 87.027 313.968 87.1437 314.37 87.377C314.771 87.601 315.084 87.9417 315.308 88.399C315.532 88.847 315.644 89.4117 315.644 90.093V94.125H314.594V90.219C314.594 89.491 314.435 88.9403 314.118 88.567C313.81 88.1843 313.362 87.993 312.774 87.993C312.167 87.993 311.691 88.1937 311.346 88.595C311.01 88.9963 310.842 89.589 310.842 90.373V94.125H309.792V87.125ZM318.408 87.125V85.165H319.458V87.125H321.32V88.105H319.458V91.871C319.458 92.3003 319.547 92.613 319.724 92.809C319.911 93.005 320.144 93.1217 320.424 93.159C320.714 93.1963 321.012 93.1963 321.32 93.159V94.069C320.956 94.153 320.597 94.1763 320.242 94.139C319.897 94.1017 319.584 93.999 319.304 93.831C319.034 93.6537 318.814 93.4063 318.646 93.089C318.488 92.7717 318.408 92.3657 318.408 91.871V88.105H317.358V87.125H318.408ZM323.736 91.983C323.792 92.263 323.895 92.4963 324.044 92.683C324.194 92.8603 324.385 92.9957 324.618 93.089C324.861 93.1823 325.141 93.229 325.458 93.229C325.953 93.229 326.326 93.1357 326.578 92.949C326.84 92.753 326.97 92.5103 326.97 92.221C326.97 91.9783 326.891 91.7823 326.732 91.633C326.583 91.4837 326.382 91.3623 326.13 91.269C325.878 91.1663 325.598 91.0777 325.29 91.003C325.048 90.947 324.786 90.8817 324.506 90.807C324.226 90.723 323.96 90.611 323.708 90.471C323.456 90.331 323.251 90.149 323.092 89.925C322.934 89.701 322.854 89.407 322.854 89.043C322.854 88.6417 322.962 88.2917 323.176 87.993C323.4 87.685 323.704 87.447 324.086 87.279C324.478 87.111 324.926 87.027 325.43 87.027C326.009 87.027 326.522 87.153 326.97 87.405C327.428 87.657 327.745 88.049 327.922 88.581L326.942 88.917C326.877 88.6743 326.756 88.4877 326.578 88.357C326.41 88.2263 326.219 88.1377 326.004 88.091C325.799 88.0443 325.594 88.021 325.388 88.021C324.968 88.021 324.628 88.105 324.366 88.273C324.114 88.4317 323.988 88.6743 323.988 89.001C323.988 89.1783 324.03 89.3277 324.114 89.449C324.198 89.561 324.315 89.6543 324.464 89.729C324.614 89.8037 324.791 89.869 324.996 89.925C325.202 89.9717 325.426 90.0277 325.668 90.093C325.939 90.1583 326.214 90.2423 326.494 90.345C326.774 90.4383 327.036 90.5643 327.278 90.723C327.521 90.8723 327.717 91.0683 327.866 91.311C328.025 91.5443 328.104 91.8383 328.104 92.193C328.104 92.6037 327.992 92.963 327.768 93.271C327.544 93.5697 327.232 93.803 326.83 93.971C326.438 94.139 325.981 94.223 325.458 94.223C324.74 94.223 324.142 94.0643 323.666 93.747C323.2 93.4203 322.887 92.9443 322.728 92.319L323.736 91.983ZM330.661 94.195C330.446 94.195 330.264 94.1203 330.115 93.971C329.975 93.8217 329.905 93.6397 329.905 93.425C329.905 93.2103 329.975 93.0283 330.115 92.879C330.264 92.7297 330.446 92.655 330.661 92.655C330.866 92.655 331.044 92.7297 331.193 92.879C331.342 93.0283 331.417 93.2103 331.417 93.425C331.417 93.6397 331.342 93.8217 331.193 93.971C331.044 94.1203 330.866 94.195 330.661 94.195Z" fill="#001842"/>
</svg>
